<?xml version="1.0" encoding="UTF-8" standalone="no"?>
<svg width="222px" height="52px" viewBox="0 0 222 52" version="1.1" xmlns="http://www.w3.org/2000/svg" xmlns:xlink="http://www.w3.org/1999/xlink">
    <!-- Generator: sketchtool 42 (36781) - http://www.bohemiancoding.com/sketch -->
    <title>10246DE8-44E3-499C-876F-761F2B850FF1</title>
    <desc>Created with sketchtool.</desc>
    <defs></defs>
    <g id="Icons" stroke="none" stroke-width="1" fill="none" fill-rule="evenodd">
        <g transform="translate(-93.000000, -1031.000000)" id="BKB_Logo" fill="#FFFFFF">
            <g transform="translate(93.000000, 1031.000000)">
                <path d="M119.268904,15.5702515 C119.323298,14.6812227 119.61796,13.8375819 120.10426,13.3894653 C120.592361,12.9399078 121.224552,12.711887 121.95148,12.711887 C122.678049,12.711887 123.293309,12.9442304 123.796899,13.4009924 C124.301931,13.8584748 124.491408,14.6938305 124.552646,15.5713321 L124.557689,15.6134782 L119.262781,15.6134782 L119.268904,15.5702515 L119.268904,15.5702515 Z M124.886572,22.7764999 C125.720487,22.4227615 126.382576,21.9678007 126.917866,21.3201209 C127.421097,20.7109848 127.728727,20.0171966 127.849041,19.3190856 L124.336873,19.3190856 C124.26771,19.802504 124.054819,20.2019906 123.621471,20.5535677 C123.203253,20.8921767 122.652113,21.0431099 121.975255,21.0431099 C121.165115,21.0431099 120.481773,20.80032 119.999075,20.2563842 C119.500167,19.6940771 119.26206,18.838549 119.21271,17.6573799 L119.210909,17.6181156 L127.99421,17.6181156 C127.99421,16.4499145 127.864891,15.3206174 127.641193,14.5151602 C127.298621,13.2803179 126.53603,12.2155006 125.532811,11.5008194 C124.595152,10.8333274 123.357788,10.4943581 121.969131,10.4943581 C120.706192,10.4943581 119.571131,10.7198573 118.6468,11.2702771 C117.723911,11.8199764 116.956997,12.6131861 116.472498,13.5548073 C115.986198,14.4971491 115.703784,15.6001499 115.703784,16.7975291 C115.703784,18.0741571 115.950536,19.2329925 116.436836,20.207394 C116.954476,21.2484366 117.703378,21.9836504 118.659408,22.5459576 C119.581577,23.0880922 120.726364,23.2916179 122.006955,23.2916179 C123.060245,23.2916179 124.051216,23.129878 124.886572,22.7764999 L124.886572,22.7764999 Z M104.55274,32.6595607 C103.793391,32.6595607 103.025397,32.8223812 102.411939,33.1440597 C101.797399,33.4660985 101.261388,33.9264627 100.841369,34.4754416 L100.718533,34.6598754 L100.718533,32.945217 L97.5766738,32.945217 L97.5766738,44.9795257 L100.938629,44.9795257 L100.938629,38.5333465 C100.938629,37.464927 101.15044,36.6169636 101.60432,36.0485327 C102.060001,35.4775802 102.686788,35.2063328 103.432088,35.2063328 C104.127318,35.2063328 104.696109,35.435074 105.08695,35.8867928 C105.47599,36.3377912 105.655021,37.0196922 105.655021,37.9137641 L105.655021,44.9795257 L109.017336,44.9795257 L109.017336,37.686824 C109.017336,36.1000445 108.714749,34.762899 107.906771,33.9232207 C107.053404,33.0367135 106.004796,32.6595607 104.55274,32.6595607 L104.55274,32.6595607 Z M110.214355,22.9105026 L113.57631,22.9105026 L113.57631,6.07587062 L110.214355,6.07587062 L110.214355,22.9105026 Z M116.111195,42.3610694 C115.860841,42.0700097 115.734042,41.5801073 115.734042,40.905771 L115.734042,35.2502799 L118.325122,35.2502799 L118.325122,32.945217 L115.734042,32.945217 L115.734042,29.7990349 L112.371367,29.7990349 L112.371367,32.945217 L110.291803,32.945217 L110.291803,35.2502799 L112.371367,35.2502799 L112.371367,41.2512243 C112.371367,42.6330373 112.685841,43.6384179 113.329918,44.2392688 C113.973636,44.8415606 115.052502,45.1466689 116.477181,45.1466689 C117.145394,45.1466689 117.835219,45.0699416 118.347816,44.9179277 L118.347816,42.6978773 C118.110429,42.7677604 117.770379,42.8030622 117.445819,42.8030622 C116.84785,42.8030622 116.363711,42.6542904 116.111195,42.3610694 L116.111195,42.3610694 Z M136.995807,13.5184249 C137.4061,13.5184249 137.893481,13.5584096 138.282161,13.636938 L138.282161,10.7717294 C137.950396,10.6993247 137.581889,10.6661842 137.190687,10.6661842 C136.383789,10.6661842 135.847418,10.8228809 135.200459,11.2220073 C134.563586,11.6150099 133.846383,12.3520249 133.455902,13.1956656 L133.455902,10.8761938 L130.13105,10.8761938 L130.13105,22.9105026 L133.493005,22.9105026 L133.493005,17.4073855 C133.493005,16.0648368 133.595668,15.2982836 134.238665,14.543978 C134.828349,13.8527112 135.8503,13.5184249 136.995807,13.5184249 L136.995807,13.5184249 Z M128.050765,41.9940028 C127.546094,42.7007591 126.764772,43.0231581 125.905281,43.0231581 C125.04507,43.0231581 124.264108,42.7007591 123.760157,41.9940028 C123.258367,41.2919294 123.057723,40.1420996 123.057723,38.9627316 C123.057723,37.784084 123.258367,36.633894 123.760157,35.9314604 C124.264828,35.2247041 125.04579,34.9019449 125.905281,34.9019449 C126.764772,34.9019449 127.545734,35.2247041 128.050765,35.9311002 C128.552555,36.6349747 128.753199,37.7848045 128.753199,38.9627316 C128.753199,40.1410189 128.552555,41.291209 128.050765,41.9940028 L128.050765,41.9940028 Z M129.299296,33.3284936 C128.351551,32.8090529 127.186232,32.5637415 125.905281,32.5637415 C124.625411,32.5637415 123.460092,32.8090529 122.510906,33.3284936 C121.565322,33.8472138 120.750859,34.613767 120.23322,35.571238 C119.71486,36.5308704 119.434246,37.6720549 119.434246,38.9627316 C119.434246,40.2541288 119.71486,41.394953 120.23322,42.3535047 C120.750859,43.3120564 121.564601,44.0786096 122.511626,44.5973298 C123.459371,45.1164102 124.62469,45.3613614 125.905281,45.3613614 C127.186232,45.3613614 128.352272,45.1164102 129.298576,44.5973298 C130.24524,44.0796903 131.058982,43.3127769 131.577703,42.3535047 C132.096063,41.3938723 132.376676,40.2530481 132.376676,38.9627316 C132.376676,37.6727753 132.096063,36.5319511 131.577703,35.571238 C131.058982,34.6123261 130.24452,33.8461331 129.299296,33.3284936 L129.299296,33.3284936 Z M202.876515,32.6595607 C202.117166,32.6595607 201.349172,32.8223812 200.735714,33.1440597 C200.121174,33.4660985 199.585163,33.9264627 199.165144,34.4754416 L199.041948,34.6598754 L199.041948,32.945217 L195.900449,32.945217 L195.900449,44.9795257 L199.262404,44.9795257 L199.262404,38.5333465 C199.262404,37.464927 199.474215,36.6169636 199.928095,36.0485327 C200.383776,35.4775802 201.010563,35.2063328 201.755863,35.2063328 C202.451093,35.2063328 203.019884,35.435074 203.410725,35.8867928 C203.799765,36.3377912 203.978796,37.0196922 203.978796,37.9137641 L203.978796,44.9795257 L207.341111,44.9795257 L207.341111,37.686824 C207.341111,36.1000445 207.038524,34.762899 206.230546,33.9232207 C205.377179,33.0367135 204.328571,32.6595607 202.876515,32.6595607 L202.876515,32.6595607 Z M217.04262,38.4850767 L217.063152,38.4613021 L221.588986,32.945217 L217.737489,32.945217 L213.924895,37.832714 L213.516763,38.3334231 L213.516763,28.145254 L210.154808,28.145254 L210.154808,44.9795257 L213.516763,44.9795257 L213.516763,38.7570446 L213.937503,39.3215131 L218.011258,44.9795257 L222,44.9795257 L217.04262,38.4850767 L217.04262,38.4850767 Z M189.835385,39.8805782 C189.835385,40.4662997 189.785674,40.9745735 189.686973,41.3211074 C189.587552,41.6665607 189.425812,41.9947232 189.143758,42.2688524 C188.910694,42.4947119 188.549751,42.7068828 188.194212,42.8271971 C187.839393,42.9471512 187.467283,43.0080287 187.08941,43.0080287 C186.493962,43.0080287 186.044765,42.8516922 185.719844,42.5689177 C185.393483,42.284342 185.216253,41.8470321 185.216253,41.3769419 C185.216253,40.8906417 185.389881,40.4075835 185.708317,40.1471427 C186.099159,39.8276255 186.453617,39.6644448 187.254752,39.5138718 C187.943857,39.3841918 188.864225,39.2966577 189.835385,39.2455061 L189.835385,39.8805782 L189.835385,39.8805782 Z M193.145828,37.139286 C193.145828,35.5687165 192.803977,34.4325751 191.843625,33.5799288 C190.953155,32.7892407 189.602681,32.5637415 187.852721,32.5637415 C186.168321,32.5637415 184.697173,32.9203617 183.805983,33.7229371 C182.983956,34.4628338 182.513865,35.4181435 182.437858,36.5308704 L185.6478,36.5308704 C185.686704,35.9682031 185.830072,35.5269307 186.180929,35.2020101 C186.53899,34.871326 187.17154,34.672123 187.817059,34.672123 C188.462577,34.672123 188.948878,34.8122495 189.315584,35.1674288 C189.68121,35.5229682 189.835385,36.180374 189.835385,36.9181094 L189.835385,37.5304875 C188.723739,37.5708324 187.613533,37.64792 186.653181,37.7930896 C184.932758,38.0614552 183.68819,38.514615 182.952616,39.1417621 C182.237215,39.7530595 181.830523,40.6114694 181.830523,41.5963173 C181.830523,42.6452848 182.214881,43.5760994 182.972428,44.2561992 C183.730696,44.9381002 184.781465,45.2655423 186.058814,45.2655423 C187.739611,45.2655423 189.101252,44.5818402 189.971549,43.3740147 L190.121401,43.138069 L190.121401,43.3959882 C190.121401,44.001522 190.194166,44.5342909 190.302953,44.9795257 L193.478314,44.9795257 C193.257497,44.1438099 193.145828,43.0418896 193.145828,41.7036636 L193.145828,37.139286 L193.145828,37.139286 Z M141.372509,32.6595607 C140.6128,32.6595607 139.844806,32.8223812 139.231347,33.1440597 C138.616808,33.4660985 138.081157,33.9264627 137.660778,34.4754416 L137.537942,34.6598754 L137.537942,32.945217 L134.396082,32.945217 L134.396082,44.9795257 L137.758038,44.9795257 L137.758038,38.5333465 C137.758038,37.464927 137.969848,36.6169636 138.424089,36.0485327 C138.87941,35.4775802 139.506197,35.2063328 140.251497,35.2063328 C140.946726,35.2063328 141.515877,35.435074 141.906358,35.8867928 C142.295759,36.3377912 142.474789,37.0196922 142.474789,37.9137641 L142.474789,44.9795257 L145.836745,44.9795257 L145.836745,37.686824 C145.836745,36.1000445 145.534158,34.762899 144.726539,33.9232207 C143.872812,33.0367135 142.824205,32.6595607 141.372509,32.6595607 L141.372509,32.6595607 Z M155.878303,39.8805782 C155.878303,40.4662997 155.828593,40.9745735 155.729892,41.3211074 C155.63047,41.6665607 155.46873,41.9947232 155.186676,42.2688524 C154.953612,42.4947119 154.59267,42.7068828 154.23713,42.8271971 C153.882311,42.9471512 153.510562,43.0080287 153.131968,43.0080287 C152.536881,43.0080287 152.087683,42.8516922 151.762763,42.5689177 C151.436401,42.284342 151.259172,41.8470321 151.259172,41.3769419 C151.259172,40.8906417 151.432799,40.4075835 151.751236,40.1471427 C152.142077,39.8276255 152.496536,39.6644448 153.29767,39.5138718 C153.986776,39.3841918 154.907144,39.2966577 155.878303,39.2455061 L155.878303,39.8805782 L155.878303,39.8805782 Z M159.188747,37.139286 C159.188747,35.5687165 158.846896,34.4325751 157.886543,33.5799288 C156.996073,32.7892407 155.6456,32.5637415 153.895639,32.5637415 C152.21124,32.5637415 150.740091,32.9203617 149.848901,33.7229371 C149.026874,34.4628338 148.556784,35.4181435 148.480777,36.5308704 L151.690718,36.5308704 C151.729622,35.9682031 151.872991,35.5269307 152.224208,35.2020101 C152.581908,34.871326 153.214459,34.672123 153.859977,34.672123 C154.505496,34.672123 154.991796,34.8122495 155.358502,35.1674288 C155.724128,35.5229682 155.878303,36.180374 155.878303,36.9181094 L155.878303,37.5304875 C154.766657,37.5708324 153.656452,37.64792 152.695739,37.7930896 C150.975677,38.0614552 149.731109,38.514615 148.995535,39.1417621 C148.280133,39.7530595 147.873442,40.6114694 147.873442,41.5963173 C147.873442,42.6452848 148.257799,43.5760994 149.015347,44.2561992 C149.773615,44.9381002 150.824383,45.2655423 152.101732,45.2655423 C153.78289,45.2655423 155.14417,44.5818402 156.014467,43.3740147 L156.16468,43.138069 L156.16468,43.3959882 C156.16468,44.001522 156.237445,44.5342909 156.345872,44.9795257 L159.521232,44.9795257 C159.300416,44.1438099 159.188747,43.0418896 159.188747,41.7036636 L159.188747,37.139286 L159.188747,37.139286 Z M161.943367,44.9795257 L165.305323,44.9795257 L165.305323,28.145254 L161.943367,28.145254 L161.943367,44.9795257 Z M176.13901,41.8686454 C175.643344,42.5674768 174.954239,42.8502513 174.126088,42.8502513 C173.330717,42.8502513 172.666467,42.5397397 172.187011,41.8571183 C171.710076,41.1788196 171.468007,40.1575892 171.468007,38.9627316 C171.468007,37.7682342 171.710076,36.7470038 172.187011,36.0683449 C172.666467,35.3857235 173.330717,35.0395498 174.126088,35.0395498 C174.954239,35.0395498 175.643344,35.3579864 176.13901,36.0564576 C176.632515,36.7502458 176.846847,37.7992134 176.846847,38.9627316 C176.846847,40.12661 176.632515,41.1752174 176.13901,41.8686454 L176.13901,41.8686454 Z M177.954171,33.3803656 C177.186537,32.8627261 176.280938,32.635786 175.262229,32.635786 C174.55151,32.635786 173.875013,32.7906816 173.253269,33.0961502 C172.631885,33.4023392 172.129015,33.8353265 171.757986,34.3832247 L171.747179,34.4001551 L171.640193,34.5889116 L171.640193,28.145254 L168.277517,28.145254 L168.277517,44.9795257 L171.542213,44.9795257 L171.542213,43.1939035 L171.649559,43.38266 L171.660726,43.4003109 C172.030674,43.9957585 172.537867,44.4644078 173.167896,44.7932908 C173.798645,45.1228942 174.48667,45.2900374 175.213599,45.2900374 C176.231587,45.2900374 177.140789,45.0627371 177.917788,44.5450976 C178.761069,43.9817098 179.2978,43.3102553 179.739072,42.3146007 C180.160533,41.362533 180.356854,40.2231496 180.356854,38.9627316 C180.356854,37.7037544 180.164855,36.5643711 179.75168,35.6108625 C179.318333,34.6144874 178.789166,33.9430329 177.954171,33.3803656 L177.954171,33.3803656 Z M103.950809,20.777626 C103.634894,20.9879958 103.092759,21.1573003 102.498392,21.1573003 C101.788394,21.1573003 101.148639,20.9350431 100.766083,20.5964341 C100.391812,20.2643091 100.185404,19.7369436 100.177479,19.1418562 L96.7838244,19.1418562 C96.8162444,20.549245 97.2650815,21.5438189 98.223273,22.250215 C99.1944325,22.9648962 100.691156,23.2916179 102.442197,23.2916179 C104.111828,23.2916179 105.571449,22.980746 106.551974,22.2970439 C107.527096,21.6165839 108.021681,20.6292144 108.021681,19.5035195 C108.021681,18.5961193 107.787177,17.9635689 107.361754,17.4473702 C106.991446,17.0003343 106.321792,16.6617252 105.782179,16.4571189 C105.180968,16.2290982 104.286536,15.9654154 103.243332,15.6959691 C102.512801,15.5064921 101.906186,15.3371876 101.557491,15.2247982 C101.208796,15.1116884 100.93971,14.9326579 100.757798,14.7629932 C100.570842,14.589366 100.458093,14.2086109 100.458093,13.9132286 C100.458093,13.5522858 100.633881,13.1535196 100.934306,12.9427895 C101.232571,12.7335004 101.743726,12.5577118 102.288743,12.5577118 C103.637415,12.5577118 104.37479,13.2435752 104.389199,14.4477986 L107.621114,14.4477986 C107.59734,13.1387505 107.119685,12.1819999 106.226333,11.4997388 C105.320014,10.8088323 103.931717,10.4943581 102.295587,10.4943581 C101.272195,10.4943581 100.289148,10.6485333 99.5049441,10.9507599 C98.7279445,11.2501047 98.0943134,11.7234368 97.6681703,12.2796202 C97.2409466,12.8340024 97.0244529,13.471596 97.0244529,14.1754705 C97.0244529,15.0378428 97.2600384,15.6484197 97.6537614,16.1303973 C98.0474844,16.6152566 98.5971838,16.9037947 99.1324742,17.1264121 C99.6807326,17.3540726 100.45413,17.5770503 101.424209,17.8281253 C102.239752,18.0338122 102.891395,18.2258107 103.246214,18.3353183 C103.619764,18.4505895 103.959454,18.6800511 104.16406,18.8929426 C104.364344,19.1007909 104.451878,19.4293137 104.451878,19.7715249 C104.451878,20.1490379 104.271767,20.5647346 103.950809,20.777626 L103.950809,20.777626 Z M1.78706315,49.2683332 L49.2683332,49.2683332 L49.2683332,1.78706315 L1.78706315,1.78706315 L1.78706315,49.2683332 Z M0,51.0553964 L51.0553964,51.0553964 L51.0553964,0.000360222364 L0,0 L0,51.0553964 L0,51.0553964 Z M82.6692315,28.145254 L78.4373392,28.145254 L72.4331528,36.0236773 L72.4331528,28.145254 L68.8979305,28.145254 L68.8979305,44.9795257 L72.4331528,44.9795257 L72.4331528,36.4851222 L78.7590177,44.9795257 L83.1270741,44.9795257 L76.1726212,36.0780709 L82.6692315,28.145254 L82.6692315,28.145254 Z M72.4324323,20.1641673 L72.4324323,15.6516617 L75.174445,15.6516617 C76.3221134,15.6516617 77.1592702,15.8620316 77.6635815,16.2143291 C78.1711348,16.5698685 78.4286938,17.1307348 78.4286938,17.9185411 C78.4286938,18.6595185 78.1754575,19.2524445 77.6758291,19.6000591 C77.1808836,19.9444316 76.3721843,20.1641673 75.2724255,20.1641673 L72.4324323,20.1641673 L72.4324323,20.1641673 Z M72.4324323,8.7977108 L75.2497315,8.7977108 C76.2511496,8.7977108 76.9899657,8.96449376 77.4460072,9.29337678 C77.9042101,9.6255018 78.1361933,10.1712387 78.1361933,10.8797961 C78.1361933,11.620053 77.8876398,12.2054144 77.3959363,12.5461847 C76.9085554,12.8826324 76.128674,13.0962443 75.0782656,13.0962443 L72.4324323,13.0962443 L72.4324323,8.7977108 L72.4324323,8.7977108 Z M80.4581866,21.7023168 C81.5478593,20.8792087 82.1008006,19.7416265 82.1008006,18.3306355 C82.1008006,17.2499684 81.8230692,16.3803916 81.2751709,15.7453195 C80.7272727,15.1116884 79.849771,14.6624911 78.6689621,14.4106957 L78.6394239,14.4042117 L78.6394239,14.299387 L78.663919,14.2903814 C79.684429,13.9283579 80.3796581,13.4193637 80.8706412,12.7770873 C81.3623448,12.1355312 81.6123391,11.3253911 81.6123391,10.369361 C81.6123391,9.03725868 81.0802906,7.96847892 80.0320436,7.20084506 C78.9776727,6.43068965 77.3826081,6.07587062 75.2904366,6.07587062 L68.8979305,6.07587062 L68.8979305,22.9105026 L75.9017339,22.9105026 C77.8318054,22.9105026 79.3649117,22.5275862 80.4581866,21.7023168 L80.4581866,21.7023168 Z M91.5289005,17.8111948 C91.5289005,18.3969164 91.4791899,18.9051901 91.3804889,19.251724 C91.2810676,19.5975375 91.1193277,19.9253399 90.8376338,20.1998293 C90.6042097,20.4253285 90.2432669,20.6378597 89.8880877,20.758174 C89.5332686,20.878128 89.1611589,20.9390056 88.7829255,20.9390056 C88.1874779,20.9390056 87.7382806,20.7823089 87.4137203,20.4995343 C87.0873588,20.2153189 86.9097692,19.7780089 86.9097692,19.3079187 C86.9097692,18.8212583 87.0833963,18.3382001 87.4018329,18.0781196 C87.7926742,17.7586023 88.147133,17.5954216 88.9482675,17.4448487 C89.6373729,17.3151686 90.557741,17.2272743 91.5289005,17.176483 L91.5289005,17.8111948 L91.5289005,17.8111948 Z M94.8393441,15.0699026 C94.8393441,13.4996933 94.4978533,12.363552 93.5371402,11.5105454 C92.6466705,10.7198573 91.2961969,10.4943581 89.5462366,10.4943581 C87.8618369,10.4943581 86.3906887,10.8513385 85.4998588,11.6535537 C84.6778314,12.3938107 84.2077412,13.3487602 84.1313741,14.461487 L87.3413156,14.461487 C87.3802196,13.8991799 87.5235881,13.4575473 87.8748049,13.132987 C88.2325057,12.8019426 88.8650562,12.6027396 89.5105746,12.6027396 C90.1560931,12.6027396 90.6423933,12.7432264 91.0090997,13.0980454 C91.3750856,13.4535849 91.5289005,14.1109907 91.5289005,14.8487261 L91.5289005,15.4611041 C90.4172543,15.501449 89.307049,15.5785366 88.3466962,15.7237062 C86.6262742,15.9920719 85.3817059,16.4452316 84.6464921,17.0723787 C83.9307302,17.6836761 83.5240392,18.542086 83.5240392,19.5272941 C83.5240392,20.5759014 83.9083964,21.506716 84.6663043,22.1868159 C85.4245724,22.8687168 86.475341,23.1965191 87.7523293,23.1965191 C89.433487,23.1965191 90.7951276,22.5124569 91.6654248,21.3046313 L91.8152773,21.0686856 L91.8152773,21.3269651 C91.8152773,21.9321386 91.8880422,22.4649075 91.9964692,22.9105026 L95.1718293,22.9105026 C94.951013,22.0747867 94.8393441,20.9728665 94.8393441,19.6342802 L94.8393441,15.0699026 L94.8393441,15.0699026 Z M21.8089426,6.07587062 L9.84199544,25.5278783 L21.8089426,44.979886 L45.3530763,44.979886 L33.3861292,25.5278783 L45.3530763,6.07587062 L21.8089426,6.07587062 L21.8089426,6.07587062 Z M91.5123303,39.8805782 C91.5123303,40.4662997 91.4626196,40.9745735 91.3639187,41.3211074 C91.2644973,41.6665607 91.1027575,41.9947232 90.8207034,42.2688524 C90.5876395,42.4947119 90.2266967,42.7068828 89.8711572,42.8271971 C89.5163382,42.9471512 89.1442285,43.0080287 88.765995,43.0080287 C88.1705474,43.0080287 87.7213502,42.8516922 87.3967898,42.5689177 C87.0704283,42.284342 86.8931989,41.8470321 86.8931989,41.3769419 C86.8931989,40.8906417 87.0668261,40.4075835 87.3852627,40.1471427 C87.776104,39.8276255 88.1305628,39.6644448 88.9313371,39.5138718 C89.6208027,39.3841918 90.5411708,39.2966577 91.5123303,39.2455061 L91.5123303,39.8805782 L91.5123303,39.8805782 Z M94.8224136,37.139286 C94.8224136,35.5687165 94.4809228,34.4325751 93.52057,33.5799288 C92.6297401,32.7892407 91.2796267,32.5637415 89.5296664,32.5637415 C87.8452666,32.5637415 86.3741185,32.9203617 85.4829284,33.7229371 C84.6609009,34.4628338 84.1908108,35.4181435 84.1148038,36.5308704 L87.3247453,36.5308704 C87.3636493,35.9682031 87.5070178,35.5269307 87.8578744,35.2020101 C88.2159355,34.871326 88.8484859,34.672123 89.4940044,34.672123 C90.1391627,34.672123 90.6258231,34.8122495 90.9921692,35.1674288 C91.3581551,35.5229682 91.5123303,36.180374 91.5123303,36.9181094 L91.5123303,37.5304875 C90.4006841,37.5708324 89.2904788,37.64792 88.3297657,37.7930896 C86.6097039,38.0614552 85.3651357,38.514615 84.6295616,39.1417621 C83.91416,39.7530595 83.5074689,40.6114694 83.5074689,41.5963173 C83.5074689,42.6452848 83.8918262,43.5760994 84.6493738,44.2561992 C85.4076419,44.9381002 86.4584105,45.2655423 87.735759,45.2655423 C89.4165566,45.2655423 90.7781971,44.5818402 91.6484944,43.3740147 L91.7983469,43.138069 L91.7983469,43.3959882 C91.7983469,44.001522 91.8711118,44.5342909 91.9798989,44.9795257 L95.1552591,44.9795257 C94.9340826,44.1438099 94.8224136,43.0418896 94.8224136,41.7036636 L94.8224136,37.139286 L94.8224136,37.139286 Z" id="160330_bkb_logo_rz_2-copy-28"></path>
            </g>
        </g>
    </g>
</svg>