<?xml version="1.0" encoding="UTF-8"?>
<svg width="22px" height="22px" viewBox="0 0 22 22" version="1.1" xmlns="http://www.w3.org/2000/svg" xmlns:xlink="http://www.w3.org/1999/xlink">
    <!-- Generator: Sketch 47.1 (45422) - http://www.bohemiancoding.com/sketch -->
    <title>ic_full-location</title>
    <desc>Created with Sketch.</desc>
    <defs></defs>
    <g id="Symbols" stroke="none" stroke-width="1" fill="none" fill-rule="evenodd">
        <g id="atom/icon/ic_current_location" fill-rule="nonzero" fill="#1C3553">
            <path d="M11,7.72727273 C9.19181818,7.72727273 7.72727273,9.19181818 7.72727273,11 C7.72727273,12.8081818 9.19181818,14.2727273 11,14.2727273 C12.8081818,14.2727273 14.2727273,12.8081818 14.2727273,11 C14.2727273,9.19181818 12.8081818,7.72727273 11,7.72727273 Z M18.3145455,10.1818182 C17.9381818,6.77 15.23,4.06181818 11.8181818,3.68545455 L11.8181818,2 L10.1818182,2 L10.1818182,3.68545455 C6.77,4.06181818 4.06181818,6.77 3.68545455,10.1818182 L2,10.1818182 L2,11.8181818 L3.68545455,11.8181818 C4.06181818,15.23 6.77,17.9381818 10.1818182,18.3145455 L10.1818182,20 L11.8181818,20 L11.8181818,18.3145455 C15.23,17.9381818 17.9381818,15.23 18.3145455,11.8181818 L20,11.8181818 L20,10.1818182 L18.3145455,10.1818182 Z M11,16.7272727 C7.83363636,16.7272727 5.27272727,14.1663636 5.27272727,11 C5.27272727,7.83363636 7.83363636,5.27272727 11,5.27272727 C14.1663636,5.27272727 16.7272727,7.83363636 16.7272727,11 C16.7272727,14.1663636 14.1663636,16.7272727 11,16.7272727 Z" id="Shape"></path>
        </g>
    </g>
</svg>