<?xml version="1.0" encoding="UTF-8"?>
<svg width="504px" height="535px" viewBox="0 0 504 535" version="1.1" xmlns="http://www.w3.org/2000/svg" xmlns:xlink="http://www.w3.org/1999/xlink">
    <!-- Generator: Sketch 48.2 (47327) - http://www.bohemiancoding.com/sketch -->
    <title>ref</title>
    <desc>Created with Sketch.</desc>
    <defs>
        <linearGradient x1="50%" y1="0%" x2="50%" y2="100%" id="linearGradient-1">
            <stop stop-color="#41E0F2" offset="0%"></stop>
            <stop stop-color="#2EE819" offset="25.1833546%"></stop>
            <stop stop-color="#EFEC47" offset="50.9267379%"></stop>
            <stop stop-color="#FFBC66" offset="76.2236926%"></stop>
            <stop stop-color="#E0190B" offset="100%"></stop>
        </linearGradient>
    </defs>
    <g id="Noise" stroke="none" stroke-width="1" fill="none" fill-rule="evenodd" transform="translate(-30.000000, -459.000000)">
        <g id="left-pane" transform="translate(0.000000, 83.000000)">
            <g id="noise-levels" transform="translate(28.000000, 335.000000)">
                <g id="ref" transform="translate(0.000000, 41.000000)">
                    <g id="list" transform="translate(129.000000, 0.000000)">
                        <g id="pd" transform="translate(0.000000, 472.000000)">
                            <text id="Pin-Falling" font-family="Helvetica" font-size="18" font-weight="normal" fill="#383838">
                                <tspan x="186" y="23">Pin Falling</tspan>
                            </text>
                            <path d="M0.5,25.5 L124.5,25.5" id="Line-4" stroke="#979797" stroke-linecap="square"></path>
                            <g id="needle" transform="translate(134.000000, 0.000000)">
                                <path d="M0.5,25.5 L35.5,25.5" id="Line-5" stroke="#383838" stroke-linecap="square"></path>
                                <g transform="translate(19.906700, 14.354319) rotate(45.000000) translate(-19.906700, -14.354319) translate(13.640033, 0.354319)" fill="#383838" fill-rule="nonzero" id="Shape">
                                    <path d="M2.24613333,5.20924444 C2.02586667,5.20924444 1.61688889,5.20924444 1.61688889,1.94951111 C1.61688889,1.40151111 2.01093333,1.31982222 2.24613333,1.31982222 C2.53288889,1.31982222 2.87493333,1.42888889 2.87493333,1.94951111 C2.87493333,5.20924444 2.4664,5.20924444 2.24613333,5.20924444 Z M2.24613333,1.76568889 C2.0784,1.76568889 2.0616,1.8 2.0616,1.94951111 C2.0616,3.25075556 2.14675556,4.17626667 2.24613333,4.58222222 C2.34506667,4.17626667 2.42951111,3.25075556 2.42951111,1.94951111 C2.42951111,1.79457778 2.42435556,1.76568889 2.24613333,1.76568889 Z"></path>
                                    <path d="M12.4145778,2.09324444 C12.3412444,1.98364444 12.1915556,1.95333333 12.0838222,2.02791111 C12.0543111,2.04657778 9.14542222,3.9616 6.85626667,2.40008889 C5.96524444,1.79182222 5.10293333,1.61075556 4.35253333,1.62666667 C4.10328889,0.693422222 3.25751111,0 2.24613333,0 C1.03857778,0 0.0568,0.982044444 0.0568,2.18844444 C0.0568,3.15688889 1.73102222,26.5691556 1.80168889,27.5656889 C1.81848889,27.7981333 2.01244444,27.9791111 2.24613333,27.9791111 C2.47964444,27.9791111 2.67377778,27.7981333 2.68995556,27.5656889 C2.76133333,26.5691556 4.43511111,3.15688889 4.43511111,2.18844444 C4.43511111,2.15884444 4.42737778,2.13057778 4.42595556,2.10142222 C5.07608889,2.10044444 5.81875556,2.2696 6.58666667,2.79484444 C7.3496,3.31555556 8.15955556,3.49973333 8.92444444,3.49973333 C10.7170667,3.49973333 12.2584,2.48524444 12.3493333,2.42462222 C12.4593778,2.35084444 12.4892444,2.2024 12.4145778,2.09324444 Z M2.24613333,21.2608 C1.65208889,12.8748444 0.946844444,2.77795556 0.946844444,2.18844444 C0.946844444,1.4736 1.52986667,0.890311111 2.24613333,0.890311111 C2.80284444,0.890311111 3.27431111,1.24471111 3.45928889,1.73751111 C2.53848889,1.95377778 1.93742222,2.39822222 1.92604444,2.40631111 C1.82035556,2.48657778 1.79982222,2.63608889 1.87955556,2.74142222 C1.95982222,2.84693333 2.10933333,2.8664 2.21413333,2.78711111 C2.22417778,2.77964444 2.744,2.39537778 3.54373333,2.20284444 C3.53608889,2.89742222 2.83662222,12.9224889 2.24613333,21.2608 Z"></path>
                                </g>
                            </g>
                        </g>
                        <g id="rl" transform="translate(0.000000, 394.000000)">
                            <text id="Rusting-Leaves-(Fore" font-family="Helvetica" font-size="18" font-weight="normal" fill="#383838">
                                <tspan x="186" y="28">Rusting Leaves (Forest)</tspan>
                            </text>
                            <path d="M0.5,30.5 L124.5,30.5" id="Line-4" stroke="#979797" stroke-linecap="square"></path>
                            <g id="forest" transform="translate(134.000000, 0.000000)" fill="#383838" fill-rule="nonzero">
                                <path d="M39.2455361,30.1776998 L30.7291228,30.1776998 L30.7291228,26.1393372 C32.5888499,25.8892008 34.237115,24.7277193 35.1955556,22.9668616 C36.4689279,22.6757895 37.625731,21.9385575 38.4814815,20.865731 C39.4104483,19.7010526 39.9221053,18.2125536 39.9221053,16.674386 C39.9221053,14.3345029 38.7239766,12.1688109 36.8388304,11.0438986 C36.6424172,7.14191033 33.6344639,4.03064327 29.9710721,4.03064327 C28.8179337,4.03064327 27.6769591,4.34448343 26.6715789,4.93824561 C26.3587524,5.12296296 26.2548928,5.52623782 26.4396101,5.83898635 C26.6244055,6.15189084 27.0277583,6.25567251 27.3404288,6.07095517 C28.1433918,5.59672515 29.0530214,5.34612086 29.9710721,5.34612086 C33.0325146,5.34612086 35.5277973,8.07929825 35.5335673,11.4388304 C35.5340351,11.6863938 35.6733723,11.9127485 35.894269,12.0245614 C37.5419883,12.8584795 38.6065497,14.6835867 38.6065497,16.674308 C38.6065497,19.1867446 36.9051072,21.3620273 34.6487329,21.734191 C34.4374269,21.7691228 34.2563743,21.9045614 34.1633528,22.0975439 C33.4576998,23.5609357 32.1826901,24.5501754 30.7291228,24.8077193 L30.7291228,18.9874464 L33.9662378,16.0106823 C34.2336062,15.7647563 34.2510721,15.348694 34.0051462,15.0813255 C33.7591423,14.8139571 33.3431579,14.7964133 33.0757895,15.0424172 L30.7291228,17.2003119 L30.7291228,12.8095127 C30.7291228,12.4462378 30.4346199,12.1517349 30.071345,12.1517349 C29.7080702,12.1517349 29.4135673,12.4462378 29.4135673,12.8095127 L29.4135673,20.7705263 L27.0669006,18.6126316 C26.7995322,18.3666277 26.3833918,18.3841715 26.1375439,18.65154 C25.8916179,18.9189084 25.9090838,19.3349708 26.1764522,19.5808967 L29.4136452,22.5576608 L29.4136452,24.8385185 C27.8626121,24.6386745 26.4947368,23.6123977 25.7607797,22.0594932 C25.6730604,21.8738402 25.5036257,21.7398051 25.302846,21.697232 C23.1202339,21.2335283 21.5361404,19.1211696 21.5361404,16.674308 C21.5361404,14.7449513 22.5090838,12.9987524 24.0752437,12.1174269 C24.2848343,11.9994542 24.4133333,11.7765302 24.4103704,11.5361404 C24.4102144,11.5178947 24.4095906,11.4998051 24.4089669,11.4817934 C24.408577,11.471345 24.4081871,11.4609747 24.4081871,11.4506043 C24.4081871,10.0803899 24.8125536,8.78573099 25.5775439,7.70674464 C25.7876803,7.41037037 25.7177388,6.99976608 25.4214425,6.78978558 C25.1250682,6.57957115 24.7144639,6.64966862 24.5044834,6.94588694 C23.6329825,8.17504873 23.1492398,9.63118908 23.0974659,11.1729435 C21.3136062,12.3362183 20.2207407,14.4081871 20.2207407,16.674386 C20.2207407,19.6220663 22.0920858,22.1897076 24.7149318,22.9076803 C25.7021442,24.7669396 27.4482651,25.9701365 29.4138012,26.162729 L29.4138012,30.1776998 L28.997193,30.1776998 C28.9002729,28.4562963 27.7235867,26.9587524 26.0849903,26.4530994 C25.5708382,25.3592203 24.5721637,24.5660819 23.3978168,24.3089279 C23.0127875,22.5588304 21.4373489,21.2538012 19.6014815,21.2538012 C18.185809,21.2538012 16.9021442,22.0146589 16.2178558,23.225731 C14.8702534,23.2769591 13.6586355,23.9968811 12.9626511,25.1122027 C12.5288889,23.9189084 11.4177778,23.0500585 10.1168811,22.9566472 L10.1168811,21.2272904 C11.8925536,20.9804288 13.4648733,19.8697856 14.3835478,18.1896296 C15.6038986,17.9076803 16.7122027,17.1996881 17.5327096,16.1710721 C18.4261209,15.0511501 18.9181287,13.6198051 18.9181287,12.1408187 C18.9181287,9.89614035 17.7712281,7.81793372 15.9654581,6.73387914 C15.7695127,2.99033138 12.8805458,0.00787524366 9.36288499,0.00787524366 C8.01356725,0.00787524366 6.7157115,0.443040936 5.60951267,1.26651072 C5.31820663,1.48335283 5.25777778,1.89551657 5.47461988,2.18690058 C5.69146199,2.47820663 6.10354776,2.53863548 6.39500975,2.32179337 C7.27235867,1.66853801 8.29863548,1.32335283 9.36288499,1.32335283 C12.2783626,1.32335283 14.6548148,3.92748538 14.6603509,7.12842105 C14.6608187,7.37598441 14.8001559,7.60233918 15.0210526,7.71415205 C16.5892398,8.50783626 17.6024172,10.2454581 17.6024172,12.1408187 C17.6024172,14.5326316 15.9835478,16.6033528 13.8367251,16.9574269 C13.6254971,16.9923587 13.4443665,17.1277973 13.351345,17.3207797 C12.6850682,18.7024561 11.4859259,19.6403119 10.1167251,19.8945029 L10.1167251,14.3677973 L13.2069396,11.5262378 C13.474308,11.2803119 13.4916959,10.8642495 13.245848,10.5968811 C13,10.3294347 12.5838596,10.3119688 12.3164912,10.5579727 L10.1167251,12.5807407 L10.1167251,8.4408577 C10.1167251,8.07758285 9.82222222,7.78307992 9.45894737,7.78307992 C9.09567251,7.78307992 8.80116959,8.07758285 8.80116959,8.4408577 L8.80116959,15.9988304 L6.60148148,13.9760624 C6.33403509,13.7300585 5.91797271,13.7476023 5.67212476,14.0149708 C5.42619883,14.2823392 5.44366472,14.6984795 5.71103314,14.9443275 L8.80109162,17.7858869 L8.80109162,19.9253021 C7.33863548,19.7252242 6.05083821,18.7520468 5.35727096,17.2847563 C5.26955166,17.0991033 5.10011696,16.9650682 4.89933723,16.9224951 C2.82269006,16.4810916 1.31539961,14.4702534 1.31539961,12.1408187 C1.31539961,10.3037037 2.24132554,8.64132554 3.73192982,7.80249513 C3.94136452,7.68460039 4.06986355,7.46206628 4.06705653,7.22175439 C4.06690058,7.20397661 4.06635478,7.18619883 4.06573099,7.16849903 C4.06549708,7.15890838 4.06502924,7.14939571 4.06502924,7.13964912 C4.06502924,6.32608187 4.21497076,5.53933723 4.51064327,4.80132554 C4.59859649,4.58206628 4.69988304,4.36670565 4.81192982,4.16101365 C4.98565302,3.84194932 4.86791423,3.4425731 4.5488499,3.2688499 C4.22978558,3.09497076 3.83033138,3.21278752 3.65668616,3.53185185 C3.52015595,3.78261209 3.39664717,4.04506823 3.28966862,4.31204678 C2.96561404,5.12070175 2.78604288,5.97590643 2.75461988,6.85824561 C1.04615984,7.97847953 0,9.96678363 0,12.1408187 C0,14.9709942 1.79477583,17.437193 4.31157895,18.1322417 C5.2580117,19.9065107 6.92421053,21.0576998 8.80116959,21.2503704 L8.80116959,23.1317739 C8.08132554,23.3833138 7.46526316,23.8806238 7.06892788,24.548616 C5.47157895,24.6394542 4.18089669,25.8191813 3.93076023,27.3750487 C2.75267057,27.8982456 1.87680312,28.9359064 1.55430799,30.1775439 L0.657777778,30.1775439 C0.294502924,30.1775439 0,30.4720468 0,30.8353216 C0,31.1985965 0.294502924,31.4930994 0.657777778,31.4930994 L2.09871345,31.4930994 L16.9473684,31.4930994 L28.3192982,31.4930994 L39.2455361,31.4930994 C39.6088109,31.4930994 39.9033138,31.1985965 39.9033138,30.8353216 C39.9033138,30.4720468 39.6087329,30.1776998 39.2455361,30.1776998 Z M2.93387914,30.1776998 C3.24764133,29.3780897 3.90768031,28.7411306 4.74853801,28.4687719 C5.01309942,28.3830799 5.19516569,28.1403509 5.20335283,27.8624561 C5.23649123,26.7387914 6.14323587,25.8585575 7.26768031,25.8585575 C7.31274854,25.8585575 7.36202729,25.8606628 7.42261209,25.8651072 C7.70440546,25.8854581 7.96803119,25.7245224 8.0774269,25.4639376 C8.38401559,24.7345809 9.09317739,24.2632359 9.88413255,24.2632359 C10.8998051,24.2632359 11.757193,25.0555945 11.8361014,26.0671345 C11.8613645,26.3900195 12.1178168,26.6465497 12.4407797,26.6718129 C12.620117,26.68577 12.7935283,26.7251462 12.9577388,26.7851852 C12.9584405,26.7854191 12.9590643,26.785809 12.9597661,26.7860429 C12.9902534,26.797271 13.0202729,26.8093567 13.0500585,26.8219883 C13.0564522,26.8247173 13.062924,26.8274464 13.0693177,26.8302534 C13.097154,26.8423392 13.1246784,26.8550487 13.1517349,26.8683821 C13.1609357,26.8729825 13.1699805,26.8777388 13.1791033,26.8824172 C13.2166082,26.9015984 13.2533333,26.9220273 13.2893567,26.9434698 C13.3090058,26.9552437 13.3288109,26.9666277 13.3479922,26.9791033 C13.3625731,26.98846 13.3766082,26.9985185 13.3907992,27.0081092 C13.4123977,27.022846 13.4338402,27.0378168 13.4548928,27.0534113 C13.4668226,27.0623002 13.4785965,27.0711891 13.4902144,27.0803119 C13.5156335,27.100117 13.5407407,27.1205458 13.5651462,27.1416764 C13.5719298,27.1474464 13.5787135,27.1529825 13.5854191,27.1588304 C13.6502144,27.2162183 13.7112671,27.2780507 13.7681092,27.3437037 C13.7733333,27.3497856 13.7784795,27.3558674 13.7836257,27.3620273 C13.8075634,27.3903314 13.8306433,27.4194152 13.8530214,27.4491228 C13.8573099,27.4548148 13.8617544,27.4604288 13.8659649,27.4661988 C13.917037,27.5357505 13.9635867,27.6090448 14.0053801,27.6855361 C14.0109162,27.6956725 14.0161404,27.7060429 14.0215984,27.7163353 C14.0364133,27.7446394 14.0505263,27.7734893 14.0640156,27.802729 C14.0693957,27.814269 14.0747758,27.825809 14.079922,27.8374269 C14.0965302,27.8753216 14.1122807,27.9137622 14.1265497,27.9528265 C14.1270955,27.95423 14.1275634,27.9554776 14.1281092,27.9568811 C14.2052242,28.1699025 14.3865887,28.3282651 14.6080312,28.3759844 C14.6668226,28.388616 14.7244444,28.4040546 14.7811306,28.4214425 C14.7996101,28.4271345 14.8175439,28.4340741 14.8358674,28.4402339 C14.8736062,28.4528655 14.9111891,28.465731 14.9479142,28.4803899 C14.9691228,28.4888889 14.9897856,28.4984795 15.0106043,28.5076023 C15.0434308,28.5219493 15.0761014,28.5365302 15.1080702,28.5524366 C15.1295906,28.5631189 15.1504873,28.5746589 15.17154,28.5860429 C15.2017934,28.6023392 15.2317349,28.6191813 15.2609747,28.6368811 C15.2817934,28.6494347 15.3023002,28.6624561 15.3226511,28.6757115 C15.3510331,28.694191 15.3790253,28.7134503 15.4064717,28.7332554 C15.4260429,28.7473684 15.4453801,28.7614815 15.4644055,28.7762183 C15.4916179,28.797271 15.5179727,28.8191813 15.5440936,28.8414035 C15.5617934,28.8564522 15.5797271,28.871423 15.5969591,28.8870175 C15.6237037,28.911345 15.6492788,28.9366862 15.6747758,28.9621832 C15.6898246,28.977232 15.7054191,28.9919688 15.72,29.0075634 C15.748694,29.0380507 15.7758285,29.0698635 15.802729,29.1018324 C15.8127096,29.1137622 15.8233138,29.1249903 15.8330604,29.137076 C15.8689279,29.1818324 15.9031579,29.2278363 15.9354386,29.2753216 C15.9422222,29.2852242 15.9480702,29.2958285 15.9546199,29.305809 C15.9794932,29.3437037 16.0037427,29.3819883 16.0262768,29.4213645 C16.0364133,29.4392203 16.0455361,29.4577778 16.0552047,29.4759454 C16.0726706,29.508538 16.0898246,29.5412086 16.105653,29.5746589 C16.1154776,29.5954776 16.1242105,29.6167641 16.1333333,29.6378168 C16.1472125,29.6698635 16.1606238,29.7019103 16.1729435,29.7346589 C16.1813645,29.757115 16.1890838,29.7798051 16.1968031,29.8025731 C16.2077973,29.8350097 16.2180897,29.8676803 16.2276023,29.9007407 C16.234308,29.9241326 16.2405458,29.9476803 16.2465497,29.971306 C16.2548928,30.0048343 16.2622222,30.0385965 16.2690058,30.0725926 C16.2737622,30.0962963 16.2783626,30.12 16.2823392,30.1440156 C16.2842105,30.1551657 16.2851462,30.1664717 16.2867836,30.1776998 L2.93387914,30.1776998 Z M17.6130994,30.1777778 L17.6130994,30.1776998 C17.6125536,30.171462 17.6112281,30.1653021 17.6107602,30.1591423 C17.6031969,30.0806238 17.5934503,30.0025731 17.5805848,29.9254581 C17.5798051,29.9209357 17.5787914,29.9164133 17.5780117,29.9118908 C17.5646004,29.8332164 17.548616,29.7553216 17.5299025,29.6782846 C17.5291228,29.6749318 17.528499,29.6715789 17.5276413,29.6683821 C17.5088499,29.5920468 17.4870955,29.5168031 17.4633918,29.4424172 C17.4608187,29.4344639 17.4584795,29.4262768 17.4558285,29.4183236 C17.4324366,29.3467446 17.4063938,29.2762573 17.3784016,29.2065497 C17.374347,29.1964912 17.3704483,29.1863548 17.3663158,29.1763743 C17.3382456,29.1081481 17.3079142,29.0410916 17.2756335,28.9750487 C17.2705653,28.9646004 17.2654971,28.95423 17.2602729,28.9438596 C17.2273684,28.8782066 17.1925926,28.8136452 17.1557895,28.7503314 C17.1501754,28.7407407 17.1445614,28.731306 17.1388694,28.7217154 C17.1009747,28.6578558 17.0612865,28.5951657 17.0194152,28.5339571 C17.014347,28.5264717 17.0090448,28.5192203 17.0038986,28.5118908 C16.9602339,28.4490448 16.9149318,28.3873684 16.8673684,28.3275634 C16.8644055,28.3238207 16.8612086,28.3202339 16.8582456,28.3164133 C16.808499,28.254347 16.7568811,28.1938402 16.7030019,28.1352827 C16.7023782,28.1346589 16.7018324,28.1339571 16.7012865,28.1333333 C16.6479532,28.0754776 16.5923587,28.0195712 16.5352047,27.9653021 C16.5302144,27.9605458 16.5253801,27.9556335 16.5203899,27.9509552 C16.4654191,27.8994152 16.408499,27.8498246 16.3501754,27.8017934 C16.3423782,27.7953996 16.3346589,27.7888499 16.3267836,27.7823782 C16.2693957,27.7359844 16.2104483,27.691462 16.1500195,27.648655 C16.1406628,27.6420273 16.131306,27.6353996 16.1219493,27.6288499 C16.0615984,27.5869006 15.9997661,27.5468226 15.9366082,27.508694 C15.9267057,27.502768 15.9167251,27.4968421 15.9068226,27.4909942 C15.842807,27.4531774 15.7776218,27.417232 15.7111111,27.3834698 C15.7019883,27.3787914 15.6927096,27.3745029 15.6835088,27.3699805 C15.6148928,27.3360624 15.5451852,27.3038596 15.4739961,27.274386 C15.4676803,27.2717349 15.4612865,27.2694737 15.4549708,27.2669006 C15.3803509,27.2365692 15.3046394,27.2082651 15.2274464,27.1830799 C15.2272125,27.1830019 15.2269006,27.182846 15.2265887,27.1826901 C15.2232359,27.1759064 15.2194152,27.1695906 15.2160624,27.162885 C15.1894737,27.1096296 15.1616374,27.0573099 15.1323197,27.005848 C15.1173489,26.9795712 15.1013645,26.9539181 15.08577,26.9280312 C15.0668226,26.8969201 15.0477193,26.8658869 15.0278363,26.8353996 C15.0087329,26.8060039 14.9890838,26.777154 14.9689669,26.74846 C14.951501,26.7235867 14.9335673,26.6991033 14.9154776,26.6746979 C14.8927096,26.6438986 14.8698635,26.6132554 14.8460039,26.5833138 C14.8319688,26.56577 14.817232,26.5489279 14.802885,26.5317739 C14.7474464,26.4651072 14.6895127,26.4007797 14.6289279,26.3387135 C14.6184795,26.3280312 14.608499,26.3169591 14.5979727,26.3064327 C14.5678752,26.2764912 14.5367641,26.2477973 14.505575,26.2190253 C14.4875634,26.2024172 14.4696296,26.1858869 14.4512281,26.1696686 C14.4214425,26.1434698 14.3911891,26.1177388 14.3603119,26.0924756 C14.3378558,26.0740741 14.3150097,26.0563743 14.2920858,26.0385185 C14.2634698,26.0164522 14.2350877,25.994152 14.205692,25.9729435 C14.1643665,25.9430019 14.1221053,25.9144639 14.0793762,25.8864717 C14.0679922,25.8789864 14.057154,25.8707212 14.045614,25.8633918 C14.5249903,25.0535673 15.4024951,24.5387135 16.3720078,24.5387135 C16.431345,24.5387135 16.4957505,24.5414425 16.5746589,24.5472125 C16.8560624,24.5681871 17.12,24.4065497 17.2293957,24.1460429 C17.6318129,23.1883821 18.562963,22.5695906 19.6014815,22.5695906 C20.9350487,22.5695906 22.0607407,23.6100585 22.1642885,24.9382456 C22.1894737,25.2611306 22.4460039,25.5176608 22.7689669,25.542846 C23.7722417,25.6210526 24.6419493,26.2834308 24.9847173,27.2304094 C25.0618324,27.4434308 25.2431969,27.6017934 25.4646394,27.6495127 C26.6782066,27.9110331 27.5784795,28.9546199 27.6796101,30.1780117 L17.6130994,30.1780117 L17.6130994,30.1777778 Z" id="Shape"></path>
                            </g>
                        </g>
                        <g id="rh" transform="translate(0.000000, 334.000000)">
                            <path d="M0.5,39.5 L124.5,39.5" id="Line-4" stroke="#979797" stroke-linecap="square"></path>
                            <text id="Refrigerator-Hum" font-family="Helvetica" font-size="18" font-weight="normal" fill="#383838">
                                <tspan x="186" y="36">Refrigerator Hum</tspan>
                            </text>
                            <g id="refrigerator" transform="translate(134.000000, 0.000000)" fill="#383838" fill-rule="nonzero">
                                <path d="M28.6822656,0 L3.34898438,0 C1.5109375,0 0.015625,1.4953125 0.015625,3.33335938 L0.015625,14 C0.015625,14.3679687 0.314296875,14.6666406 0.682265625,14.6666406 L28.6822656,14.6666406 C29.0502344,14.6666406 29.3489062,14.3679687 29.3489062,14 C29.3489062,13.6320313 29.0502344,13.3333594 28.6822656,13.3333594 L1.34898437,13.3333594 L1.34898437,3.33335938 C1.34898437,2.23070313 2.24632812,1.33335938 3.34898437,1.33335938 L28.6823438,1.33335938 C29.785,1.33335938 30.6823438,2.23070313 30.6823438,3.33335938 L30.6823438,34 C30.6823438,35.1026562 29.785,36 28.6823438,36 C28.314375,36 28.0157031,36.2986719 28.0157031,36.6666406 L28.0157031,38.6666406 L4.015625,38.6666406 L4.015625,37.3332813 L26.015625,37.3332813 C26.3835937,37.3332813 26.6822656,37.0346094 26.6822656,36.6666406 C26.6822656,36.2986719 26.3835937,36 26.015625,36 L3.34898438,36 C2.24632812,36 1.34898437,35.1026563 1.34898437,34 L1.34898437,16.6666406 C1.34898437,16.2986719 1.0503125,16 0.68234375,16 C0.314375,16 0.015703125,16.2986719 0.015703125,16.6666406 L0.015703125,34 C0.015703125,35.61 1.16304687,36.9560156 2.68234375,37.2660156 L2.68234375,39.3333594 C2.68234375,39.7013281 2.98101562,40 3.34898438,40 L28.6823438,40 C29.0503125,40 29.3489844,39.7013281 29.3489844,39.3333594 L29.3489844,37.2660156 C30.8682813,36.9567188 32.015625,35.61 32.015625,34 L32.015625,3.33335938 C32.015625,1.4953125 30.5203125,0 28.6822656,0 Z" id="Shape"></path>
                                <path d="M2.68226562,7.33335937 L2.68226562,10 C2.68226562,11.1026562 3.57960937,12 4.68226562,12 C5.78492187,12 6.68226562,11.1026562 6.68226562,10 L6.68226562,7.33335937 C6.68226562,6.23070312 5.78492187,5.33335937 4.68226562,5.33335937 C3.57960937,5.33335937 2.68226562,6.23070312 2.68226562,7.33335937 Z M5.34898437,7.33335937 L5.34898437,10 C5.34898437,10.3673437 5.0496875,10.6666406 4.68234375,10.6666406 C4.315,10.6666406 4.01570312,10.3673437 4.01570312,10 L4.01570312,7.33335937 C4.01570312,6.96601562 4.315,6.66671875 4.68234375,6.66671875 C5.04960937,6.66664062 5.34898437,6.96601562 5.34898437,7.33335937 Z" id="Shape"></path>
                                <path d="M28.6822656,9.33335937 C29.0502344,9.33335937 29.3489063,9.0346875 29.3489063,8.66671875 L29.3489063,6 C29.3489063,5.63203125 29.0502344,5.33335937 28.6822656,5.33335937 C28.3142969,5.33335937 28.015625,5.63203125 28.015625,6 L28.015625,8.66664062 C28.015625,9.0346875 28.3142969,9.33335937 28.6822656,9.33335937 Z" id="Shape"></path>
                                <path d="M28.6822656,4.66664063 C29.0502344,4.66664063 29.3489063,4.36796875 29.3489063,4 C29.3489063,3.2646875 28.7509375,2.66664063 28.0155469,2.66664063 C27.6475781,2.66664063 27.3489063,2.96460938 27.3489063,3.33328125 C27.3489063,3.70125 27.6475781,3.99929688 28.0155469,3.99929688 L28.0155469,4 C28.015625,4.36796875 28.3142969,4.66664063 28.6822656,4.66664063 Z" id="Shape"></path>
                                <path d="M6.68226562,24.6666406 L6.68226562,18 C6.68226562,16.8973437 5.78492187,16 4.68226562,16 C3.57960937,16 2.68226562,16.8973437 2.68226562,18 L2.68226562,24.6666406 C2.68226562,25.7692969 3.57960937,26.6666406 4.68226562,26.6666406 C5.78492187,26.6666406 6.68226562,25.7692969 6.68226562,24.6666406 Z M4.015625,24.6666406 L4.015625,18 C4.015625,17.6326563 4.31492187,17.3333594 4.68226562,17.3333594 C5.04960937,17.3333594 5.34890625,17.6326563 5.34890625,18 L5.34890625,24.6666406 C5.34890625,25.0339844 5.04960937,25.3332812 4.68226562,25.3332812 C4.31492187,25.3333594 4.015625,25.0339844 4.015625,24.6666406 Z" id="Shape"></path>
                            </g>
                        </g>
                        <g id="conv" transform="translate(0.000000, 248.000000)">
                            <path d="M0.5,39.5 L124.5,39.5" id="Line-4" stroke="#979797" stroke-linecap="square"></path>
                            <text id="Conversation" font-family="Helvetica" font-size="18" font-weight="normal" fill="#383838">
                                <tspan x="186" y="36">Conversation</tspan>
                            </text>
                            <g id="conversation" transform="translate(134.000000, 0.000000)" fill="#383838" fill-rule="nonzero">
                                <path d="M14.5630409,32.8903704 L12.7090838,32.4566082 C12.1402729,32.3235088 11.7430019,31.8225341 11.7430019,31.2383626 L11.7430019,30.662768 C13.1444834,29.757037 14.0748538,28.1819883 14.0748538,26.3927485 L14.0748538,22.7277193 C14.0748538,22.7275634 14.0748538,22.7274074 14.0748538,22.7272515 L14.0748538,22.7201559 C14.0748538,22.7159454 14.074308,22.7130604 14.07423,22.7090058 C14.0722807,22.6014815 14.0415595,22.4931774 13.9782456,22.3966472 C13.7995322,22.1244444 13.434152,22.048655 13.1617934,22.2272125 C12.6680702,22.5512671 11.4810916,22.7501754 10.8474074,22.7501754 C9.28927875,22.7501754 7.78768031,22.1936062 6.51134503,21.177232 L5.06378168,19.6167641 C5.33551657,19.2223002 5.63906433,18.8807018 5.97021442,18.5988304 C7.43766082,17.3501754 9.16506823,17.4102144 9.17964912,17.4109162 C10.2691618,17.4672125 11.3041715,17.9625731 12.2562183,18.8834308 C13.1075244,19.7069006 13.7440156,20.8830409 14.1478363,22.3791033 C14.2326706,22.6934893 14.5561793,22.8792203 14.8707212,22.7947758 C15.1851072,22.7098635 15.3711501,22.3861988 15.2863158,22.0718908 C14.8261988,20.3673294 14.0825731,19.0094347 13.0760234,18.0357115 C11.6276803,16.6348538 10.1908772,16.2823392 9.24054581,16.2332164 C9.17426901,16.2298635 7.982846,16.1792593 6.61980507,16.8023392 C5.99758285,16.5023002 5.3105653,16.3447953 4.61481481,16.3447953 C2.07017544,16.3449513 0,18.4151267 0,20.9596881 C0,22.1692788 0.464717349,23.3126706 1.30853801,24.1790253 C2.01582846,24.9052632 2.92460039,25.3693567 3.91126706,25.5198441 L3.91126706,26.3928265 C3.91126706,28.2541131 4.91781676,29.8840546 6.4145809,30.7692788 L6.4145809,31.2383626 C6.4145809,31.8225341 6.01730994,32.3234308 5.44849903,32.4566082 L3.59454191,32.8903704 C1.79898635,33.3105653 0.544951267,34.8919298 0.544951267,36.7359844 L0.544951267,39.1169591 C0.544951267,39.4426511 0.808966862,39.7065887 1.1345809,39.7065887 L17.0231579,39.7065887 C17.3487719,39.7065887 17.6127875,39.4426511 17.6127875,39.1169591 L17.6127875,36.7359844 C17.6126316,34.8919298 16.3585965,33.3105653 14.5630409,32.8903704 Z M3.91150097,24.3231969 C2.33871345,24.0016374 1.17925926,22.6252632 1.17925926,20.9596881 C1.17925926,19.0653411 2.72038986,17.5242105 4.61473684,17.5242105 C4.85575049,17.5242105 5.09497076,17.5507992 5.32881092,17.6003119 C5.28779727,17.6333723 5.24678363,17.6662768 5.20608187,17.7008967 C4.67992203,18.148616 4.21450292,18.7102534 3.82222222,19.3699805 C3.82191033,19.3704483 3.82152047,19.3708382 3.82128655,19.371306 C3.82019493,19.3730214 3.81925926,19.3748148 3.81816764,19.3765302 C3.81684211,19.3787914 3.8154386,19.3808967 3.81411306,19.3830799 C3.81380117,19.3836257 3.81364522,19.3841715 3.81333333,19.3846394 C3.44795322,19.9734113 3.19118908,20.6145809 3.05091618,21.2909942 C2.92576998,21.894425 2.89637427,22.5118129 2.96374269,23.1260819 C2.98222222,23.2950487 3.07282651,23.4477973 3.21216374,23.5451852 C3.31212476,23.6149708 3.43017544,23.651462 3.54986355,23.651462 C3.59703704,23.651462 3.64452242,23.64577 3.6911501,23.63423 C3.7651462,23.6159844 3.83844055,23.5959454 3.91150097,23.5750487 L3.91150097,24.3231969 Z M4.35189084,22.1504094 C4.28561404,22.1677193 4.22362573,22.1957115 4.168577,22.2332943 C4.14994152,22.2413255 4.13169591,22.2502144 4.11290448,22.2580117 C4.12467836,22.0138791 4.15547758,21.7708382 4.20530214,21.5306043 C4.25824561,21.2754776 4.33309942,21.0268226 4.42682261,20.7854191 C4.67625731,21.0803119 4.93847953,21.3563353 5.21216374,21.6126316 C4.89551657,21.8556725 4.63500975,22.0042105 4.53902534,22.0557505 C4.47758285,22.0888109 4.41497076,22.12 4.35189084,22.1504094 Z M5.09044834,26.3928265 L5.09044834,23.0980897 C5.09270955,23.0968421 5.09497076,23.0957505 5.09723197,23.0945809 C5.27555556,22.9987524 5.68140351,22.7626511 6.14307992,22.3784016 C7.54495127,23.3832359 9.16460039,23.9295906 10.8473294,23.9295906 C11.2697856,23.9295906 12.13154,23.8455361 12.8955945,23.614191 L12.8955945,26.3929045 C12.8955945,28.5447173 11.1449513,30.2953606 8.99306043,30.2953606 C6.84116959,30.2953606 5.09044834,28.5446394 5.09044834,26.3928265 Z M16.4335283,38.5273294 L1.72413255,38.5273294 L1.72413255,36.7359844 C1.72413255,35.4424951 2.60374269,34.3333333 3.86323587,34.0385965 L4.02916179,33.9997661 C4.61068226,34.9452632 5.45723197,35.722729 6.45208577,36.2161404 C6.5362963,36.2579337 6.62557505,36.2777388 6.71360624,36.2777388 C6.93052632,36.2777388 7.13933723,36.1575049 7.24226121,35.9500195 C7.38697856,35.6583236 7.26775828,35.3044834 6.97606238,35.1597661 C6.29754386,34.8232359 5.70518519,34.3217154 5.25645224,33.7125926 L5.71727096,33.6047563 C6.80966862,33.3491618 7.57582846,32.3949318 7.59306043,31.2768031 C8.03812865,31.4046004 8.50744639,31.4744639 8.99306043,31.4744639 C9.54120858,31.4744639 10.0687719,31.3861209 10.5638207,31.2248733 L10.5638207,31.2383626 C10.5638207,32.3730214 11.3355166,33.3461988 12.4404678,33.6047563 L12.9026901,33.7129045 C12.0173879,34.9235867 10.611384,35.6505263 9.07883041,35.6505263 C8.75321637,35.6505263 8.48920078,35.9144639 8.48920078,36.2401559 C8.48920078,36.565848 8.75321637,36.8297856 9.07883041,36.8297856 C11.1603899,36.8297856 13.0549708,35.7563353 14.1287329,33.9998441 L14.294425,34.0385965 C15.5539181,34.3333333 16.4335283,35.4424951 16.4335283,36.7359844 L16.4335283,38.5273294 Z" id="Shape"></path>
                                <circle id="Oval" cx="7.21169591" cy="24.4732943" r="1"></circle>
                                <circle id="Oval" cx="10.597271" cy="24.4732943" r="1"></circle>
                                <g id="Group" transform="translate(7.407407, 16.218324)">
                                    <path d="M2.09122807,11.4083431 C1.80023392,11.6993372 1.32670565,11.6993372 1.0357115,11.4083431 C0.807407407,11.180039 0.43711501,11.179961 0.208732943,11.4084211 C-0.0196491228,11.6367251 -0.0195711501,12.0070175 0.208810916,12.2353996 C0.582300195,12.6088109 1.07290448,12.7955556 1.56350877,12.7955556 C2.05411306,12.7955556 2.54471735,12.6088109 2.91812865,12.2353996 C3.14651072,12.0070955 3.14658869,11.6368031 2.91820663,11.4084211 C2.68990253,11.179961 2.31961014,11.180039 2.09122807,11.4083431 Z" id="Shape"></path>
                                    <path d="M22.4103704,12.7956335 C22.9008967,12.7956335 23.3915789,12.6088109 23.7650682,12.2353996 C23.9934503,12.0070955 23.9934503,11.6368031 23.7651462,11.4084211 C23.5368421,11.180039 23.1665497,11.179961 22.9381676,11.4083431 C22.6470955,11.6993372 22.1737232,11.6991813 21.882729,11.4083431 C21.654269,11.180039 21.2841326,11.179961 21.0556725,11.4084211 C20.8272904,11.6367251 20.8272904,12.0070175 21.0556725,12.2353996 C21.4292398,12.6088889 21.9197661,12.7956335 22.4103704,12.7956335 Z" id="Shape"></path>
                                    <path d="M30.382768,17.1837037 C30.0967641,17.0279142 29.7387135,17.1334113 29.582846,17.4193372 C29.4269786,17.7052632 29.5324756,18.0633918 29.8184016,18.2191813 C30.7682651,18.7369201 31.3354386,19.5961793 31.3354386,20.5176608 L31.3354386,22.3090058 L28.9201559,22.3090058 L28.9201559,21.6106823 C28.9201559,21.2849903 28.6561404,21.0210526 28.3305263,21.0210526 C28.0049123,21.0210526 27.7408967,21.2849903 27.7408967,21.6106823 L27.7408967,22.3090058 L17.1261598,22.3090058 L17.1261598,21.6106823 C17.1261598,21.2849903 16.8621442,21.0210526 16.5365302,21.0210526 C16.2109162,21.0210526 15.9469006,21.2849903 15.9469006,21.6106823 L15.9469006,22.3090058 L13.5278752,22.3090058 L13.5278752,20.5176608 C13.5278752,19.2346199 14.6068616,18.1273294 16.1518129,17.8247953 L18.3673294,17.3910331 C18.63423,17.3387135 18.8839766,17.2546589 19.1127485,17.1444834 C20.068538,17.8566082 21.2311111,18.2455361 22.4316569,18.2455361 C23.6322027,18.2455361 24.7948538,17.8566082 25.7505653,17.1444834 C25.9793372,17.2546589 26.2290838,17.3387914 26.4959844,17.3910331 L27.9992982,17.6853801 C28.0375828,17.6927875 28.0756335,17.6964522 28.1132164,17.6964522 C28.3894737,17.6964522 28.6361014,17.5013645 28.6912281,17.220117 C28.7537622,16.9005068 28.5454191,16.5907212 28.2258869,16.5281871 L26.7225731,16.2338402 C26.014425,16.0952047 25.5003509,15.5847173 25.5003509,15.020117 L25.5003509,14.15423 C26.6732943,13.2225341 27.4276023,11.7854191 27.4276023,10.1745029 L27.4276023,6.50962963 C27.4276023,6.50931774 27.4276023,6.50908382 27.4276023,6.50877193 L27.4276023,6.5019883 C27.4276023,6.49785575 27.4270565,6.49504873 27.4269786,6.4911501 C27.4251072,6.38354776 27.394386,6.27508772 27.3309162,6.17847953 C27.1522807,5.9062768 26.7866667,5.83048733 26.5144639,6.00904483 C26.0207407,6.33309942 24.8337622,6.5320078 24.2001559,6.5320078 C22.6420273,6.5320078 21.1405068,5.9754386 19.8640936,4.9591423 L18.4165302,3.39859649 C18.6882651,3.00421053 18.9918129,2.66253411 19.3230409,2.38066277 C20.7904873,1.1320078 22.5177388,1.19204678 22.5323977,1.19274854 C23.6219103,1.24904483 24.6569981,1.74440546 25.6090448,2.66526316 C26.4603509,3.48873294 27.0967641,4.66487329 27.5006628,6.16101365 C27.5854971,6.47539961 27.9090838,6.66105263 28.2235478,6.57660819 C28.5379337,6.49169591 28.7239766,6.16803119 28.6391423,5.85364522 C28.1789474,4.14916179 27.4353216,2.79118908 26.4288499,1.81762183 C24.9805068,0.416764133 23.5437037,0.0642495127 22.5932943,0.0150487329 C22.5045614,0.0105263158 20.3944639,-0.079454191 18.5589084,1.4825731 C18.0325926,1.93037037 17.5670955,2.49216374 17.1748148,3.15196881 C17.1745809,3.1522807 17.174269,3.15259259 17.1741131,3.15298246 C17.1732554,3.15430799 17.1725536,3.15563353 17.1716959,3.15695906 C17.1701365,3.15961014 17.1684211,3.16218324 17.1667836,3.16483431 C17.1663938,3.16545809 17.1662378,3.16608187 17.165848,3.16670565 C16.8005458,3.75524366 16.5439376,4.39641326 16.4035867,5.07259259 C16.2783626,5.67602339 16.2490448,6.29341131 16.3164133,6.90775828 C16.3348928,7.07672515 16.4254971,7.22947368 16.5648343,7.3268616 C16.6647953,7.39664717 16.782846,7.4331384 16.9025341,7.4331384 C16.9497076,7.4331384 16.997193,7.42744639 17.0438207,7.41590643 C17.1178168,7.39766082 17.1911111,7.37762183 17.2641715,7.35672515 L17.2641715,10.174425 C17.2641715,11.8625341 18.0923197,13.3601559 19.362963,14.2848343 L19.362963,15.020039 C19.362963,15.5846394 18.8489669,16.0950487 18.1408187,16.2337622 L15.9253021,16.6675244 C13.8194932,17.0798441 12.3487719,18.6631579 12.3487719,20.5176608 L12.3487719,22.8986355 C12.3487719,23.2243275 12.6127875,23.4882651 12.9384016,23.4882651 L31.9250682,23.4882651 C32.2506823,23.4882651 32.5146979,23.2243275 32.5146979,22.8986355 L32.5146979,20.5176608 C32.5146199,19.1576608 31.7176608,17.9112671 30.382768,17.1837037 Z M22.4316569,17.0662768 C21.5907212,17.0662768 20.7734893,16.8239376 20.0733723,16.3760624 C20.3717739,15.9871345 20.5422222,15.5198441 20.5422222,15.020039 L20.5422222,14.9242885 C21.1031579,15.1380897 21.7108772,15.2562183 22.3459649,15.2562183 C23.0461598,15.2562183 23.7136842,15.1138402 24.3211696,14.8566082 L24.3211696,15.020039 C24.3211696,15.5198441 24.49154,15.9871345 24.7900195,16.3760624 C24.0899025,16.8238596 23.2726706,17.0662768 22.4316569,17.0662768 Z M17.7047953,5.93208577 C17.6385185,5.94939571 17.5766082,5.97738791 17.5215595,6.01497076 C17.502846,6.02300195 17.4846784,6.03189084 17.4658869,6.03968811 C17.4776608,5.79547758 17.50846,5.55251462 17.5582846,5.3122807 C17.6112281,5.05707602 17.6860039,4.80849903 17.7798051,4.56709552 C18.0292398,4.86191033 18.291462,5.1380117 18.5651462,5.39430799 C18.2483431,5.63734893 17.9878363,5.78588694 17.8919298,5.8374269 C17.8304873,5.87048733 17.7678752,5.90175439 17.7047953,5.93208577 Z M18.4433528,10.1745029 L18.4433528,6.87968811 C18.4455361,6.87851852 18.4477973,6.8774269 18.4500585,6.87625731 C18.6283041,6.78050682 19.034152,6.54448343 19.4960624,6.16007797 C20.8979337,7.16491228 22.5175828,7.71118908 24.2003119,7.71118908 C24.622768,7.71118908 25.4845224,7.6271345 26.248499,7.39578947 L26.248499,10.1745029 C26.248499,12.3263158 24.4978558,14.0769591 22.3459649,14.0769591 C20.1940741,14.0769591 18.4433528,12.3263158 18.4433528,10.1745029 Z" id="Shape"></path>
                                </g>
                                <circle id="Oval" cx="27.9719298" cy="24.4732943" r="1"></circle>
                                <circle id="Oval" cx="31.3575049" cy="24.4732943" r="1"></circle>
                                <path d="M27.4189474,12.697076 C28.9752827,11.3097856 29.8523197,9.34315789 29.8375049,7.24491228 C29.8093567,3.27243665 26.5674074,0.0595711501 22.5997661,0.0595711501 C22.5832359,0.0595711501 22.5663158,0.0595711501 22.5497856,0.0597270955 C20.6016374,0.0729824561 18.7791813,0.848810916 17.4182456,2.24421053 C16.7521248,2.92717349 16.2377388,3.71758285 15.8898246,4.57520468 L12.7309162,4.57520468 C12.4053021,4.57520468 12.1412865,4.83922027 12.1412865,5.16483431 C12.1412865,5.49044834 12.4053021,5.75446394 12.7309162,5.75446394 L15.5264717,5.75446394 C15.4435867,6.13840156 15.3915789,6.53107212 15.3717739,6.92966862 L12.5052632,6.92966862 C12.1796491,6.92966862 11.9156335,7.19368421 11.9156335,7.51929825 C11.9156335,7.84491228 12.1796491,8.10892788 12.5052632,8.10892788 L15.4079532,8.10892788 C15.4528655,8.50869396 15.5324756,8.90120858 15.6421832,9.28405458 L12.7309162,9.28405458 C12.4053021,9.28405458 12.1412865,9.54807018 12.1412865,9.87368421 C12.1412865,10.1992982 12.4053021,10.4633138 12.7309162,10.4633138 L16.0949708,10.4633138 C16.4397661,11.1668616 16.9005848,11.8179337 17.4681481,12.3899415 C17.6158285,12.5387914 17.7696686,12.6792982 17.9276413,12.8137232 C17.1946979,13.1477583 16.4009357,13.3329435 15.5916569,13.3537622 C15.0729825,13.3672515 14.5566472,13.3151657 14.0568421,13.1992203 C13.8612865,13.1538402 13.6556725,13.211306 13.5118129,13.3515789 C12.6884211,14.1551657 11.6757115,14.4589474 11.342846,14.5588304 C11.2619103,14.5831579 11.1802729,14.605614 11.0979337,14.6261988 C11.4410136,14.0503704 11.6912281,13.3692008 11.8442885,12.5921248 C11.8867057,12.377076 11.8063158,12.1562573 11.6355556,12.0187914 C10.1845614,10.8506823 9.36,9.11376218 9.37317739,7.25333333 C9.39664717,3.92810916 12.1104873,1.23883041 15.4318129,1.23883041 C15.445692,1.23883041 15.4598051,1.23883041 15.4736842,1.23898635 C15.8290838,1.24140351 16.1848733,1.27477583 16.5312281,1.33832359 C16.8520078,1.39734893 17.1588304,1.18495127 17.2174659,0.864717349 C17.2761793,0.544405458 17.0641715,0.23711501 16.7438596,0.178479532 C16.3301365,0.102612086 15.9054971,0.0626900585 15.4816374,0.0598050682 C15.4648733,0.0597270955 15.4484211,0.0596491228 15.4316569,0.0596491228 C11.4643275,0.0596491228 8.22206628,3.27274854 8.1939961,7.24499025 C8.17918129,9.34315789 9.05621832,11.3097856 10.6126316,12.697076 C10.4725926,13.2507602 10.2215984,13.9235088 9.77465887,14.4650292 C9.53910331,14.7504873 9.50152047,15.1436257 9.67883041,15.4667446 C9.83719298,15.7552437 10.1352047,15.928655 10.4585575,15.928655 C10.4956725,15.928655 10.5331774,15.9263158 10.5707602,15.9217154 C10.9467446,15.8751657 11.3206238,15.7966472 11.6818713,15.6881871 C12.0530214,15.5768421 13.1251462,15.2552047 14.0994152,14.4123197 C14.5989864,14.5051852 15.1099415,14.5454191 15.6221442,14.5323977 C16.8155166,14.5015984 17.9805068,14.1725536 19.0152047,13.5788694 C20.0430409,14.1696686 21.2031969,14.5013645 22.4095127,14.5323977 C22.9219493,14.545575 23.4325926,14.5052632 23.9321637,14.4123197 C24.9064327,15.2551267 25.9785575,15.5768421 26.3496296,15.6881871 C26.7109552,15.7966472 27.0848343,15.8751657 27.4607407,15.9217154 C27.4983236,15.9263938 27.5357505,15.928655 27.5729435,15.928655 C27.8962963,15.928655 28.194308,15.7553216 28.3526706,15.4668226 C28.5299805,15.1437817 28.4923977,14.7505653 28.2569201,14.4650292 C27.8099025,13.9233528 27.5589864,13.2506823 27.4189474,12.697076 Z M26.688577,14.5588304 C26.3557895,14.4590253 25.3430799,14.1551657 24.5196881,13.3515789 C24.4082651,13.242885 24.260039,13.1839376 24.1079142,13.1839376 C24.0635478,13.1839376 24.0188694,13.1889279 23.9747368,13.1991423 C23.4749318,13.3150097 22.9582066,13.3672515 22.44,13.3536842 C21.345575,13.3254581 20.2959844,13.0015595 19.3837037,12.4247953 C19.3550877,12.4022612 19.3247563,12.3824561 19.2930214,12.365848 C18.9407407,12.134191 18.6090448,11.8654971 18.3052632,11.5592982 C17.7540741,11.0038207 17.3224951,10.360078 17.0240936,9.66175439 C17.019961,9.65099415 17.0155945,9.64038986 17.0108382,9.63001949 C16.7176608,8.93294347 16.5565692,8.18214425 16.5425341,7.41037037 C16.5128265,5.77746589 17.1235867,4.23516569 18.2624561,3.06752437 C19.4017154,1.8994152 20.9271735,1.24998051 22.5578168,1.23890838 C22.5719298,1.23883041 22.585653,1.23875244 22.5996881,1.23875244 C25.9207018,1.23875244 28.6347758,3.92826511 28.6583236,7.25325536 C28.671501,9.11368421 27.8469396,10.8506823 26.3959454,12.0187914 C26.2252632,12.1561793 26.1447953,12.3769981 26.1872125,12.5920468 C26.3402729,13.3690448 26.5904873,14.0503704 26.9335673,14.6261988 C26.8512281,14.605614 26.7695127,14.5831579 26.688577,14.5588304 Z" id="Shape"></path>
                                <path d="M26.0653411,4.47274854 L19.3927485,4.47274854 C19.0671345,4.47274854 18.8031189,4.73676413 18.8031189,5.06237817 C18.8031969,5.38807018 19.0671345,5.6520078 19.3927485,5.6520078 L26.0653411,5.6520078 C26.3909552,5.6520078 26.6549708,5.3879922 26.6549708,5.06237817 C26.6549708,4.73676413 26.3909552,4.47274854 26.0653411,4.47274854 Z" id="Shape"></path>
                                <path d="M26.0653411,6.82721248 L19.3927485,6.82721248 C19.0671345,6.82721248 18.8031189,7.09122807 18.8031189,7.41684211 C18.8031969,7.74245614 19.0671345,8.00647173 19.3927485,8.00647173 L26.0653411,8.00647173 C26.3909552,8.00647173 26.6549708,7.74245614 26.6549708,7.41684211 C26.6549708,7.09122807 26.3909552,6.82721248 26.0653411,6.82721248 Z" id="Shape"></path>
                                <path d="M22.837193,9.18159844 L19.3927485,9.18159844 C19.0671345,9.18159844 18.8031189,9.44561404 18.8031189,9.77122807 C18.8031969,10.0969201 19.0671345,10.3608577 19.3927485,10.3608577 L22.837193,10.3608577 C23.162807,10.3608577 23.4268226,10.0968421 23.4268226,9.77122807 C23.4268226,9.44561404 23.162807,9.18159844 22.837193,9.18159844 Z" id="Shape"></path>
                            </g>
                        </g>
                        <g id="traff" transform="translate(0.000000, 151.000000)">
                            <path d="M0.5,30.5 L124.5,30.5" id="Line-4" stroke="#979797" stroke-linecap="square"></path>
                            <text id="City-Traffic" font-family="Helvetica" font-size="18" font-weight="normal" fill="#383838">
                                <tspan x="186" y="27">City Traffic</tspan>
                            </text>
                            <g id="scooter" transform="translate(134.000000, 0.000000)" fill="#383838" fill-rule="nonzero">
                                <path d="M0.666640625,22.7235937 L18.6666406,22.7235937 C18.8679687,22.7235937 19.0579688,22.6328906 19.1839844,22.47625 L27.8373437,11.8096094 C27.9520313,11.6689063 28.0039844,11.4875781 27.9813281,11.3075781 L27.3146875,5.97421875 C27.2807031,5.70421875 27.0867187,5.4821875 26.8239844,5.4121875 C26.560625,5.34015625 26.2826563,5.43953125 26.12,5.656875 L24.12,8.32351563 C23.8986719,8.6175 23.9579687,9.03554688 24.2533594,9.25617188 C24.5480469,9.47820313 24.9660156,9.4175 25.1860156,9.12351563 L26.1960156,7.776875 L26.6233594,11.1908594 L18.3486719,21.3902344 L1.36335937,21.3902344 C1.70132813,17.6575781 4.84804687,14.7235938 8.66671875,14.7235938 L16.1633594,14.7235938 L17.3586719,18.9069531 C17.4426563,19.1989844 17.71,19.3903125 17.999375,19.3903125 C18.0607031,19.3903125 18.1220312,19.3816406 18.1827344,19.3642969 C18.5374219,19.2629687 18.7420313,18.8942969 18.6414063,18.5403125 L17.5447656,14.7016406 C18.9153125,14.5922656 20,13.4549219 20,12.0569531 C20,10.58625 18.8039844,9.3903125 17.3333594,9.3903125 L6,9.3903125 C4.89734375,9.3903125 4,10.2869531 4,11.3903125 L4,12.7236719 C4,13.3736719 4.31664062,13.9463281 4.79867188,14.3123438 C3.91070312,14.7576563 3.109375,15.3476562 2.42734375,16.0570313 L1.33335938,16.0570313 C0.9646875,16.0570313 0.66671875,16.355 0.66671875,16.7236719 C0.66671875,17.0916406 0.9646875,17.3903125 1.33335938,17.3903125 L1.37539063,17.3903125 C0.509296875,18.7389062 0,20.3375781 0,22.0569531 C0,22.4249219 0.29796875,22.7235937 0.666640625,22.7235937 Z M5.33335937,11.3902344 C5.33335937,11.0222656 5.63203125,10.7235938 6,10.7235938 L17.3333594,10.7235938 C18.0680469,10.7235938 18.6667187,11.3215625 18.6667187,12.0569531 C18.6667187,12.7922656 18.0680469,13.3903125 17.3333594,13.3903125 L6,13.3903125 C5.63203125,13.3903125 5.33335937,13.0910156 5.33335937,12.7236719 L5.33335937,11.3902344 Z" id="Shape"></path>
                                <path d="M39.3333594,29.3915625 L28.6666406,29.3915625 C28.2979688,29.3915625 28,29.6902344 28,30.0582031 C28,30.4261719 28.2979688,30.7248438 28.6666406,30.7248438 L39.3332812,30.7248438 C39.7019531,30.7248438 39.9999219,30.4261719 39.9999219,30.0582031 C39.9999219,29.6902344 39.7020312,29.3915625 39.3333594,29.3915625 Z" id="Shape"></path>
                                <path d="M12.5633594,15.9669531 C12.3007031,16.2249219 12.2980469,16.6469531 12.5567188,16.9096094 C13.3140625,17.6775781 13.9014063,18.6182813 14.2567188,19.6296094 C14.3520313,19.9049219 14.6100781,20.07625 14.8853906,20.07625 C14.9580469,20.07625 15.0333594,20.0642188 15.1060938,20.0389063 C15.4534375,19.916875 15.6360938,19.53625 15.5147656,19.1889063 C15.0954688,17.9928906 14.4014063,16.8809375 13.5060938,15.9735938 C13.2473438,15.7109375 12.8253125,15.7082813 12.5633594,15.9669531 Z" id="Shape"></path>
                                <path d="M26.12,3.79023438 C26.2453125,3.95820313 26.4433594,4.056875 26.6526563,4.056875 L30.6666406,4.056875 C31.2932813,4.056875 31.7146094,3.70351563 31.9666406,3.4921875 C31.9779687,3.48289063 31.9886719,3.47351563 32,3.46351563 L32,5.996875 C31.9786719,5.97953125 31.9566406,5.9615625 31.9379688,5.94484375 C31.6792969,5.72414063 31.2872656,5.39015625 30.6666406,5.39015625 L29.3192969,5.39015625 C29.0959375,5.39015625 28.8879688,5.50148438 28.7646094,5.68679688 C28.64125,5.8728125 28.6185938,6.108125 28.7046094,6.3134375 L32.05125,14.3134375 C32.1552344,14.5614063 32.3978906,14.7234375 32.6665625,14.7234375 C34.8225781,14.7234375 36.8425781,15.668125 38.2265625,17.2894531 L25.39,21.1429688 C25.7313281,18.4169531 27.5820313,16.0696094 30.2079688,15.1409375 C30.5553125,15.0182813 30.7372656,14.6375781 30.6146094,14.2903125 C30.4919531,13.9436719 30.1125781,13.7609375 29.7646094,13.8836719 C26.3166406,15.1023438 23.9999219,18.3870313 23.9999219,22.0570313 C23.9999219,22.2677344 24.0992188,22.4657031 24.2685938,22.5917188 C24.3852344,22.6783594 24.5246094,22.72375 24.6665625,22.72375 C24.73125,22.72375 24.7952344,22.714375 24.8578906,22.6957813 L39.5245312,18.2924219 C39.7271875,18.2317188 39.8878906,18.0790625 39.9598437,17.8810938 C40.031875,17.683125 40.0058594,17.4624219 39.8898437,17.2864062 C38.3611719,14.9724219 35.8538281,13.5430469 33.1151562,13.4017188 L30.3204688,6.72375 L30.6664844,6.72375 C30.7838281,6.72375 30.8804687,6.79578125 31.073125,6.95976562 C31.2864844,7.14179687 31.5778125,7.39046875 31.9997656,7.39046875 C32.7604688,7.39046875 33.333125,6.81710937 33.333125,6.05710937 L33.333125,3.39046875 C33.333125,2.65515625 32.7351563,2.05710937 31.9997656,2.05710937 C31.6044531,2.05710937 31.3303906,2.28578125 31.1104687,2.47046875 C30.923125,2.62710937 30.8011719,2.72382812 30.6664844,2.72382812 L26.9858594,2.72382812 L25.1858594,0.323828125 C24.9651563,0.029140625 24.5471875,-0.031484375 24.2532031,0.19046875 C23.9578906,0.411171875 23.8985156,0.829140625 24.1198438,1.12382812 L26.12,3.79023438 Z" id="Shape"></path>
                                <path d="M32.6526563,24.0569531 C31.8446875,24.0569531 31.120625,23.5749219 30.8073438,22.8296094 C30.6653125,22.4896094 30.2739844,22.3309375 29.9346875,22.4722656 C29.5953906,22.6149219 29.4353906,23.005625 29.5780469,23.3449219 C30.0986719,24.5875781 31.3060156,25.3902344 32.6527344,25.3902344 C34.4907031,25.3902344 35.9860938,23.8942188 35.9860938,22.056875 C35.9860938,21.7708594 35.9500781,21.4861719 35.8774219,21.2095313 C35.7840625,20.8535156 35.41875,20.6395313 35.0640625,20.7335156 C34.7074219,20.8261719 34.4940625,21.1901563 34.5874219,21.546875 C34.6307813,21.7128906 34.6527344,21.8848438 34.6527344,22.056875 C34.6526563,23.1596094 33.7560156,24.0569531 32.6526563,24.0569531 Z" id="Shape"></path>
                                <path d="M10,29.3915625 L0.666640625,29.3915625 C0.29796875,29.3915625 0,29.6902344 0,30.0582031 C0,30.4261719 0.29796875,30.7248438 0.666640625,30.7248438 L10,30.7248438 C10.3686719,30.7248438 10.6666406,30.4261719 10.6666406,30.0582031 C10.6666406,29.6902344 10.3686719,29.3915625 10,29.3915625 Z" id="Shape"></path>
                                <path d="M20.6666406,29.3915625 L14,29.3915625 C13.6313281,29.3915625 13.3333594,29.6902344 13.3333594,30.0582031 C13.3333594,30.4261719 13.6313281,30.7248438 14,30.7248438 L20.6666406,30.7248438 C21.0353125,30.7248438 21.3332812,30.4261719 21.3332812,30.0582031 C21.3332812,29.6902344 21.0353125,29.3915625 20.6666406,29.3915625 Z" id="Shape"></path>
                                <path d="M26,29.3915625 L24.6666406,29.3915625 C24.2979688,29.3915625 24,29.6902344 24,30.0582031 C24,30.4261719 24.2979688,30.7248438 24.6666406,30.7248438 L26,30.7248438 C26.3686719,30.7248438 26.6666406,30.4261719 26.6666406,30.0582031 C26.6666406,29.6902344 26.3686719,29.3915625 26,29.3915625 Z" id="Shape"></path>
                                <path d="M13.6146875,24.14625 C13.2967187,23.9615625 12.8886719,24.0709375 12.7039844,24.3889062 C11.87,25.8289062 10.3226562,26.7235937 8.66664062,26.7235937 C7.010625,26.7235937 5.46328125,25.8289062 4.62929687,24.3889062 C4.4453125,24.0709375 4.03726562,23.9622656 3.71859375,24.14625 C3.39992187,24.3309375 3.290625,24.7389062 3.4759375,25.0575781 C4.54726562,26.9075781 6.53664062,28.056875 8.66664062,28.056875 C10.7966406,28.056875 12.7859375,26.9075781 13.8572656,25.0575781 C14.0420312,24.7389062 13.9333594,24.3309375 13.6146875,24.14625 Z" id="Shape"></path>
                                <path d="M9.66734375,23.7916406 C9.059375,24.1416406 8.26601563,24.1382813 7.66,23.7829688 C7.34132813,23.5963281 6.93265625,23.7029688 6.74796875,24.0209375 C6.56195312,24.3382813 6.66796875,24.7469531 6.9853125,24.9335938 C7.4953125,25.2322656 8.07796875,25.3902344 8.67132812,25.3902344 C9.2546875,25.3902344 9.82929688,25.236875 10.3326562,24.946875 C10.6513281,24.7635156 10.7619531,24.3555469 10.5773437,24.03625 C10.3946875,23.7175781 9.98601563,23.6082813 9.66734375,23.7916406 Z" id="Shape"></path>
                                <path d="M32.6479688,28.0582813 C33.1292969,28.0582813 33.6179688,27.9996094 34.1039844,27.8789844 C37.3139844,27.0782813 39.2739844,23.815625 38.4746875,20.605625 C38.3853906,20.2482813 38.0253906,20.0296094 37.6660156,20.1196094 C37.309375,20.2089063 37.0920313,20.5709375 37.1807031,20.9275781 C37.8027344,23.4242188 36.2780469,25.9622656 33.7814063,26.5849219 C31.4853906,27.1575781 29.1207031,25.9209375 28.2867188,23.7075781 C28.1567188,23.3628906 27.7720312,23.1896094 27.4280469,23.3189063 C27.0833594,23.4482031 26.90875,23.8328906 27.039375,24.1775781 C27.9346875,26.55625 30.2026563,28.0582813 32.6479688,28.0582813 Z" id="Shape"></path>
                            </g>
                        </g>
                        <g id="rc" transform="translate(0.000000, 101.000000)">
                            <path d="M0.5,36.5 L124.5,36.5" id="Line-4" stroke="#979797" stroke-linecap="square"></path>
                            <text id="Rock-Concert" font-family="Helvetica" font-size="18" font-weight="normal" fill="#383838">
                                <tspan x="186" y="33">Rock Concert</tspan>
                            </text>
                            <g id="concert" transform="translate(134.000000, 0.000000)" fill="#383838" fill-rule="nonzero">
                                <path d="M34.6485039,33.369418 L34.2442344,33.369418 C33.9397891,33.369418 33.6930117,33.6161953 33.6930117,33.9206406 C33.6930117,34.2251602 33.9398633,34.4718633 34.2442344,34.4718633 L34.6485039,34.4718633 C35.6617383,34.4718633 36.4860117,33.6475156 36.4860117,32.6343555 C36.4860117,31.6211953 35.6616641,30.7968477 34.6485039,30.7968477 L32.7742578,30.7968477 C32.3486875,30.7968477 32.0025313,30.4506914 32.0025313,30.0251211 C32.0025313,29.5995508 32.3486875,29.2533945 32.7742578,29.2533945 L33.8767773,29.2533945 C35.2344609,29.2533945 36.3390586,28.1487969 36.3390586,26.7911133 C36.3390586,25.4334297 35.2344609,24.328832 33.8767773,24.328832 L30.4531406,24.328832 C30.4046016,23.8834453 30.0542148,23.5312773 29.6000703,23.4906055 L27.9966484,23.3469922 L27.9966484,23.2854648 C27.9966484,22.9908906 27.7650117,22.7483438 27.4708086,22.7347617 L25.7548711,22.6555703 L25.7548711,20.2494727 C25.7548711,19.9449531 25.5080195,19.69825 25.2036484,19.69825 C24.8992031,19.69825 24.6524258,19.9450273 24.6524258,20.2494727 L24.6524258,22.6047305 L21.9329023,22.4793008 L21.9329023,15.0309297 C21.9329023,14.2811719 22.5429063,13.671168 23.2926641,13.671168 C23.4638867,13.671168 23.6277617,13.7030078 23.7787969,13.7609727 C23.78325,13.7628281 23.7877773,13.7646094 23.7923047,13.7662422 C24.295582,13.9658164 24.6524258,14.4574414 24.6524258,15.0309297 L24.6524258,17.5295781 C24.6524258,17.8340977 24.8992773,18.0808008 25.2036484,18.0808008 C25.5080938,18.0808008 25.7548711,17.8340234 25.7548711,17.5295781 L25.7548711,15.0309297 C25.7548711,14.1940391 25.3351641,13.4534102 24.69525,13.0082461 L30.1176719,0.774621094 C30.1932266,0.604140625 30.1774922,0.406941406 30.0757383,0.250636719 C29.9739844,0.0943320313 29.8002383,0 29.6137266,0 L26.7471758,0 C26.5685313,0 26.4009453,0.0866875 26.2974844,0.232378906 L17.5589688,12.5555859 L8.82164063,0.232378906 C8.71825391,0.0866875 8.55059375,0 8.37194922,0 L5.50539844,0 C5.31888672,0 5.14499219,0.0943320312 5.0433125,0.250636719 C4.94155859,0.406941406 4.92582422,0.604140625 5.00137891,0.774621094 L10.4238008,13.0082461 C9.7838125,13.4533359 9.36417969,14.1941133 9.36417969,15.0309297 L9.36417969,21.9735 L7.61016797,21.8833242 C6.85425,21.1850742 5.87300391,20.8007695 4.84388672,20.8007695 C2.59453906,20.8007695 0.764601563,22.630707 0.764601563,24.8800547 C0.764601563,27.1294023 2.59453906,28.9593398 4.84388672,28.9593398 C5.19405078,28.9593398 5.53864844,28.9148086 5.87077734,28.8285664 L0.134261719,36.7562422 C0.0129140625,36.9239766 -0.0043046875,37.145668 0.0898789063,37.3301016 C0.1840625,37.5145352 0.373691406,37.6306133 0.580761719,37.6306133 L13.1074023,37.6324688 C13.1074023,37.6324688 13.1074023,37.6324688 13.1074766,37.6324688 C13.3233789,37.6324688 13.5193906,37.5065195 13.6089727,37.3100625 L13.7285391,37.0481445 C14.8723984,37.6555508 16.1765703,38 17.5595625,38 C18.9425547,38 20.2465781,37.6555508 21.3905859,37.0481445 L21.5101523,37.3101367 C21.5998086,37.5065195 21.7958203,37.632543 22.0117227,37.632543 L34.5383633,37.6306875 C34.7455078,37.6306875 34.9350625,37.5145352 35.0292461,37.3301758 C35.1234297,37.145668 35.1062852,36.9240508 34.9848633,36.7563164 L27.9374961,27.0172578 C27.9753477,26.9424453 27.9965742,26.8579844 27.9965742,26.7687734 L27.9965742,26.4132656 L29.5999961,26.2696523 C30.0539922,26.2289805 30.4044531,25.8768125 30.4530664,25.4314258 L33.8767773,25.4314258 C34.6265352,25.4314258 35.2365391,26.0414297 35.2365391,26.7911875 C35.2365391,27.5409453 34.6265352,28.1509492 33.8767773,28.1509492 L32.7742578,28.1509492 C31.7407617,28.1509492 30.9000117,28.9916992 30.9000117,30.0251953 C30.9000117,31.0586914 31.7407617,31.8994414 32.7742578,31.8994414 L34.6485039,31.8994414 C35.0538125,31.8994414 35.3834922,32.2291953 35.3834922,32.6344297 C35.3834922,33.0396641 35.0538125,33.369418 34.6485039,33.369418 Z M26.8942031,23.8118984 L26.8942031,26.2422656 L21.9329023,26.471082 L21.9329023,23.5830078 L26.8942031,23.8118984 Z M27.0320273,1.10251953 L28.7663711,1.10251953 L23.6712539,12.5977422 C23.5477539,12.5785938 23.4213594,12.5686484 23.2925898,12.5686484 C21.9349063,12.5686484 20.8303086,13.6732461 20.8303086,15.0309297 L20.8303086,17.169543 L18.2346563,13.5086289 L27.0320273,1.10251953 Z M20.8303086,19.0757031 L20.8303086,19.8514375 C20.4404375,19.5921914 19.9728594,19.4410078 19.4705469,19.4410078 C18.7001562,19.4410078 18.011332,19.7965898 17.5594883,20.3522656 C17.1076445,19.7965898 16.4188203,19.4410078 15.6484297,19.4410078 C15.1461172,19.4410078 14.6785391,19.5921914 14.288668,19.8514375 L14.288668,19.0730312 L17.5587461,14.4615977 L20.8303086,19.0757031 Z M18.1107852,23.7130391 L18.1107852,21.9032891 C18.1107852,21.1535312 18.7207891,20.5435273 19.4705469,20.5435273 C20.2203047,20.5435273 20.8303086,21.1535312 20.8303086,21.9032891 L20.8303086,26.2398164 C20.8303086,26.9895742 20.2203047,27.5995781 19.4705469,27.5995781 C19.2623633,27.5995781 19.06175,27.5533398 18.8801367,27.4656875 C19.2692656,27.0448672 19.5072852,26.4825117 19.5072852,25.8656055 C19.5073594,24.9105586 18.9324609,24.0829453 18.1107852,23.7130391 Z M17.0082656,21.9032891 L17.0082656,23.5055977 L14.2887422,23.4830352 L14.2887422,21.9032891 C14.2887422,21.1535312 14.8987461,20.5435273 15.6485039,20.5435273 C16.3982617,20.5435273 17.0082656,21.1535312 17.0082656,21.9032891 Z M6.35267969,1.10251953 L8.08702344,1.10251953 L16.883207,13.5086289 L14.2887422,17.1672422 L14.2887422,15.0310039 C14.2887422,13.6733203 13.1841445,12.5687227 11.8264609,12.5687227 C11.6976914,12.5687227 11.5712969,12.578668 11.4477969,12.5978164 L6.35267969,1.10251953 Z M10.4666992,22.0299805 L10.4666992,15.0309297 C10.4666992,14.4576641 10.8232461,13.9662617 11.3261523,13.7664648 C11.3311992,13.7645352 11.3363203,13.7626055 11.3413672,13.7605273 C11.4921055,13.7027852 11.6556836,13.6710937 11.8264609,13.6710937 C12.5762187,13.6710937 13.1862227,14.2810977 13.1862227,15.0308555 L13.1862227,22.1698086 C13.1854062,22.1819805 13.1850352,22.1758203 13.1850352,22.1697344 L10.4666992,22.0299805 Z M7.82065234,22.9981641 L13.1862227,23.2739609 L13.1862227,23.4739805 L12.5460117,23.4687109 C12.536957,23.4686367 12.5280508,23.4686367 12.5191445,23.4686367 C11.6813633,23.4686367 10.8933828,23.7929727 10.2977031,24.3836797 C9.71664453,24.9599141 9.38770703,25.72125 9.36544141,26.535875 L7.82065234,26.6152891 L7.82065234,22.9981641 Z M4.84388672,27.8568945 C3.20246484,27.8568945 1.86712109,26.5215508 1.86712109,24.8801289 C1.86712109,23.238707 3.20246484,21.9033633 4.84388672,21.9033633 C5.52410156,21.9033633 6.17589063,22.1335898 6.70262109,22.5558945 L6.70262109,27.2043633 C6.17589063,27.626668 5.52410156,27.8568945 4.84388672,27.8568945 Z M12.753082,36.529875 L1.66005078,36.5282422 L8.04278906,27.7076406 L9.36417969,27.6397305 L9.36417969,29.8046172 C9.36417969,32.5433633 10.7145156,34.972543 12.7843281,36.4614453 L12.753082,36.529875 Z M17.5594883,36.8974805 C13.6485312,36.8974805 10.4666992,33.7156484 10.4666992,29.8046172 L10.4666992,26.6241211 C10.4666992,26.0724531 10.6824531,25.5547031 11.0741055,25.1662422 C11.4616016,24.7819375 11.9743047,24.5708594 12.5194414,24.5708594 C12.5252305,24.5708594 12.5310937,24.5708594 12.536957,24.5709336 L17.1579648,24.6092305 C17.8455273,24.6143516 18.4048398,25.1778945 18.4048398,25.865457 C18.4048398,26.5582148 17.8412969,27.1217578 17.1486133,27.1217578 L13.6288633,27.1217578 C13.601625,27.1213867 13.5846289,27.1217578 13.5787656,27.1219063 C13.2766953,27.1282891 13.0360039,27.3766992 13.0392695,27.678918 C13.0424609,27.9809883 13.2883477,28.2242773 13.5904922,28.2242773 L13.6181758,28.2242773 C13.7782656,28.2263555 14.9638359,28.2688086 15.7482539,29.0424648 C16.2428477,29.5303047 16.493707,30.2318945 16.493707,31.1275664 L16.493707,32.1566094 C16.493707,32.4611289 16.7405586,32.707832 17.0449297,32.707832 C17.3493008,32.707832 17.5961523,32.4610547 17.5961523,32.1566094 L17.5961523,31.1275664 C17.5961523,29.9206211 17.2318867,28.9520664 16.5134492,28.2487695 C16.5050625,28.2406055 16.4966016,28.2323672 16.4881406,28.2242773 L17.1483906,28.2242773 C17.3999922,28.2242773 17.6424648,28.1846445 17.8700195,28.1113906 C18.3154062,28.4937656 18.8759062,28.7020234 19.4703242,28.7020234 C20.3283672,28.7020234 21.0853242,28.2608672 21.5262578,27.593418 L24.6522031,27.4492852 L24.6522031,29.8046172 C24.6523516,33.7156484 21.4704453,36.8974805 17.5594883,36.8974805 Z M33.4590742,36.5282422 L22.366043,36.5299492 L22.3347969,36.4615195 C24.4046836,34.972543 25.7549453,32.5433633 25.7549453,29.8046914 L25.7549453,27.3985937 L26.8171641,27.3495352 L33.4590742,36.5282422 Z M29.3564844,25.1845 L27.9967227,25.3062187 L27.9967227,24.4538906 L29.3564844,24.5756094 L29.3564844,25.1845 Z" id="Shape"></path>
                            </g>
                        </g>
                        <g id="at">
                            <path d="M0.5,25.5 L124.5,25.5" id="Line-4" stroke="#979797" stroke-linecap="square"></path>
                            <text id="Airplane-Takeoff" font-family="Helvetica" font-size="18" font-weight="normal" fill="#383838">
                                <tspan x="186" y="22">Airplane Takeoff</tspan>
                            </text>
                            <g id="departure" transform="translate(134.000000, 0.000000)" fill="#383838" fill-rule="nonzero">
                                <path d="M39.6494347,2.70292398 L39.4230019,2.21746589 C38.9965692,1.30300195 38.2550487,0.635477583 37.2788304,0.287329435 C35.6506823,-0.293333333 33.4461598,0.0479532164 30.9035478,1.27407407 C30.8905263,1.28038986 30.8777388,1.28693957 30.8650292,1.29395712 L21.059883,6.69957115 L11.5690448,1.58120858 C11.3478363,1.46191033 11.0831189,1.45419103 10.8554386,1.56046784 L6.64810916,3.52233918 C6.39563353,3.64007797 6.22315789,3.88132554 6.19345029,4.1582846 C6.16374269,4.43524366 6.28116959,4.70760234 6.50292398,4.87617934 L14.0124756,10.5848733 L7.57005848,14.1366082 L4.21473684,12.3270955 C3.99352827,12.2077973 3.72881092,12.200078 3.5011306,12.3063548 L0.631345029,13.6446004 C0.378869396,13.7623392 0.206393762,14.0035867 0.17668616,14.2805458 C0.146978558,14.5575049 0.264405458,14.8299415 0.486159844,14.9984405 L6.59376218,19.6413255 C7.17060429,20.0798441 7.86089669,20.3047953 8.55734893,20.3047953 C9.02323587,20.3047953 9.4920078,20.2040546 9.93122807,19.9992203 L13.0669786,18.5369981 L38.0287719,6.60155945 C38.7778558,6.25224172 39.3608577,5.69341131 39.6705653,5.02791423 C40.0130994,4.29208577 40.0055361,3.46635478 39.6494347,2.70292398 Z M8.51423002,4.40717349 L11.165614,3.17076023 L22.4484211,9.2554386 L20.1925926,10.3073684 L17.4252632,8.27259259 C17.071423,8.01247563 16.5737232,8.08834308 16.3134503,8.44226121 C16.0533333,8.79610136 16.1292008,9.29380117 16.4831189,9.55407407 L18.5496296,11.0735283 L17.7649903,11.4394542 L8.51423002,4.40717349 Z M37.3497856,5.1634308 L12.3879922,17.0987914 L9.25925926,18.5577388 C8.70019493,18.8184795 8.04764133,18.748538 7.55641326,18.3751267 L2.49746589,14.5294347 L3.81146199,13.9166472 L7.19688109,15.7424561 C7.43477583,15.8707992 7.72148148,15.8693957 7.95836257,15.7389474 L15.3975049,11.6377388 L17.1845614,12.9963353 C17.3254581,13.1034698 17.4950487,13.1585185 17.6659649,13.1585185 C17.780117,13.1585185 17.8947368,13.1339571 18.0019493,13.0839766 L24.5556335,10.0279922 C24.8281481,9.90089669 25.00577,9.63095517 25.0145029,9.33037037 C25.0232359,9.02986355 24.8617544,8.75001949 24.597037,8.60725146 L22.7254581,7.59789474 L31.6138791,2.69769981 C33.6339181,1.7268616 35.3867446,1.39009747 36.5833138,1.73606238 L33.6499025,3.20280702 C33.257076,3.39922027 33.0978558,3.87695906 33.294269,4.26978558 C33.4336062,4.54846004 33.7144639,4.70955166 34.0061598,4.70955166 C34.125614,4.70955166 34.2470175,4.68249513 34.3611696,4.6254191 L37.9505653,2.83072125 C37.9606238,2.85068226 37.9720858,2.86939571 37.9816764,2.88982456 L38.2081092,3.37528265 C38.6003899,4.21668616 37.9946979,4.86261209 37.3497856,5.1634308 Z" id="Shape"></path>
                                <path d="M38.8540531,25 L2.76449791,25 C2.17460662,25 1.69645224,25.3357682 1.69645224,25.75 C1.69645224,26.1642318 2.17460662,26.5 2.76449791,26.5 L38.8540531,26.5 C39.4439444,26.5 39.9220988,26.1642318 39.9220988,25.75 C39.9220988,25.3358417 39.4439444,25 38.8540531,25 Z" id="Shape"></path>
                                <path d="M6.79937622,7.18510721 C6.63391813,6.77832359 6.17005848,6.58276803 5.76304094,6.74807018 L0.49582846,8.89076023 C0.0889668616,9.05621832 -0.106666667,9.52023392 0.058791423,9.92709552 C0.184483431,10.2357895 0.481793372,10.422846 0.795789474,10.422846 C0.895516569,10.422846 0.997037037,10.4038986 1.09520468,10.3639766 L6.36233918,8.22136452 C6.76920078,8.05598441 6.96491228,7.59196881 6.79937622,7.18510721 Z" id="Shape"></path>
                            </g>
                        </g>
                    </g>
                    <g id="values" transform="translate(0.000000, 11.000000)" fill="#8C8F93" font-family="Helvetica" font-size="18" font-weight="normal">
                        <text id="0-db">
                            <tspan x="20.9667969" y="523">0 db</tspan>
                        </text>
                        <text id="20-db">
                            <tspan x="10.9560547" y="456">20 db</tspan>
                        </text>
                        <text id="40-db">
                            <tspan x="10.9560547" y="381">40 db</tspan>
                        </text>
                        <text id="60-db">
                            <tspan x="10.9560547" y="306">60 db</tspan>
                        </text>
                        <text id="80-db">
                            <tspan x="10.9560547" y="230">80 db</tspan>
                        </text>
                        <text id="100-db">
                            <tspan x="0.9453125" y="155">100 db</tspan>
                        </text>
                        <text id="120-db">
                            <tspan x="0.9453125" y="80">120 db</tspan>
                        </text>
                        <text id="140-db">
                            <tspan x="0.9453125" y="18">140 db</tspan>
                        </text>
                    </g>
                    <g id="guage" transform="translate(63.000000, 17.000000)">
                        <rect id="Rectangle-7" fill="url(#linearGradient-1)" transform="translate(32.500000, 259.000000) rotate(180.000000) translate(-32.500000, -259.000000) " x="0" y="0" width="65" height="518" rx="8"></rect>
                        <path d="M0,444 L65,444" id="Line-3" stroke="#FFFFFF" stroke-linecap="square"></path>
                        <path d="M0,369 L65,369" id="Line-3" stroke="#FFFFFF" stroke-linecap="square"></path>
                        <path d="M0,294 L65,294" id="Line-3" stroke="#FFFFFF" stroke-linecap="square"></path>
                        <path d="M0,219 L65,219" id="Line-3" stroke="#FFFFFF" stroke-linecap="square"></path>
                        <path d="M0,144 L65,144" id="Line-3" stroke="#FFFFFF" stroke-linecap="square"></path>
                        <path d="M0,69 L65,69" id="Line-3" stroke="#FFFFFF" stroke-linecap="square"></path>
                    </g>
                </g>
            </g>
        </g>
    </g>
</svg>