<?xml version="1.0" encoding="UTF-8"?>
<svg width="40px" height="29px" viewBox="0 0 40 29" version="1.1" xmlns="http://www.w3.org/2000/svg" xmlns:xlink="http://www.w3.org/1999/xlink">
    <!-- Generator: Sketch 48.2 (47327) - http://www.bohemiancoding.com/sketch -->
    <title>car</title>
    <desc>Created with Sketch.</desc>
    <defs></defs>
    <g id="Noise" stroke="none" stroke-width="1" fill="none" fill-rule="evenodd" transform="translate(-92.000000, -239.000000)">
        <g id="left-pane" transform="translate(0.000000, 83.000000)" fill="#383838" fill-rule="nonzero">
            <g id="checks" transform="translate(30.000000, 131.000000)">
                <g id="car" transform="translate(62.000000, 25.000000)">
                    <path d="M7.99219512,24.3836098 C7.62458537,24.3836098 7.3262439,24.6819512 7.3262439,25.049561 L7.3262439,26.7812683 L1.33209756,26.7812683 L1.33209756,22.1192195 C1.33209756,21.7516098 1.0337561,21.4532683 0.666146341,21.4532683 C0.298536585,21.4532683 0.000195121951,21.7516098 0.000195121951,22.1192195 L0.000195121951,27.4474146 C0.000195121951,27.8150244 0.298536585,28.1133659 0.666146341,28.1133659 L7.99219512,28.1133659 C8.35980488,28.1133659 8.65814634,27.8150244 8.65814634,27.4474146 L8.65814634,25.0497561 C8.65814634,24.6819512 8.35980488,24.3836098 7.99219512,24.3836098 Z" id="Shape"></path>
                    <path d="M39.2950244,21.4530732 C38.9274146,21.4530732 38.6290732,21.7514146 38.6290732,22.1190244 L38.6290732,26.7810732 L32.6349268,26.7810732 L32.6349268,25.1160976 C32.6349268,24.7484878 32.3365854,24.4501463 31.9689756,24.4501463 C31.6013659,24.4501463 31.3030244,24.7484878 31.3030244,25.1160976 L31.3030244,27.4472195 C31.3030244,27.8148293 31.6013659,28.1131707 31.9689756,28.1131707 L39.2952195,28.1131707 C39.6628293,28.1131707 39.9611707,27.8148293 39.9611707,27.4472195 L39.9611707,22.1190244 C39.9609756,21.7516098 39.6626341,21.4530732 39.2950244,21.4530732 Z" id="Shape"></path>
                    <path d="M39.2950244,15.4589268 C38.9274146,15.4589268 38.6290732,15.7572683 38.6290732,16.124878 L38.6290732,21.768 C38.6290732,23.0634146 37.5754146,24.1170732 36.28,24.1170732 L25.5752195,24.1170732 C25.2076098,24.1170732 24.9092683,24.4154146 24.9092683,24.7830244 C24.9092683,25.1506341 25.2076098,25.4489756 25.5752195,25.4489756 L36.28,25.4489756 C38.3096585,25.4489756 39.9611707,23.7976585 39.9611707,21.768 L39.9611707,16.124878 C39.9609756,15.7574634 39.6626341,15.4589268 39.2950244,15.4589268 Z" id="Shape"></path>
                    <path d="M13.7869268,24.1172683 L3.68117073,24.1172683 C2.38614634,24.1172683 1.33209756,23.0636098 1.33209756,21.7681951 L1.33209756,16.324878 C1.33209756,15.9572683 1.0337561,15.6589268 0.666146341,15.6589268 C0.298536585,15.6589268 0.000195121951,15.9572683 0.000195121951,16.324878 L0.000195121951,21.7681951 C0.000195121951,23.7978537 1.6515122,25.4491707 3.68136585,25.4491707 L13.787122,25.4491707 C14.1547317,25.4491707 14.4530732,25.1508293 14.4530732,24.7832195 C14.452878,24.4156098 14.1545366,24.1172683 13.7869268,24.1172683 Z" id="Shape"></path>
                    <path d="M35.7315122,8.4515122 L35.403122,6.1537561 C34.913561,2.72585366 31.932878,0.140682927 28.4702439,0.140682927 L11.4905366,0.140682927 C8.02790244,0.140682927 5.04741463,2.72585366 4.55765854,6.15356098 L4.232,8.43258537 C4.17970732,8.79687805 4.43278049,9.1342439 4.79707317,9.18614634 C5.15941463,9.23843902 5.49873171,8.9857561 5.55063415,8.62126829 L5.87629268,6.3422439 C6.27297561,3.56604878 8.68663415,1.47258537 11.4905366,1.47258537 L28.4702439,1.47258537 C31.2741463,1.47258537 33.6878049,3.56585366 34.0844878,6.3422439 L34.412878,8.64 C34.4604878,8.97209756 34.745561,9.21170732 35.0716098,9.21170732 C35.1032195,9.21170732 35.1348293,9.20936585 35.166439,9.20507317 C35.5303415,9.15278049 35.7834146,8.81580488 35.7315122,8.4515122 Z" id="Shape"></path>
                    <path d="M37.0907317,10.2167805 C36.4823415,9.61873171 36.0150244,8.90146341 35.7020488,8.08409756 C35.6232195,7.87804878 35.4472195,7.7244878 35.2325854,7.6737561 C35.0181463,7.62439024 34.792,7.68273171 34.6294634,7.832 C33.4842927,8.88526829 32.0027317,9.46517073 30.4581463,9.46517073 L9.50380488,9.46517073 C7.95921951,9.46517073 6.47785366,8.88546341 5.33229268,7.832 C5.1697561,7.68253659 4.94439024,7.62419512 4.72897561,7.6737561 C4.51414634,7.72429268 4.33834146,7.87785366 4.2595122,8.08409756 C3.94673171,8.90126829 3.48,9.61853659 2.87121951,10.2167805 C0.973073171,12.0809756 -0.0458536585,14.5734634 0.00195121951,17.2357073 C0.0501463415,19.9283902 2.31902439,22.1192195 5.05970732,22.1192195 L34.9016585,22.1192195 C37.6423415,22.1192195 39.9110244,19.9283902 39.9598049,17.2357073 C40.0076098,14.5734634 38.9886829,12.0813659 37.0907317,10.2167805 Z M34.9012683,20.787122 L5.05931707,20.787122 C3.04019512,20.787122 1.36858537,19.1834146 1.33365854,17.2113171 C1.29268293,14.9192195 2.1697561,12.7722927 3.80429268,11.1668293 C4.33717073,10.6429268 4.78126829,10.0456585 5.13073171,9.38360976 C6.40253659,10.3000976 7.92526829,10.796878 9.50321951,10.7972683 L30.4577561,10.7972683 C32.0355122,10.7972683 33.5586341,10.3004878 34.830439,9.384 C35.1797073,10.0460488 35.6236098,10.6435122 36.156878,11.1672195 C37.7910244,12.7726829 38.6684878,14.9192195 38.6275122,17.2117073 C38.592,19.1834146 36.9201951,20.787122 34.9012683,20.787122 Z" id="Shape"></path>
                    <path d="M27.3067317,5.46868293 C24.736,5.46868293 22.6446829,7.56 22.6446829,10.1307317 C22.6446829,10.4983415 22.9430244,10.7966829 23.3106341,10.7966829 C23.6782439,10.7966829 23.9765854,10.4983415 23.9765854,10.1307317 C23.9765854,8.29443902 25.470439,6.80058537 27.3067317,6.80058537 C29.1430244,6.80058537 30.636878,8.29443902 30.636878,10.1307317 C30.636878,10.4983415 30.9352195,10.7966829 31.3028293,10.7966829 C31.670439,10.7966829 31.9687805,10.4983415 31.9687805,10.1307317 C31.9687805,7.56 29.8774634,5.46868293 27.3067317,5.46868293 Z" id="Shape"></path>
                    <path d="M7.99219512,15.4589268 L2.664,15.4589268 C2.29639024,15.4589268 1.99804878,15.7572683 1.99804878,16.124878 L1.99804878,17.4569756 C1.99804878,18.5588293 2.8942439,19.4550244 3.99609756,19.4550244 L7.99219512,19.4550244 C9.09404878,19.4550244 9.9902439,18.5588293 9.9902439,17.4569756 C9.9902439,16.355122 9.09404878,15.4589268 7.99219512,15.4589268 Z M7.99219512,18.123122 L3.99609756,18.123122 C3.62887805,18.123122 3.33014634,17.8243902 3.33014634,17.4571707 L3.33014634,16.7912195 L7.99219512,16.7912195 C8.35941463,16.7912195 8.65814634,17.0899512 8.65814634,17.4571707 C8.65814634,17.8243902 8.35941463,18.123122 7.99219512,18.123122 Z" id="Shape"></path>
                    <path d="M37.2969756,15.4589268 L31.9687805,15.4589268 C30.8669268,15.4589268 29.9707317,16.355122 29.9707317,17.4569756 C29.9707317,18.5588293 30.8669268,19.4550244 31.9687805,19.4550244 L35.964878,19.4550244 C37.0667317,19.4550244 37.9629268,18.5588293 37.9629268,17.4569756 L37.9629268,16.124878 C37.9629268,15.7574634 37.6645854,15.4589268 37.2969756,15.4589268 Z M36.6308293,17.4569756 C36.6308293,17.8241951 36.3320976,18.1229268 35.964878,18.1229268 L31.9687805,18.1229268 C31.601561,18.1229268 31.3028293,17.8241951 31.3028293,17.4569756 C31.3028293,17.0897561 31.601561,16.7910244 31.9687805,16.7910244 L36.6308293,16.7910244 L36.6308293,17.4569756 Z" id="Shape"></path>
                    <path d="M25.3086829,20.787122 L13.9863415,20.787122 C13.6187317,20.787122 13.3203902,21.0854634 13.3203902,21.4530732 L13.3203902,25.4491707 C13.3203902,25.8167805 13.6187317,26.115122 13.9863415,26.115122 L25.3086829,26.115122 C25.6762927,26.115122 25.9746341,25.8167805 25.9746341,25.4491707 L25.9746341,21.4530732 C25.9746341,21.0854634 25.6762927,20.787122 25.3086829,20.787122 Z M24.6425366,24.7832195 L14.6522927,24.7832195 L14.6522927,22.1192195 L24.6425366,22.1192195 L24.6425366,24.7832195 Z" id="Shape"></path>
                    <path d="M26.3077073,14.7929756 L13.6532683,14.7929756 C12.3678049,14.7929756 11.3221463,15.8390244 11.3221463,17.1240976 C11.3221463,18.4091707 12.3678049,19.4552195 13.6532683,19.4552195 L26.3075122,19.4552195 C27.5929756,19.4552195 28.6386341,18.4091707 28.6386341,17.1240976 C28.6386341,15.8390244 27.5929756,14.7929756 26.3077073,14.7929756 Z M26.3077073,18.123122 L13.6532683,18.123122 C13.102439,18.123122 12.6542439,17.6749268 12.6542439,17.1240976 C12.6542439,16.5732683 13.102439,16.1250732 13.6532683,16.1250732 L26.3075122,16.1250732 C26.8583415,16.1250732 27.3065366,16.5732683 27.3065366,17.1240976 C27.3067317,17.6749268 26.8585366,18.123122 26.3077073,18.123122 Z" id="Shape"></path>
                    <path d="M15.9843902,14.7929756 C15.6167805,14.7929756 15.318439,15.0913171 15.318439,15.4589268 L15.318439,18.7890732 C15.318439,19.1566829 15.6167805,19.4550244 15.9843902,19.4550244 C16.352,19.4550244 16.6503415,19.1566829 16.6503415,18.7890732 L16.6503415,15.4589268 C16.6503415,15.0913171 16.352,14.7929756 15.9843902,14.7929756 Z" id="Shape"></path>
                    <path d="M19.9804878,14.7929756 C19.612878,14.7929756 19.3145366,15.0913171 19.3145366,15.4589268 L19.3145366,18.7890732 C19.3145366,19.1566829 19.612878,19.4550244 19.9804878,19.4550244 C20.3480976,19.4550244 20.646439,19.1566829 20.646439,18.7890732 L20.646439,15.4589268 C20.646439,15.0913171 20.3480976,14.7929756 19.9804878,14.7929756 Z" id="Shape"></path>
                    <path d="M23.9765854,14.7929756 C23.6089756,14.7929756 23.3106341,15.0913171 23.3106341,15.4589268 L23.3106341,18.7890732 C23.3106341,19.1566829 23.6089756,19.4550244 23.9765854,19.4550244 C24.3441951,19.4550244 24.6425366,19.1566829 24.6425366,18.7890732 L24.6425366,15.4589268 C24.6425366,15.0913171 24.3441951,14.7929756 23.9765854,14.7929756 Z" id="Shape"></path>
                </g>
            </g>
        </g>
    </g>
</svg>