<?xml version="1.0" encoding="UTF-8"?>
<svg width="40px" height="40px" viewBox="0 0 40 40" version="1.1" xmlns="http://www.w3.org/2000/svg" xmlns:xlink="http://www.w3.org/1999/xlink">
    <!-- Generator: Sketch 47.1 (45422) - http://www.bohemiancoding.com/sketch -->
    <title>Connectivity</title>
    <desc>Created with Sketch.</desc>
    <defs></defs>
    <g id="Export" stroke="none" stroke-width="1" fill="none" fill-rule="evenodd">
        <g id="Connectivity" fill-rule="nonzero" fill="#005584">
            <g id="network" transform="translate(4.000000, 4.000000)">
                <path d="M32.4997101,8.2973913 C32.0782609,7.51014493 31.3755072,6.93434783 30.5208696,6.6757971 C29.6662319,6.41710145 28.762029,6.50695652 27.9749275,6.9284058 C27.1878261,7.35 26.6118841,8.05275362 26.3533333,8.9073913 C26.1810145,9.47666667 26.1669565,10.0673913 26.2988406,10.6313043 L22.6894203,12.564058 C21.5915942,11.0227536 19.8802899,9.94898551 17.914058,9.7015942 L17.914058,6.62144928 C19.3369565,6.23768116 20.3872464,4.93652174 20.3872464,3.39405797 C20.3872464,1.55086957 18.8876812,0.0513043478 17.0444928,0.0513043478 C15.2013043,0.0513043478 13.7015942,1.55086957 13.7015942,3.3942029 C13.7015942,4.93666667 14.752029,6.23782609 16.1747826,6.6215942 L16.1747826,9.70144928 C13.6634783,10.0175362 11.5668116,11.6817391 10.6352174,13.9455072 L6.68492754,12.8811594 C6.6857971,12.3018841 6.53826087,11.7297101 6.24144928,11.2142029 C5.79608696,10.4402899 5.07594203,9.88608696 4.21391304,9.65376812 C2.43362319,9.17405797 0.596086957,10.2321739 0.116521739,12.0118841 C-0.115797101,12.874058 0.0015942029,13.7750725 0.446956522,14.5488406 C0.892318841,15.3226087 1.61246377,15.8769565 2.47449275,16.1092754 C2.76391304,16.1872464 3.05753623,16.2257971 3.34956522,16.2257971 C3.92710145,16.2257971 4.4973913,16.0746377 5.0115942,15.7788406 C5.52710145,15.4821739 5.94217391,15.0617391 6.23246377,14.5604348 L10.1828986,15.6249275 C10.1402899,15.9352174 10.1163768,16.2513043 10.1163768,16.5731884 C10.1163768,18.1704348 10.6611594,19.642029 11.5727536,20.8152174 L8.67637681,23.7115942 C7.39898551,22.9776812 5.73811594,23.1523188 4.64768116,24.2424638 C3.34434783,25.5457971 3.34434783,27.6665217 4.64768116,28.97 C5.29942029,29.6217391 6.15536232,29.9475362 7.01144928,29.9475362 C7.8673913,29.9475362 8.72347826,29.6217391 9.37521739,28.97 C10.4655072,27.8795652 10.6401449,26.2186957 9.90608696,24.9414493 L12.8024638,22.0450725 C13.9756522,22.9566667 15.4471014,23.5014493 17.0444928,23.5014493 C18.6418841,23.5014493 20.1133333,22.9566667 21.2865217,22.0450725 L24.1828986,24.9414493 C23.4489855,26.2188406 23.6234783,27.8797101 24.7137681,28.97 C25.3655072,29.6217391 26.2214493,29.9475362 27.0775362,29.9475362 C27.9336232,29.9475362 28.7895652,29.6215942 29.4413043,28.97 C30.7446377,27.6666667 30.7446377,25.545942 29.4413043,24.2424638 C28.3510145,23.1521739 26.69,22.9776812 25.4127536,23.7115942 L22.5163768,20.8152174 C23.427971,19.642029 23.9727536,18.1705797 23.9727536,16.5731884 C23.9727536,15.7005797 23.8089855,14.8657971 23.5131884,14.095942 L27.12,12.1646377 C27.5162319,12.5871014 28.0156522,12.9027536 28.5850725,13.0750725 C28.9050725,13.1718841 29.2321739,13.2198551 29.5573913,13.2198551 C30.1005797,13.2198551 30.6386957,13.085942 31.1310145,12.8223188 C31.9182609,12.4008696 32.494058,11.6981159 32.7526087,10.8434783 C33.0111594,9.98884058 32.9211594,9.08449275 32.4997101,8.2973913 L32.4997101,8.2973913 Z M30.3097101,11.2889855 C29.9321739,11.4913043 29.4984058,11.5343478 29.0884058,11.4101449 C28.6784058,11.2862319 28.3413043,11.0098551 28.1391304,10.6321739 C27.9368116,10.2546377 27.893913,9.82072464 28.017971,9.41072464 C28.1418841,9.00072464 28.4182609,8.66362319 28.795942,8.46144928 C29.0321739,8.33492754 29.2902899,8.27072464 29.5508696,8.27072464 C29.7068116,8.27072464 29.8637681,8.29376812 30.0172464,8.34014493 C30.4272464,8.46405797 30.7643478,8.74043478 30.9665217,9.11811594 C31.1688406,9.49565217 31.2117391,9.92942029 31.0876812,10.3394203 C30.9637681,10.7497101 30.6873913,11.0868116 30.3097101,11.2889855 L30.3097101,11.2889855 Z M22.2333333,16.5730435 C22.2333333,19.4342029 19.9055072,21.762029 17.0443478,21.762029 C14.1831884,21.762029 11.8553623,19.4342029 11.8553623,16.5730435 C11.8553623,13.7118841 14.1831884,11.384058 17.0443478,11.384058 C19.9055072,11.384058 22.2333333,13.7118841 22.2333333,16.5730435 Z M15.4407246,3.3942029 C15.4407246,2.50985507 16.1601449,1.79057971 17.0443478,1.79057971 C17.9285507,1.79057971 18.647971,2.51 18.647971,3.3942029 C18.647971,4.2784058 17.9285507,4.99782609 17.0443478,4.99782609 C16.1601449,4.99782609 15.4407246,4.2784058 15.4407246,3.3942029 Z M2.92695652,14.43 C2.51333333,14.3185507 2.16797101,14.0526087 1.95434783,13.6814493 C1.74057971,13.3101449 1.68434783,12.877971 1.7957971,12.4643478 C2.0257971,11.6104348 2.90768116,11.1030435 3.76144928,11.3330435 C4.17507246,11.4444928 4.52043478,11.7102899 4.7342029,12.0815942 C4.94782609,12.4528986 5.00405797,12.8850725 4.8926087,13.2986957 C4.6626087,14.1526087 3.78101449,14.66 2.92695652,14.43 Z M8.14536232,27.74 C7.52028986,28.3652174 6.50275362,28.3652174 5.8773913,27.74 C5.25217391,27.1147826 5.25217391,26.0973913 5.8773913,25.472029 C6.19,25.1594203 6.60072464,25.0031884 7.01144928,25.0031884 C7.42202899,25.0031884 7.83275362,25.1595652 8.14536232,25.472029 C8.77057971,26.0973913 8.77057971,27.1147826 8.14536232,27.74 Z M28.2113043,25.472029 C28.8365217,26.0972464 28.8365217,27.1146377 28.2113043,27.74 C27.5862319,28.3652174 26.5686957,28.3652174 25.9433333,27.74 C25.3181159,27.1147826 25.3181159,26.0973913 25.9433333,25.472029 C26.255942,25.1594203 26.6666667,25.0031884 27.0773913,25.0031884 C27.487971,25.0031884 27.8986957,25.1594203 28.2113043,25.472029 Z" id="Shape"></path>
            </g>
        </g>
    </g>
</svg>