<?xml version="1.0" encoding="UTF-8"?>
<svg width="40px" height="40px" viewBox="0 0 40 40" version="1.1" xmlns="http://www.w3.org/2000/svg" xmlns:xlink="http://www.w3.org/1999/xlink">
    <!-- Generator: Sketch 47.1 (45422) - http://www.bohemiancoding.com/sketch -->
    <title>Eat &amp; Drink</title>
    <desc>Created with Sketch.</desc>
    <defs></defs>
    <g id="Export" stroke="none" stroke-width="1" fill="none" fill-rule="evenodd">
        <g id="Eat-&amp;-Drink" fill-rule="nonzero" fill="#F39C12">
            <g id="restaurant" transform="translate(2.000000, 8.000000)">
                <path d="M17.9885687,0.213952607 C11.2883033,0.213952607 5.8372891,5.66496682 5.8372891,12.3652322 C5.8372891,19.065327 11.2883033,24.5163412 17.9885687,24.5163412 C24.6890047,24.5163412 30.1401896,19.065327 30.1401896,12.3652322 C30.1401896,5.66496682 24.6890047,0.213952607 17.9885687,0.213952607 Z M17.9885687,23.3648531 C11.9233365,23.3648531 6.98894787,18.4304645 6.98894787,12.3654028 C6.98894787,6.30017062 11.9233365,1.36578199 17.9885687,1.36578199 C24.0538009,1.36578199 28.9885308,6.30017062 28.9885308,12.3654028 C28.9885308,18.4304645 24.0538009,23.3648531 17.9885687,23.3648531 Z" id="Shape"></path>
                <path d="M17.9885687,3.52117536 C13.1121896,3.52117536 9.1450237,7.48851185 9.1450237,12.3652322 C9.1450237,17.2421232 13.1121896,21.2098009 17.9885687,21.2098009 C22.8652891,21.2098009 26.8326256,17.2421232 26.8326256,12.3652322 C26.8329668,7.48868246 22.8652891,3.52117536 17.9885687,3.52117536 Z M17.9885687,20.0583128 C13.7472227,20.0583128 10.2966825,16.6072607 10.2966825,12.3654028 C10.2966825,8.12371564 13.7472227,4.67300474 17.9885687,4.67300474 C22.2302559,4.67300474 25.6809668,8.12371564 25.6809668,12.3654028 C25.6813081,16.6072607 22.2304265,20.0583128 17.9885687,20.0583128 Z" id="Shape"></path>
                <path d="M35.2651564,12.6276398 C35.2644739,12.3398104 35.25509,9.47277725 35.1704645,6.64072038 C35.1182559,4.88985782 35.0476209,3.49251185 34.9609479,2.48741232 C34.907545,1.86739336 34.8488531,1.40263507 34.7818009,1.06635071 C34.7234502,0.77357346 34.5867867,0.0878672986 33.9927014,0.0878672986 C33.9493649,0.0878672986 33.9060284,0.0923033175 33.8637156,0.101175355 C33.4960379,0.177270142 33.2455735,0.465099526 32.7337251,1.9683981 C32.4158673,2.90252133 32.0666161,4.12566825 31.7502938,5.41313744 C31.3740853,6.94475829 30.5216872,10.7261232 30.7300095,12.7567962 C30.866673,14.0894787 31.4691185,14.3691185 31.9505972,14.3691185 L31.9785782,14.3687773 C32.2058389,14.3629763 32.3865213,14.3599052 32.5305213,14.3599052 C32.6970427,14.3599052 32.8006066,14.3634882 32.9205498,14.3679242 C32.9365877,14.368436 32.9527962,14.3691185 32.9698578,14.3696303 C32.9295924,15.3150142 32.7700664,16.6251754 32.6148057,17.8995071 C32.3890806,19.7535924 32.1555071,21.6709763 32.2353555,22.8057441 C32.3307299,24.1612891 33.2481327,24.6422559 34.0048152,24.6422559 C34.5379905,24.6422559 35.0825972,24.4149953 35.4613649,24.0345213 C35.8049858,23.6891943 35.9926635,23.2401327 35.9904455,22.7702559 C35.9837915,21.3800758 35.3141232,13.2261611 35.2651564,12.6276398 Z M34.6454787,23.222218 C34.4804929,23.3880569 34.2353175,23.4907678 34.0049858,23.4907678 C33.6291185,23.4907678 33.4201137,23.2331374 33.384455,22.7252133 C33.312455,21.7008341 33.5390332,19.8394123 33.7582749,18.0389005 C33.9606256,16.3781232 34.151545,14.8091374 34.1298768,13.7912417 C34.1232227,13.4779905 33.8672986,13.2276967 33.554218,13.2276967 C33.2588815,13.2276967 32.0741232,13.3409858 32.008436,13.2160948 C31.8272417,12.9190521 31.6199431,11.3925498 32.5238673,7.18566825 C32.9376114,5.2602654 33.4233555,3.53397156 33.8002464,2.40892891 C33.992872,4.56432227 34.1071848,8.77171564 34.1134976,12.6530616 C34.1134976,12.6687583 34.1141801,12.6841137 34.1153744,12.6994692 C34.1225403,12.7863128 34.8321327,21.4077156 34.839128,22.7765687 C34.839981,22.9420664 34.7748057,23.0922085 34.6454787,23.222218 Z" id="Shape"></path>
                <path d="M6.26553555,6.34845498 C6.26553555,5.98436019 6.25393365,5.45937441 6.23926066,4.79482464 C6.21673934,3.77931754 6.18875829,2.13167773 6.18875829,0.810085308 C6.18875829,0.492056872 5.93095735,0.234255924 5.61292891,0.234255924 C5.29490047,0.234255924 5.03709953,0.492056872 5.03709953,0.810085308 C5.03709953,2.14447393 5.06525118,3.799109 5.08794313,4.82024645 C5.0918673,4.9987109 5.09579147,5.17018009 5.09903318,5.33243602 L4.50665403,5.34113744 L4.50665403,1.00288152 C4.50665403,0.684853081 4.24885308,0.427052133 3.93082464,0.427052133 C3.61279621,0.427052133 3.35499526,0.684853081 3.35499526,1.00288152 L3.35499526,5.35819905 L2.81704265,5.36604739 L2.81704265,1.00288152 C2.81704265,0.684853081 2.55924171,0.427052133 2.24121327,0.427052133 C1.92318483,0.427052133 1.66538389,0.684853081 1.66538389,1.00288152 L1.66538389,5.38293839 L1.15165877,5.3904455 L1.15165877,0.67785782 C1.15165877,0.359829384 0.89385782,0.102028436 0.575829384,0.102028436 C0.257800948,0.102028436 0,0.359829384 0,0.67785782 L0,6.27833175 C0,7.67567773 1.02437915,8.6304455 2.65819905,8.81829384 L2.65819905,12.1171564 C2.49184834,12.1202275 2.40022749,12.1229573 2.3908436,12.123128 C2.11222749,12.1313175 1.87933649,12.337763 1.83821801,12.6134787 C1.56557346,14.4349763 0.983772512,20.1338957 1.03137441,22.4660474 C1.060891,23.9067299 2.01378199,24.5516588 2.94500474,24.5516588 C3.93594313,24.5516588 5.03829384,23.8185213 5.09152607,22.6339336 C5.15243602,21.2739526 4.79363033,15.5113934 4.64041706,13.4442085 C4.61260664,13.0678294 4.59179147,12.7875071 4.58206635,12.6433365 C4.56176303,12.3411754 4.31061611,12.1060664 4.0076019,12.1060664 C3.93952607,12.1060664 3.87383886,12.1060664 3.80985782,12.1064076 L3.80985782,8.8094218 C5.28090995,8.57397156 6.26553555,7.40763981 6.26553555,6.34845498 Z M3.94106161,22.582237 C3.91905213,23.0713934 3.4083981,23.3998294 2.94517536,23.3998294 C2.45926066,23.3998294 2.19565877,23.0688341 2.18286256,22.4423318 C2.14259716,20.4659147 2.6025782,15.4433175 2.90781043,13.2647204 C3.06204739,13.2625024 3.25109005,13.2606256 3.47220853,13.2592607 C3.47835071,13.3423507 3.48500474,13.4327773 3.49217062,13.5290047 C3.6307109,15.399981 3.99890047,21.2910142 3.94106161,22.582237 Z M1.17622749,6.54193365 L5.09988626,6.4842654 C4.99649289,7.02238863 4.3051564,7.70127014 3.26781043,7.70127014 C2.80680569,7.70127014 1.37772512,7.61203791 1.17622749,6.54193365 Z" id="Shape"></path>
            </g>
        </g>
    </g>
</svg>