<?xml version="1.0" encoding="UTF-8"?>
<svg width="40px" height="40px" viewBox="0 0 40 40" version="1.1" xmlns="http://www.w3.org/2000/svg" xmlns:xlink="http://www.w3.org/1999/xlink">
    <!-- Generator: Sketch 47.1 (45422) - http://www.bohemiancoding.com/sketch -->
    <title>Emergency</title>
    <desc>Created with Sketch.</desc>
    <defs></defs>
    <g id="Export" stroke="none" stroke-width="1" fill="none" fill-rule="evenodd">
        <g id="Emergency" fill-rule="nonzero" fill="#E74C3C">
            <g id="emergency" transform="translate(4.000000, 4.000000)">
                <path d="M15.98513,0.278312334 C7.26933765,0.278312334 0.178587447,7.36906254 0.178587447,16.0848549 C0.178587447,24.8004254 7.26933765,31.8911756 15.98513,31.8911756 C24.7011444,31.8911756 31.7921165,24.8004254 31.7921165,16.0848549 C31.7921165,7.36906254 24.7011444,0.278312334 15.98513,0.278312334 Z M15.98513,30.3933048 C8.09539706,30.3933048 1.67668015,23.9745879 1.67668015,16.0850769 C1.67668015,8.19534389 8.09539706,1.77662698 15.98513,1.77662698 C23.874863,1.77662698 30.2940238,8.19534389 30.2940238,16.0850769 C30.2940238,23.9745879 23.874863,30.3933048 15.98513,30.3933048 Z" id="Shape"></path>
                <path d="M26.3546646,11.8132622 L20.5413415,11.8132622 L20.5413415,5.99993902 C20.5413415,5.48472561 20.123628,5.06710366 19.6085061,5.06710366 L12.3916768,5.06710366 C11.8765549,5.06710366 11.4588415,5.48472561 11.4588415,5.99993902 L11.4588415,11.8132622 L5.64542683,11.8132622 C5.13030488,11.8132622 4.71259146,12.2308841 4.71259146,12.7460976 L4.71259146,19.9629268 C4.71259146,20.4781402 5.13030488,20.8957622 5.64542683,20.8957622 L11.45875,20.8957622 L11.45875,26.7091768 C11.45875,27.2243902 11.8764634,27.6420122 12.3915854,27.6420122 L19.6084146,27.6420122 C20.1235366,27.6420122 20.54125,27.2243902 20.54125,26.7091768 L20.54125,20.8958537 L26.3546646,20.8958537 C26.8697866,20.8958537 27.2875,20.4782317 27.2875,19.9630183 L27.2875,12.746189 C27.2875,12.2308841 26.8697866,11.8132622 26.3546646,11.8132622 Z M25.4218293,19.0301829 L19.6085061,19.0301829 C19.0933841,19.0301829 18.6756707,19.4478049 18.6756707,19.9630183 L18.6756707,25.7763415 L13.3245122,25.7763415 L13.3245122,19.9630183 C13.3245122,19.4478049 12.9067988,19.0301829 12.3916768,19.0301829 L6.5782622,19.0301829 L6.5782622,13.6790244 L12.3915854,13.6790244 C12.9067073,13.6790244 13.3244207,13.2614024 13.3244207,12.746189 L13.3244207,6.93277439 L18.6755793,6.93277439 L18.6755793,12.7460976 C18.6755793,13.261311 19.0932927,13.6789329 19.6084146,13.6789329 L25.4218293,13.6789329 L25.4218293,19.0301829 L25.4218293,19.0301829 Z" id="Shape"></path>
            </g>
        </g>
    </g>
</svg>