<?xml version="1.0" encoding="UTF-8"?>
<svg width="91px" height="91px" viewBox="0 0 91 91" version="1.1" xmlns="http://www.w3.org/2000/svg" xmlns:xlink="http://www.w3.org/1999/xlink">
    <!-- Generator: Sketch 48.2 (47327) - http://www.bohemiancoding.com/sketch -->
    <title>info</title>
    <desc>Created with Sketch.</desc>
    <defs></defs>
    <g id="Location-v2" stroke="none" stroke-width="1" fill="none" fill-rule="evenodd" transform="translate(-110.000000, -291.000000)">
        <g id="left-pane" transform="translate(-14.000000, 83.000000)" fill="#DBDCDD" fill-rule="nonzero">
            <g id="Muncipality" transform="translate(59.000000, 30.000000)">
                <g id="1" transform="translate(0.000000, 157.976000)">
                    <g id="info" transform="translate(65.248000, 20.400000)">
                        <path d="M76.8197461,13.1804297 C68.3203711,4.68070312 57.0200977,0 45,0 C32.9799023,0 21.6796289,4.68070312 13.1804297,13.1804297 C4.68070312,21.6796289 0,32.9799023 0,45 C0,57.0200977 4.68070312,68.3203711 13.1804297,76.8197461 C21.6796289,85.3192969 32.9799023,90 45,90 C57.0200977,90 68.3203711,85.3192969 76.8197461,76.8197461 C85.3192969,68.3203711 90,57.0200977 90,45 C90,32.9799023 85.3192969,21.6796289 76.8197461,13.1804297 Z M45,86.4144141 C22.164082,86.4144141 3.58558594,67.8360938 3.58558594,45 C3.58558594,22.1639062 22.164082,3.58558594 45,3.58558594 C67.835918,3.58558594 86.4144141,22.164082 86.4144141,45 C86.4144141,67.835918 67.835918,86.4144141 45,86.4144141 Z" id="Shape"></path>
                        <path d="M45,30.3885352 C41.5400977,30.3885352 38.7251367,33.2034961 38.7251367,36.6633984 L38.7251367,67.8585938 C38.7251367,71.3184961 41.5400977,74.133457 45,74.133457 C48.4599023,74.133457 51.2748633,71.3184961 51.2748633,67.8585938 L51.2748633,36.6633984 C51.2748633,33.2033203 48.4599023,30.3885352 45,30.3885352 Z M47.6892773,67.8585938 C47.6892773,69.3414844 46.4828906,70.5478711 45,70.5478711 C43.5171094,70.5478711 42.3107227,69.3414844 42.3107227,67.8585938 L42.3107227,36.6633984 C42.3107227,35.1805078 43.5171094,33.9741211 45,33.9741211 C46.4828906,33.9741211 47.6892773,35.1805078 47.6892773,36.6633984 L47.6892773,67.8585938 Z" id="Shape"></path>
                        <path d="M49.4358398,17.7024023 C48.266543,16.5355664 46.6495313,15.866543 45,15.866543 C43.350293,15.866543 41.7332813,16.5355664 40.5622266,17.7039844 C39.3946875,18.871875 38.7251367,20.4890625 38.7251367,22.1414063 C38.7251367,23.7909375 39.3941602,25.4079492 40.5638086,26.5800586 C41.7331055,27.7470703 43.3501172,28.4162695 45,28.4162695 C46.649707,28.4162695 48.2667188,27.7470703 49.4386523,26.5774219 C50.6056641,25.408125 51.2748633,23.7911133 51.2748633,22.1414062 C51.2748633,20.4890625 50.6053125,18.8716992 49.4358398,17.7024023 Z M46.9031836,24.0421289 C46.4008008,24.5431055 45.707168,24.8306836 45,24.8306836 C44.2923047,24.8306836 43.5986719,24.5431055 43.0992773,24.0449414 C42.5983008,23.5425586 42.3107227,22.84875 42.3107227,22.141582 C42.3107227,21.432832 42.5977734,20.7395508 43.0962891,20.2408594 C43.5986719,19.7398828 44.2924805,19.4523047 45,19.4523047 C45.7073438,19.4523047 46.4011523,19.7398828 46.9017773,20.2394531 C47.4022266,20.7399023 47.6891016,21.4330078 47.6891016,22.1414062 C47.6892773,22.8489258 47.4016992,23.5425586 46.9031836,24.0421289 Z" id="Shape"></path>
                    </g>
                </g>
            </g>
        </g>
    </g>
</svg>