<?xml version="1.0" encoding="UTF-8"?>
<svg width="86px" height="90px" viewBox="0 0 86 90" version="1.1" xmlns="http://www.w3.org/2000/svg" xmlns:xlink="http://www.w3.org/1999/xlink">
    <!-- Generator: Sketch 48.2 (47327) - http://www.bohemiancoding.com/sketch -->
    <title>housing-market</title>
    <desc>Created with Sketch.</desc>
    <defs></defs>
    <g id="Location-v2" stroke="none" stroke-width="1" fill="none" fill-rule="evenodd" transform="translate(-376.000000, -506.000000)">
        <g id="left-pane" transform="translate(-14.000000, 83.000000)" fill="#383838" fill-rule="nonzero">
            <g id="Muncipality" transform="translate(59.000000, 30.000000)">
                <g id="4" transform="translate(264.000000, 373.000000)">
                    <g id="housing-market" transform="translate(67.000000, 20.000000)">
                        <path d="M83.5662305,86.484375 L79.7108203,86.484375 L79.7108203,30.504375 C79.7108203,27.8987695 77.5908984,25.7790234 74.9854688,25.7790234 L66.3679688,25.7790234 C63.7623633,25.7790234 61.6426172,27.8989453 61.6426172,30.504375 L61.6426172,86.484375 L51.8530078,86.484375 L51.8530078,55.8676758 C51.8530078,53.2620703 49.7332617,51.1423242 47.1276563,51.1423242 L38.5101563,51.1423242 C35.9045508,51.1423242 33.7848047,53.2622461 33.7848047,55.8676758 L33.7848047,86.484375 L23.9951953,86.484375 L23.9951953,70.6282031 C23.9951953,68.0225977 21.8752734,65.9028516 19.2698438,65.9028516 L10.652168,65.9028516 C8.0465625,65.9028516 5.92681641,68.0227734 5.92681641,70.6282031 L5.92681641,86.484375 L1.86345703,86.484375 C0.892617188,86.484375 0.105644531,87.2713477 0.105644531,88.2421875 C0.105644531,89.2130273 0.892617188,90 1.86345703,90 L83.5662305,90 C84.5370703,90 85.324043,89.2130273 85.324043,88.2421875 C85.324043,87.2713477 84.5370703,86.484375 83.5662305,86.484375 Z M20.4792188,86.484375 L9.44226563,86.484375 L9.44226563,70.6282031 C9.44226563,69.9611133 9.98490234,69.4184766 10.6519922,69.4184766 L19.2694922,69.4184766 C19.936582,69.4184766 20.4792188,69.9611133 20.4792188,70.6282031 L20.4792188,86.484375 Z M48.337207,86.484375 L37.3002539,86.484375 L37.3002539,55.8676758 C37.3002539,55.2005859 37.8428906,54.6579492 38.5099805,54.6579492 L47.1274805,54.6579492 C47.7943945,54.6579492 48.337207,55.2005859 48.337207,55.8676758 L48.337207,86.484375 Z M76.1951953,86.484375 L65.1582422,86.484375 L65.1582422,30.504375 C65.1582422,29.8372852 65.7008789,29.2946484 66.3679687,29.2946484 L74.9854687,29.2946484 C75.6525586,29.2946484 76.1951953,29.8372852 76.1951953,30.504375 L76.1951953,86.484375 Z" id="Shape"></path>
                        <path d="M79.7066016,1.84851563 C79.7312109,1.36880859 79.5624609,0.881015625 79.1961328,0.5146875 C78.8298047,0.148359375 78.3420117,-0.0205664063 77.8623047,0.00421875 C77.8340039,0.00298828125 77.8060547,0 77.7772266,0 L67.1424609,0 C66.1716211,0 65.3846484,0.786972656 65.3846484,1.7578125 C65.3846484,2.72865234 66.1716211,3.515625 67.1424609,3.515625 L73.7091211,3.515625 L56.3319141,20.8930078 L49.7787891,14.3398828 C49.4491992,14.010293 49.0020117,13.8250195 48.5358398,13.8250195 C48.069668,13.8250195 47.6224805,14.010293 47.2928906,14.3398828 L15.6928711,45.9400781 C15.0064453,46.6265039 15.0064453,47.7395508 15.6928711,48.4261523 C16.0361719,48.7691016 16.4859961,48.9406641 16.9358203,48.9406641 C17.3856445,48.9406641 17.8356445,48.7691016 18.1787695,48.4258008 L48.5358398,18.0685547 L55.0889648,24.6216797 C55.7753906,25.3081055 56.8884375,25.3081055 57.5750391,24.6216797 L76.1951953,6.00169922 L76.1951953,11.9448633 C76.1951953,12.9157031 76.982168,13.7026758 77.9530078,13.7026758 C78.9238477,13.7026758 79.7108203,12.9157031 79.7108203,11.9448633 L79.7108203,1.93359375 C79.7108203,1.90494141 79.707832,1.87699219 79.7066016,1.84851563 Z" id="Shape"></path>
                    </g>
                </g>
            </g>
        </g>
    </g>
</svg>