<?xml version="1.0" encoding="UTF-8"?>
<svg width="40px" height="40px" viewBox="0 0 40 40" version="1.1" xmlns="http://www.w3.org/2000/svg" xmlns:xlink="http://www.w3.org/1999/xlink">
    <!-- Generator: Sketch 47.1 (45422) - http://www.bohemiancoding.com/sketch -->
    <title>Learn</title>
    <desc>Created with Sketch.</desc>
    <defs></defs>
    <g id="Export" stroke="none" stroke-width="1" fill="none" fill-rule="evenodd">
        <g id="Learn" fill-rule="nonzero" fill="#3498DB">
            <g id="book" transform="translate(2.000000, 5.000000)">
                <path d="M18.5806452,24.3151742 L18.5806452,6.97703226 C18.5806452,6.65628387 18.3207484,6.3963871 18,6.3963871 C17.6792516,6.3963871 17.4193548,6.65628387 17.4193548,6.97703226 L17.4193548,24.3151742 C17.4193548,24.6359226 17.6792516,24.8958194 18,24.8958194 C18.3207484,24.8958194 18.5806452,24.6359226 18.5806452,24.3151742 Z" id="Shape"></path>
                <path d="M35.4193548,2.61538065 C34.1917935,2.61538065 32.6621419,2.08567742 31.0426065,1.52492903 C28.9916129,0.814683871 26.6667871,0.00975483871 24.2557935,0.00975483871 C21.4659871,0.00975483871 19.764,1.23228387 18.8275355,2.25785806 C18.4772903,2.64154839 18.2058581,3.0260129 18.0000774,3.36704516 C17.7942968,3.0260129 17.5228645,2.64154839 17.1726194,2.25785806 C16.2360774,1.23228387 14.5341677,0.00975483871 11.7443613,0.00975483871 C9.33329032,0.00975483871 7.00854194,0.814683871 4.95754839,1.52492903 C3.33785806,2.08567742 1.80820645,2.61538065 0.580645161,2.61538065 C0.259896774,2.61538065 0,2.87527742 0,3.19602581 L0,26.5837935 C0,26.9045419 0.259896774,27.1644387 0.580645161,27.1644387 C2.0036129,27.1644387 3.62299355,26.6036903 5.33736774,26.0100387 C7.30188387,25.3298323 9.52854194,24.5588129 11.7442065,24.5588129 C13.6440774,24.5588129 15.1818581,25.1879226 16.3148903,26.4286452 C16.5310452,26.6653935 16.8984,26.6820387 17.1352258,26.4658065 C17.3720516,26.2495742 17.3886194,25.8822968 17.1723871,25.645471 C16.2358452,24.6199742 14.5339355,23.3974452 11.7442065,23.3974452 C9.33313548,23.3974452 7.0083871,24.2023742 4.95739355,24.9126194 C3.58436129,25.3882065 2.27581935,25.8411871 1.16129032,25.9681548 L1.16129032,3.74787097 C2.4380129,3.62624516 3.852,3.13656774 5.33736774,2.62227097 C7.30188387,1.94206452 9.52854194,1.17104516 11.7442065,1.17104516 C16.2253161,1.17104516 17.3977548,4.72939355 17.4449032,4.87896774 C17.5198452,5.12268387 17.7449806,5.28913548 18,5.28913548 C18.2550194,5.28913548 18.4801548,5.12276129 18.5550968,4.87896774 C18.5664,4.84188387 19.7460387,1.17104516 24.2557935,1.17104516 C26.4714581,1.17104516 28.6981161,1.94206452 30.6626323,2.62227097 C32.1480774,3.13664516 33.5619871,3.62624516 34.8387097,3.74787097 L34.8387097,25.9681548 C33.7241806,25.8411871 32.4156387,25.3882065 31.0426065,24.9126968 C28.9916129,24.2024516 26.6667871,23.3975226 24.2557935,23.3975226 C21.4659097,23.3975226 19.7639226,24.6200516 18.8275355,25.6456258 C18.6113032,25.882529 18.6279484,26.249729 18.8646968,26.4659613 C19.1016,26.6821935 19.4688774,26.6655484 19.6850323,26.4288 C20.8180645,25.188 22.3558452,24.5588903 24.2557935,24.5588903 C26.4714581,24.5588903 28.6981161,25.3299097 30.6626323,26.0101161 C32.3770839,26.6037677 33.9964645,27.1645161 35.4193548,27.1645161 C35.7401032,27.1645161 36,26.9046194 36,26.583871 L36,3.19602581 C36,2.87535484 35.7401032,2.61538065 35.4193548,2.61538065 Z" id="Shape"></path>
                <path d="M35.4193548,28.325729 C34.1917935,28.325729 32.6621419,27.7960258 31.0426065,27.2352774 C28.9916129,26.5250323 26.6667871,25.7201032 24.2557935,25.7201032 C21.6356903,25.7201032 19.9752,26.7984 19.007071,27.7791484 L16.9928516,27.779071 C16.0247226,26.7983226 14.3641548,25.7201032 11.7442065,25.7201032 C9.33313548,25.7201032 7.0083871,26.5250323 4.95739355,27.2352774 C3.33785806,27.7960258 1.80820645,28.325729 0.580645161,28.325729 C0.259896774,28.325729 -2.84217094e-14,28.5856258 -2.84217094e-14,28.9063742 C-2.84217094e-14,29.2271226 0.259896774,29.4870194 0.580645161,29.4870194 C2.0036129,29.4870194 3.62299355,28.926271 5.33736774,28.3326194 C7.30188387,27.6524129 9.52854194,26.8813935 11.7442065,26.8813935 C13.6440774,26.8813935 15.1818581,27.5105032 16.3148903,28.7512258 C16.4249032,28.8716903 16.5805161,28.9402839 16.7436387,28.9402839 L19.2562065,28.9403613 C19.419329,28.9403613 19.5749419,28.8716903 19.6849548,28.7513032 C20.8179871,27.5105032 22.3557677,26.8813935 24.2557161,26.8813935 C26.4713806,26.8813935 28.6980387,27.6524129 30.6625548,28.3326194 C32.3770065,28.926271 33.9963871,29.4870194 35.4192774,29.4870194 C35.7400258,29.4870194 35.9999226,29.2271226 35.9999226,28.9063742 C35.9999226,28.5856258 35.7401032,28.325729 35.4193548,28.325729 Z" id="Shape"></path>
            </g>
        </g>
    </g>
</svg>