<?xml version="1.0" encoding="UTF-8"?>
<svg width="40px" height="40px" viewBox="0 0 40 40" version="1.1" xmlns="http://www.w3.org/2000/svg" xmlns:xlink="http://www.w3.org/1999/xlink">
    <!-- Generator: Sketch 47.1 (45422) - http://www.bohemiancoding.com/sketch -->
    <title>Leisure</title>
    <desc>Created with Sketch.</desc>
    <defs></defs>
    <g id="Export" stroke="none" stroke-width="1" fill="none" fill-rule="evenodd">
        <g id="Leisure" fill-rule="nonzero" fill="#16A085">
            <g id="park" transform="translate(2.000000, 7.000000)">
                <path d="M35.4168467,24.8812095 L31.6457883,24.8812095 L31.6457883,19.773797 C33.0612959,19.5143326 34.1339093,18.3298315 34.1339093,16.9114471 C34.1339093,16.1938575 33.8468423,14.4065313 33.383041,12.7704363 C32.7177797,10.4235162 31.9805184,9.33045356 31.062635,9.33045356 C30.1447516,9.33045356 29.4074903,10.4235162 28.7422289,12.7704363 C28.2784276,14.4065313 27.9913607,16.1938575 27.9913607,16.9114471 C27.9913607,18.3299093 29.0639741,19.5144104 30.4794816,19.773797 L30.4794816,24.8812095 L26.6695464,24.8812095 L26.6695464,10.4008121 C27.391879,10.1568207 27.9136069,9.4732095 27.9136069,8.66954644 L27.9136069,6.18142549 C27.9136069,5.85936933 27.6525875,5.59827214 27.3304536,5.59827214 L26.6695464,5.59827214 L26.6695464,4.89848812 L27.9524838,4.89848812 C28.2746177,4.89848812 28.5356371,4.63739093 28.5356371,4.31533477 C28.5356371,3.99327862 28.2746177,3.73218143 27.9524838,3.73218143 L24.2203024,3.73218143 C23.8981685,3.73218143 23.637149,3.99327862 23.637149,4.31533477 C23.637149,4.63739093 23.8981685,4.89848812 24.2203024,4.89848812 L25.5032397,4.89848812 L25.5032397,5.59827214 L24.8423326,5.59827214 C24.5201987,5.59827214 24.2591793,5.85936933 24.2591793,6.18142549 L24.2591793,8.66954644 C24.2591793,9.4732095 24.7809071,10.1568207 25.5032397,10.4008121 L25.5032397,24.8812095 L23.4643801,24.8812095 L23.0681469,22.937365 L23.5981944,22.937365 C23.9203283,22.937365 24.1813477,22.6762678 24.1813477,22.3542117 C24.1813477,22.0321555 23.9203283,21.7710583 23.5981944,21.7710583 L22.3591879,21.7710583 C22.356622,21.7710583 22.3540562,21.7710583 22.3514125,21.7710583 L22.3153348,21.7710583 L22.3153348,20.4492441 L22.9762419,20.4492441 C23.2983758,20.4492441 23.5593952,20.1881469 23.5593952,19.8660907 C23.5593952,19.5440346 23.2983758,19.2829374 22.9762419,19.2829374 L22.3153348,19.2829374 L22.3153348,18.5831533 L22.9762419,18.5831533 C23.2983758,18.5831533 23.5593952,18.3220562 23.5593952,18 C23.5593952,17.6779438 23.2983758,17.4168467 22.9762419,17.4168467 L11.7796976,17.4168467 C11.4575637,17.4168467 11.1965443,17.6779438 11.1965443,18 C11.1965443,18.3220562 11.4575637,18.5831533 11.7796976,18.5831533 L12.4406048,18.5831533 L12.4406048,19.2829374 L11.7796976,19.2829374 C11.4575637,19.2829374 11.1965443,19.5440346 11.1965443,19.8660907 C11.1965443,20.1881469 11.4575637,20.4492441 11.7796976,20.4492441 L12.4406048,20.4492441 L12.4406048,21.7710583 L12.403905,21.7710583 C12.4017279,21.7710583 12.3996285,21.7710583 12.3974514,21.7710583 L11.1576674,21.7710583 C10.8355335,21.7710583 10.574514,22.0321555 10.574514,22.3542117 C10.574514,22.6762678 10.8355335,22.937365 11.1576674,22.937365 L11.6877149,22.937365 L11.2914816,24.8812095 L6.76457883,24.8812095 L6.76457883,19.1695724 C9.21304536,18.8800173 11.1187905,16.7928726 11.1187905,14.2678186 C11.1187905,9.88709287 6.89038445,0.725520518 6.71038445,0.337684665 C6.61482505,0.131714903 6.40846652,0 6.18142549,0 C5.95438445,0 5.74802592,0.131714903 5.65246652,0.337684665 C5.47246652,0.725520518 1.24406048,9.88709287 1.24406048,14.2678186 C1.24406048,16.7928726 3.14980562,18.8800173 5.59827214,19.1695724 L5.59827214,24.8812095 L0.583153348,24.8812095 C0.261019438,24.8812095 0,25.1423067 0,25.4643629 C0,25.786419 0.261019438,26.0475162 0.583153348,26.0475162 L35.4168467,26.0475162 C35.7389806,26.0475162 36,25.786419 36,25.4643629 C36,25.1423067 35.7389806,24.8812095 35.4168467,24.8812095 Z M29.1576674,16.9114471 C29.1576674,16.3914298 29.386108,14.8352657 29.8148423,13.2662721 C30.4385054,10.9839654 30.9627214,10.5651058 31.062635,10.5039914 C31.1625486,10.5651058 31.6866868,10.9839654 32.3104276,13.2662721 C32.7392397,14.8353434 32.9676026,16.3914298 32.9676026,16.9114471 C32.9676026,17.6893737 32.4117408,18.3499698 31.6457883,18.5766998 L31.6457883,17.3779698 C31.6457883,17.0559136 31.3847689,16.7948164 31.062635,16.7948164 C30.7405011,16.7948164 30.4794816,17.0559136 30.4794816,17.3779698 L30.4794816,18.5766998 C29.7135292,18.3499698 29.1576674,17.6893737 29.1576674,16.9114471 Z M25.425486,6.76457883 L26.7473002,6.76457883 L26.7473002,8.66954644 C26.7473002,9.0339784 26.4508251,9.33045356 26.0863931,9.33045356 C25.7219611,9.33045356 25.425486,9.0339784 25.425486,8.66954644 L25.425486,6.76457883 Z M2.41036717,14.2678186 C2.41036717,11.031162 5.03214687,4.65496328 6.18142549,2.01545572 C7.3307041,4.65496328 9.9524838,11.031162 9.9524838,14.2678186 C9.9524838,16.1489158 8.568,17.7124665 6.76457883,17.9936242 L6.76457883,16.1342981 C6.76457883,16.1340648 6.76457883,16.1337538 6.76457883,16.1335205 L6.76457883,14.5093996 L8.45992225,12.8140562 C8.68766307,12.5863153 8.68766307,12.2170626 8.45992225,11.9893996 C8.23210367,11.7616587 7.86292873,11.7616587 7.6351879,11.9893996 L6.76457883,12.8599309 L6.76457883,11.7796976 C6.76457883,11.4576415 6.5035594,11.1965443 6.18142549,11.1965443 C5.85929158,11.1965443 5.59827214,11.4576415 5.59827214,11.7796976 L5.59827214,14.2674298 C5.59827214,14.2676631 5.59827214,14.2679741 5.59827214,14.2682073 L5.59827214,14.7260216 L4.72774082,13.8554903 C4.49992225,13.6277495 4.1307473,13.6277495 3.90300648,13.8554903 C3.67526566,14.0832311 3.67526566,14.4524838 3.90300648,14.6801469 L5.59827214,16.3754903 L5.59827214,17.9936242 C3.79485097,17.7124665 2.41036717,16.1489158 2.41036717,14.2678186 Z M13.6069114,18.5831533 L21.1490281,18.5831533 L21.1490281,19.2829374 L13.6069114,19.2829374 L13.6069114,18.5831533 Z M13.6069114,20.4492441 L21.1490281,20.4492441 L21.1490281,21.7710583 L13.6069114,21.7710583 L13.6069114,20.4492441 Z M12.8779698,22.937365 L21.8779698,22.937365 L22.2741253,24.8812095 L12.4818143,24.8812095 L12.8779698,22.937365 Z" id="Shape"></path>
            </g>
        </g>
    </g>
</svg>