<?xml version="1.0" encoding="UTF-8"?>
<svg width="42px" height="55px" viewBox="0 0 42 55" version="1.1" xmlns="http://www.w3.org/2000/svg" xmlns:xlink="http://www.w3.org/1999/xlink">
    <!-- Generator: Sketch 48.2 (47327) - http://www.bohemiancoding.com/sketch -->
    <title>map-marker</title>
    <desc>Created with Sketch.</desc>
    <defs></defs>
    <g id="Location-v2" stroke="none" stroke-width="1" fill="none" fill-rule="evenodd" transform="translate(-934.000000, -494.000000)">
        <g id="right-pane" transform="translate(360.000000, 75.000000)">
            <g id="selected-region" transform="translate(482.000000, 278.000000)">
                <g id="map-marker" transform="translate(92.000000, 141.000000)">
                    <path d="M20.625,0 C9.2503125,0 0,9.2503125 0,20.625 C0,34.9215625 18.6175,53.7040625 19.408125,54.498125 C19.745,54.8315625 20.185,55 20.625,55 C21.065,55 21.505,54.8315625 21.841875,54.498125 C22.6325,53.7040625 41.25,34.9215625 41.25,20.625 C41.25,9.2503125 31.9996875,0 20.625,0 Z" id="Shape" fill="#DBDCDD" fill-rule="nonzero"></path>
                    <path d="M30.2946875,17.5621875 L21.7009375,10.6871875 C21.071875,10.1853125 20.1815625,10.1853125 19.5525,10.6871875 L10.95875,17.5621875 C10.388125,18.019375 10.168125,18.7859375 10.40875,19.476875 C10.649375,20.1678125 11.3025,20.625 12.03125,20.625 L13.75,20.625 L13.75,29.21875 C13.75,30.1675 14.52,30.9375 15.46875,30.9375 L25.78125,30.9375 C26.73,30.9375 27.5,30.1675 27.5,29.21875 L27.5,20.625 L29.21875,20.625 C29.9475,20.625 30.5971875,20.164375 30.84125,19.476875 C31.0853125,18.789375 30.8653125,18.019375 30.2946875,17.5621875 Z" id="Shape" fill="#FAFAFA" fill-rule="nonzero"></path>
                    <rect id="Rectangle" fill="#FAFAFA" x="13.0625" y="12.375" width="2.75" height="4.125" rx="0.5"></rect>
                </g>
            </g>
        </g>
    </g>
</svg>