<?xml version="1.0" encoding="UTF-8"?>
<svg width="40px" height="40px" viewBox="0 0 40 40" version="1.1" xmlns="http://www.w3.org/2000/svg" xmlns:xlink="http://www.w3.org/1999/xlink">
    <!-- Generator: Sketch 48.1 (47250) - http://www.bohemiancoding.com/sketch -->
    <title>Noise</title>
    <desc>Created with Sketch.</desc>
    <defs></defs>
    <g id="Export" stroke="none" stroke-width="1" fill="none" fill-rule="evenodd">
        <g id="Noise" fill="#FFFFFF" fill-rule="nonzero">
            <g id="megaphone" transform="translate(7.000000, 5.000000)">
                <path d="M26.000625,19.858125 L23.76,13.23375 C24.45,12.264375 24.645,11.023125 24.260625,9.886875 C23.878125,8.750625 22.970625,7.880625 21.830625,7.528125 L19.58625,0.890625 C19.32375,0.11625 18.825,0 18.5475,0 C17.855625,0 17.480625,0.684375 17.26875,1.321875 C15.6525,7.7625 8.36625,9.834375 8.244375,9.87 C7.584375,10.093125 7.30875,10.498125 7.1925,10.8 C6.995625,11.31375 7.156875,11.7825 7.24875,11.985 L9.489375,18.6075 C9.72375,19.2975 10.29,19.708125 11.01,19.708125 C11.304375,19.708125 11.533125,19.63875 11.595,19.618125 C13.434375,18.995625 15.234375,18.67875 16.94625,18.67875 C21.51,18.67875 24.03375,20.94375 24.05625,20.96625 L24.174375,21.05625 C24.373125,21.181875 24.763125,21.3975 25.149375,21.3975 C25.483125,21.3975 25.7775,21.2475 25.955625,20.983125 C26.266875,20.518125 26.055,19.989375 26.000625,19.858125 Z M16.944375,17.041875 C15.05625,17.041875 13.078125,17.386875 11.041875,18.084375 L8.78625,11.41875 C9.568125,11.19375 16.30875,9.0825 18.5175,2.848125 L20.581875,8.945625 L21.9075,12.86625 L23.94375,18.883125 C22.621875,18.088125 20.259375,17.041875 16.944375,17.041875 Z" id="Shape"></path>
                <path d="M8.589375,22.456875 C8.589375,22.456875 9.02625,21.045 8.810625,20.39625 L6.24375,12.645 C6.24375,12.645 6.088125,11.675625 5.060625,12.0225 L1.876875,13.100625 C1.876875,13.100625 -0.601875,14.060625 0.22125,16.494375 L1.355625,19.843125 C1.355625,19.843125 2.25375,22.670625 4.719375,21.83625 C4.719375,21.83625 5.68875,21.5475 6.125625,23.11125 L8.17125,29.165625 C8.17125,29.165625 8.345625,30.19125 9.320625,29.859375 C9.320625,29.859375 12.316875,29.34 9.920625,26.91 C10.61625,25.449375 8.589375,24.466875 8.589375,22.456875 Z" id="Shape"></path>
                <path d="M18.15375,6.53625 C17.805,6.493125 17.475,6.7425 17.43,7.096875 C17.1,9.69375 13.245,10.785 13.205625,10.79625 C12.85875,10.891875 12.658125,11.248125 12.751875,11.593125 C12.830625,11.88 13.09125,12.069375 13.37625,12.069375 C13.4325,12.069375 13.490625,12.061875 13.54875,12.046875 C13.741875,11.994375 18.2775,10.719375 18.71625,7.26 C18.759375,6.90375 18.508125,6.58125 18.15375,6.53625 Z" id="Shape"></path>
            </g>
        </g>
    </g>
</svg>