<?xml version="1.0" encoding="UTF-8"?>
<svg width="79px" height="90px" viewBox="0 0 79 90" version="1.1" xmlns="http://www.w3.org/2000/svg" xmlns:xlink="http://www.w3.org/1999/xlink">
    <!-- Generator: Sketch 48.2 (47327) - http://www.bohemiancoding.com/sketch -->
    <title>noise</title>
    <desc>Created with Sketch.</desc>
    <defs></defs>
    <g id="Location-v2" stroke="none" stroke-width="1" fill="none" fill-rule="evenodd" transform="translate(-378.000000, -851.000000)">
        <g id="left-pane" transform="translate(-14.000000, 83.000000)" fill="#383838" fill-rule="nonzero">
            <g id="Address" transform="translate(59.000000, 594.000000)">
                <g id="2" transform="translate(262.000000, 153.000000)">
                    <g id="Heading" transform="translate(71.352000, 21.008000)">
                        <g id="noise" transform="translate(-0.000000, 0.000000)">
                            <path d="M77.827157,59.574375 L71.105282,39.70125 C73.175282,36.793125 73.760282,33.069375 72.607157,29.660625 C71.459657,26.251875 68.737157,23.641875 65.317157,22.584375 L58.584032,2.671875 C57.796532,0.34875 56.300282,-2.84217094e-14 55.467782,-2.84217094e-14 C53.392157,-2.84217094e-14 52.267157,2.053125 51.631532,3.965625 C46.782782,23.2875 24.924032,29.503125 24.558407,29.61 C22.578407,30.279375 21.751532,31.494375 21.402782,32.4 C20.812157,33.94125 21.295907,35.3475 21.571532,35.955 L28.293407,55.8225 C28.996532,57.8925 30.695282,59.124375 32.855282,59.124375 C33.738407,59.124375 34.424657,58.91625 34.610282,58.854375 C40.128407,56.986875 45.528407,56.03625 50.664032,56.03625 C64.355282,56.03625 71.926532,62.83125 71.994032,62.89875 L72.348407,63.16875 C72.944657,63.545625 74.114657,64.1925 75.273407,64.1925 C76.274657,64.1925 77.157782,63.7425 77.692157,62.949375 C78.625907,61.554375 77.990282,59.968125 77.827157,59.574375 Z M50.658407,51.125625 C44.994032,51.125625 39.059657,52.160625 32.950907,54.253125 L26.184032,34.25625 C28.529657,33.58125 48.751532,27.2475 55.377782,8.544375 L61.570907,26.836875 L65.547782,38.59875 L71.656532,56.649375 C67.690907,54.264375 60.603407,51.125625 50.658407,51.125625 Z" id="Shape"></path>
                            <path d="M25.6067759,67.3443613 C25.6067759,67.3443613 26.9174009,63.1087363 26.2705259,61.1624863 L18.5699009,37.9087363 C18.5699009,37.9087363 18.1030259,35.0006113 15.0205259,36.0412363 L5.46927593,39.2756113 C5.46927593,39.2756113 -1.96697407,42.1556113 0.502400925,49.4568613 L3.90552593,59.5031113 C3.90552593,59.5031113 6.59990093,67.9856113 13.9967759,65.4824863 C13.9967759,65.4824863 16.9049009,64.6162363 18.2155259,69.3074863 L24.3524009,87.4706113 C24.3524009,87.4706113 24.8755259,90.5474863 27.8005259,89.5518613 C27.8005259,89.5518613 36.7892759,87.9937363 29.6005259,80.7037363 C31.6874009,76.3218613 25.6067759,73.3743613 25.6067759,67.3443613 Z" id="Shape"></path>
                            <path d="M54.8461427,20.2186213 C53.7998927,20.0892463 52.8098927,20.8373713 52.6748927,21.9004963 C51.6848927,29.6911213 40.1198927,32.9648713 40.0017677,32.9986213 C38.9611427,33.2854963 38.3592677,34.3542463 38.6405177,35.3892463 C38.8767677,36.2498713 39.6586427,36.8179963 40.5136427,36.8179963 C40.6823927,36.8179963 40.8567677,36.7954963 41.0311427,36.7504963 C41.6105177,36.5929963 55.2173927,32.7679963 56.5336427,22.3898713 C56.6630177,21.3211213 55.9092677,20.3536213 54.8461427,20.2186213 Z" id="Shape"></path>
                        </g>
                    </g>
                </g>
            </g>
        </g>
    </g>
</svg>