<?xml version="1.0" encoding="UTF-8"?>
<svg width="40px" height="40px" viewBox="0 0 40 40" version="1.1" xmlns="http://www.w3.org/2000/svg" xmlns:xlink="http://www.w3.org/1999/xlink">
    <!-- Generator: Sketch 48.2 (47327) - http://www.bohemiancoding.com/sketch -->
    <title>plane</title>
    <desc>Created with Sketch.</desc>
    <defs></defs>
    <g id="Noise" stroke="none" stroke-width="1" fill="none" fill-rule="evenodd" transform="translate(-92.000000, -343.000000)">
        <g id="left-pane" transform="translate(0.000000, 83.000000)" fill="#383838" fill-rule="nonzero">
            <g id="checks" transform="translate(30.000000, 131.000000)">
                <g id="plane" transform="translate(62.000000, 129.000000)">
                    <path d="M22.6122656,1.80765625 C22.2632031,0.987578125 21.5757031,0.3646875 20.695,0.090859375 C19.4065625,-0.245546875 18.0489062,0.3753125 17.4586719,1.56445312 C16.4946875,3.50109375 15.9910937,5.66953125 16.0030469,7.83 L16.0030469,28.6750781 C16.0030469,28.7170313 16.0070312,28.7589844 16.0150781,28.8010156 L17.8084375,38.0930469 C17.9596875,39.1809375 18.9016406,39.9996875 19.9982031,39.9996875 C19.9989062,39.9996875 20.0002344,39.9996875 20.0015625,39.9996875 C21.0994531,39.9996875 22.0407812,39.1803125 22.1860156,38.1277344 L23.9846875,28.8010938 C23.9933594,28.7597656 23.9973437,28.7171875 23.9973437,28.6751563 L23.9973437,7.82867188 C23.9926562,5.74421875 23.5089844,3.65171875 22.6122656,1.80765625 Z M22.6649219,28.6104687 L20.8728906,37.9091406 C20.8129687,38.3414844 20.4378906,38.6672656 19.9995312,38.6672656 C19.561875,38.6672656 19.1874219,38.3414844 19.1228125,37.8751562 L17.3360937,28.6110937 L17.3360937,7.82671875 C17.3254687,5.87015625 17.7804687,3.90953125 18.6525,2.15742187 C18.9642969,1.52984375 19.68375,1.20273437 20.3285937,1.37132812 C20.8049219,1.51992187 21.1913281,1.86898437 21.3998437,2.35859375 C22.2232812,4.0540625 22.6602344,5.94601562 22.6649219,7.83 L22.6649219,28.6104687 Z" id="Shape"></path>
                    <path d="M17.0103125,14.7783594 C16.8084375,14.6578125 16.5572656,14.653125 16.3521094,14.765 L0.36359375,23.4255469 C0.1484375,23.5421094 0.01453125,23.7666406 0.01453125,24.0110937 L0.01453125,28.0082031 C0.01453125,28.2267187 0.12109375,28.4305469 0.301015625,28.5557812 C0.414296875,28.63375 0.546875,28.674375 0.68078125,28.674375 C0.759375,28.674375 0.838671875,28.6610156 0.914609375,28.6324219 L16.903125,22.6367187 C17.1629688,22.5388281 17.3354688,22.2903125 17.3354688,22.0125 L17.3354688,15.350625 C17.3353906,15.1161719 17.2121875,14.8989844 17.0103125,14.7783594 Z M16.0030469,21.5508594 L1.346875,27.0469531 L1.346875,24.4082031 L16.0030469,16.4699219 L16.0030469,21.5508594 Z" id="Shape"></path>
                    <path d="M39.6367188,23.4255469 L23.6482031,14.7650781 C23.4417188,14.6538281 23.191875,14.6578125 22.99,14.7784375 C22.7888281,14.8983594 22.6649219,15.1155469 22.6649219,15.3507031 L22.6649219,22.0125781 C22.6649219,22.2903906 22.8367969,22.5395312 23.0966406,22.6367969 L39.0851563,28.6325 C39.1617969,28.6604687 39.2410156,28.6744531 39.3196875,28.6744531 C39.4535938,28.6744531 39.5861719,28.6344531 39.6980469,28.5558594 C39.8778906,28.43125 39.9851563,28.2267969 39.9851563,28.0082812 L39.9851563,24.0111719 C39.9851563,23.7666406 39.85125,23.5421094 39.6367188,23.4255469 Z M38.6534375,27.0469531 L23.9972656,21.5508594 L23.9972656,16.4691406 L38.6534375,24.408125 L38.6534375,27.0469531 Z" id="Shape"></path>
                    <path d="M10.6735156,15.3513281 C9.57164063,15.3513281 8.67492188,16.2480469 8.67492188,17.3499219 L8.67492188,19.3485156 L10.0072656,19.3485156 L10.0072656,17.3499219 C10.0072656,16.9828125 10.3064063,16.68375 10.6734375,16.68375 C11.0404687,16.68375 11.3396094,16.9828906 11.3396094,17.3499219 L11.3396094,18.0160937 L12.6719531,18.0160937 L12.6719531,17.3499219 C12.6721094,16.2479687 11.7753906,15.3513281 10.6735156,15.3513281 Z" id="Shape"></path>
                    <path d="M4.6778125,18.6815625 C3.5759375,18.6815625 2.67921875,19.5782812 2.67921875,20.6801562 L2.67921875,22.67875 L4.0115625,22.67875 L4.0115625,20.6801562 C4.0115625,20.313125 4.31070312,20.0146094 4.67773438,20.0146094 C5.04476563,20.0146094 5.34390625,20.3130469 5.34390625,20.6801562 L6.67625,20.6801562 C6.67640625,19.5782812 5.7796875,18.6815625 4.6778125,18.6815625 Z" id="Shape"></path>
                    <path d="M29.3267969,15.3513281 C28.2249219,15.3513281 27.3282031,16.2480469 27.3282031,17.3499219 L27.3282031,18.0160937 L28.6605469,18.0160937 L28.6605469,17.3499219 C28.6605469,16.9828125 28.9589844,16.68375 29.3267188,16.68375 C29.6944531,16.68375 29.9928906,16.9828906 29.9928906,17.3499219 L29.9928906,19.3485156 L31.3252344,19.3485156 L31.3252344,17.3499219 C31.3253906,16.2479687 30.4286719,15.3513281 29.3267969,15.3513281 Z" id="Shape"></path>
                    <path d="M35.3225,18.6815625 C34.220625,18.6815625 33.3239063,19.5782812 33.3239063,20.6801562 L34.65625,20.6801562 C34.65625,20.313125 34.9546875,20.0146094 35.3224219,20.0146094 C35.6901562,20.0146094 35.9885937,20.3130469 35.9885937,20.6801562 L35.9885937,22.67875 L37.3209375,22.67875 L37.3209375,20.6801562 C37.3210937,19.5782812 36.424375,18.6815625 35.3225,18.6815625 Z" id="Shape"></path>
                    <path d="M18.5571875,37.3442187 L11.3390625,38.5473437 L11.3390625,37.0464062 L17.6778906,33.243125 L16.9923437,32.100625 L10.3304687,36.0977344 C10.1299219,36.2176562 10.0073438,36.4341406 10.0073438,36.6686719 L10.0073438,39.3334375 C10.0073438,39.5292969 10.0939844,39.7158594 10.2432031,39.8417187 C10.3644531,39.9442969 10.5170313,39.9996094 10.6735938,39.9996094 C10.7095313,39.9996094 10.7461719,39.99625 10.7821875,39.9909375 L18.7764844,38.6585937 L18.5571875,37.3442187 Z" id="Shape"></path>
                    <path d="M29.6692188,36.0977344 L23.0073438,32.100625 L22.321875,33.243125 L28.6607031,37.0464063 L28.6607031,38.5466406 L21.441875,37.3435156 L21.2233594,38.6578906 L29.2176562,39.9902344 C29.2542969,39.99625 29.2902344,39.9995313 29.326875,39.9995313 C29.4834375,39.9995313 29.6360156,39.9442188 29.7565625,39.8416406 C29.9064844,39.7150781 29.9924219,39.5292187 29.9924219,39.3333594 L29.9924219,36.6685937 C29.9923437,36.4348437 29.8697656,36.2183594 29.6692188,36.0977344 Z" id="Shape"></path>
                    <path d="M21.5103906,5.11328125 C21.2925781,4.46109375 20.6710156,4.04203125 19.9928125,4.02539063 C19.2860156,4.03203125 18.6784375,4.49242188 18.4892188,5.14328125 L18.0361719,6.475625 L19.2979688,6.9046875 L19.7596094,5.54429688 C19.7922656,5.43375 19.8908594,5.3584375 20.0007813,5.35773438 C20.1127344,5.35773438 20.2113281,5.42898438 20.2466406,5.53359375 L20.6996875,6.89929688 L21.9641406,6.48023438 L21.5103906,5.11328125 Z" id="Shape"></path>
                </g>
            </g>
        </g>
    </g>
</svg>