<?xml version="1.0" encoding="UTF-8"?>
<svg width="40px" height="40px" viewBox="0 0 40 40" version="1.1" xmlns="http://www.w3.org/2000/svg" xmlns:xlink="http://www.w3.org/1999/xlink">
    <!-- Generator: Sketch 48.1 (47250) - http://www.bohemiancoding.com/sketch -->
    <title>Point of Interest</title>
    <desc>Created with Sketch.</desc>
    <defs></defs>
    <g id="Export" stroke="none" stroke-width="1" fill="none" fill-rule="evenodd">
        <g id="Point-of-Interest" fill="#FFFFFF" fill-rule="nonzero">
            <g id="placeholder" transform="translate(9.000000, 6.000000)">
                <path d="M20.9897188,27.0137656 L17.2983672,19.2054297 C17.2247031,19.049625 17.0970625,18.9302422 16.9439922,18.8651094 L15.1075859,18.0475859 L18.2895781,12.7145703 C18.2971797,12.7017734 18.3043438,12.6888125 18.3111797,12.6755781 C18.9438047,11.4407891 19.2646016,10.1064687 19.2646016,8.70991406 C19.2646016,6.36059375 18.3433359,4.15810937 16.6705,2.50824219 C14.9979375,0.858757812 12.7821094,-0.03215625 10.4313672,0.000875 C8.14827344,0.0325390625 5.99861719,0.94959375 4.37828125,2.58321875 C2.75810937,4.21673437 1.85839062,6.37377344 1.84482812,8.65714063 C1.83651562,10.0524922 2.16622656,11.4419922 2.79808594,12.6755234 C2.80486719,12.6887031 2.81203125,12.7017188 2.81963281,12.7145156 L6.00157031,18.0474766 L4.15455469,18.8694844 C4.00345312,18.9366953 3.8815,19.0558594 3.81084375,19.205375 L0.119601562,27.0137656 C-0.0039375,27.2748984 0.0481796875,27.5854141 0.250195312,27.7919688 C0.45215625,27.9985234 0.76125,28.0576953 1.02522656,27.9402266 L5.64949219,25.8814609 L10.2737578,27.9402266 C10.4526406,28.0197969 10.6568984,28.0197969 10.8357813,27.9402266 L15.4600469,25.8814609 L20.0843125,27.9402266 C20.1746562,27.9804219 20.2703047,28 20.3651328,28 C20.5472969,28 20.7265078,27.9279219 20.8593437,27.7920234 C21.0611953,27.5854141 21.1132578,27.2750078 20.9897188,27.0137656 Z M4.01805469,12.0261094 C3.48594531,10.9798281 3.21967187,9.84927344 3.22672656,8.66539844 C3.25013281,4.7044375 6.49080469,1.43735156 10.4506172,1.3825 C12.4284453,1.35592188 14.293125,2.10432031 15.7002344,3.492125 C17.1077812,4.88025781 17.8828672,6.73328906 17.8828672,8.70996875 C17.8828672,9.87803906 17.6165937,10.9935547 17.091375,12.0261094 L11.1480469,21.9873281 C10.9665937,22.2913906 10.6727031,22.3242031 10.5547422,22.3242031 C10.4367266,22.3242031 10.1428359,22.2913906 9.9614375,21.9873281 L4.01805469,12.0261094 Z M15.7409219,24.4940391 C15.5620391,24.4144688 15.3577812,24.4144688 15.1788984,24.4940391 L10.5546328,26.5528047 L5.93036719,24.4940391 C5.75148438,24.4144688 5.54722656,24.4144688 5.36834375,24.4940391 L2.16485938,25.9202891 L4.95053125,20.0277656 L6.71464063,19.2426719 L8.77460938,22.6952578 C9.15217188,23.3281016 9.81760937,23.7059375 10.5545234,23.7059375 C11.2914375,23.7059375 11.956875,23.3281016 12.3344375,22.6953125 L14.3944063,19.2427266 L16.1586797,20.0280938 L18.9441875,25.9203438 L15.7409219,24.4940391 Z" id="Shape"></path>
                <path d="M10.5549063,5.55663281 C8.81617188,5.55663281 7.40167969,6.971125 7.40167969,8.70980469 C7.40167969,10.4484844 8.81617188,11.8629766 10.5549063,11.8629766 C12.2935859,11.8630312 13.7080781,10.4484844 13.7080781,8.70980469 C13.7080781,6.971125 12.2935859,5.55663281 10.5549063,5.55663281 Z M10.5549063,10.4812422 C9.57813281,10.4812969 8.78341406,9.6866875 8.78341406,8.70980469 C8.78341406,7.73303125 9.57807813,6.93836719 10.5549063,6.93836719 C11.5316797,6.93836719 12.3263437,7.73303125 12.3263437,8.70980469 C12.3263437,9.68657813 11.5316797,10.4812422 10.5549063,10.4812422 Z" id="Shape"></path>
            </g>
        </g>
    </g>
</svg>