<?xml version="1.0" encoding="UTF-8"?>
<svg width="68px" height="90px" viewBox="0 0 68 90" version="1.1" xmlns="http://www.w3.org/2000/svg" xmlns:xlink="http://www.w3.org/1999/xlink">
    <!-- Generator: Sketch 48.2 (47327) - http://www.bohemiancoding.com/sketch -->
    <title>point of interest</title>
    <desc>Created with Sketch.</desc>
    <defs></defs>
    <g id="Location-v2" stroke="none" stroke-width="1" fill="none" fill-rule="evenodd" transform="translate(-121.000000, -851.000000)">
        <g id="left-pane" transform="translate(-14.000000, 83.000000)" fill="#383838" fill-rule="nonzero">
            <g id="Address" transform="translate(59.000000, 594.000000)">
                <g id="1" transform="translate(0.000000, 153.000000)">
                    <g id="Heading" transform="translate(35.352000, 21.008000)">
                        <g id="point-of-interest" transform="translate(41.000000, 0.000000)">
                            <path d="M67.4669531,86.8299609 L55.6018945,61.7317383 C55.3651172,61.2309375 54.9548438,60.847207 54.462832,60.6378516 L48.5600977,58.0100977 L58.7879297,40.8682617 C58.8123633,40.8271289 58.8353906,40.7854687 58.8573633,40.7429297 C60.8908008,36.7739648 61.9219336,32.4850781 61.9219336,27.9961523 C61.9219336,20.4447656 58.9607227,13.3653516 53.58375,8.06220703 C48.2076563,2.76029297 41.0853516,-0.103359375 33.5293945,0.0028125 C26.1908789,0.104589844 19.2812695,3.05226562 14.0730469,8.30320312 C8.86535156,13.5537891 5.97339844,20.4871289 5.92980469,27.8265234 C5.90308594,32.311582 6.96287109,36.777832 8.99384766,40.7427539 C9.01564453,40.7851172 9.03867187,40.8269531 9.06310547,40.8680859 L19.2907617,58.0097461 L13.3539258,60.6519141 C12.8682422,60.8679492 12.47625,61.2509766 12.2491406,61.7315625 L0.384433594,86.8299609 C-0.01265625,87.6693164 0.154863281,88.6674023 0.804199219,89.3313281 C1.45335937,89.9952539 2.446875,90.1854492 3.29537109,89.8078711 L18.159082,83.1904102 L33.022793,89.8078711 C33.5977734,90.0636328 34.2543164,90.0636328 34.8292969,89.8078711 L49.6930078,83.1904102 L64.5567188,89.8078711 C64.8471094,89.9370703 65.1545508,90 65.4593555,90 C66.0448828,90 66.620918,89.7683203 67.0478906,89.3315039 C67.6966992,88.6674023 67.864043,87.669668 67.4669531,86.8299609 Z M12.9151758,38.6553516 C11.2048242,35.2923047 10.3489453,31.6583789 10.3716211,27.8530664 C10.4468555,15.1214062 20.8633008,4.62005859 33.5912695,4.44375 C39.9485742,4.35832031 45.9421875,6.76388672 50.4650391,11.2246875 C54.9892969,15.686543 57.4806445,21.6427148 57.4806445,27.9963281 C57.4806445,31.7508398 56.6247656,35.3364258 54.9365625,38.6553516 L35.8330078,70.6735547 C35.2497656,71.6508984 34.3051172,71.7563672 33.925957,71.7563672 C33.5466211,71.7563672 32.6019727,71.6508984 32.0189063,70.6735547 L12.9151758,38.6553516 Z M50.5958203,78.7308398 C50.0208398,78.4750781 49.3642969,78.4750781 48.7893164,78.7308398 L33.9256055,85.3483008 L19.0618945,78.7308398 C18.4869141,78.4750781 17.8303711,78.4750781 17.2553906,78.7308398 L6.95847656,83.3152148 L15.9124219,64.3749609 L21.5827734,61.8514453 L28.2041016,72.949043 C29.4176953,74.9831836 31.5566016,76.1976562 33.9252539,76.1976562 C36.2939063,76.1976562 38.4328125,74.9831836 39.6464063,72.9492188 L46.2677344,61.8516211 L51.9386133,64.3760156 L60.8920313,83.3153906 L50.5958203,78.7308398 Z" id="Shape"></path>
                            <path d="M33.9264844,17.8606055 C28.3376953,17.8606055 23.7911133,22.4071875 23.7911133,27.9958008 C23.7911133,33.5844141 28.3376953,38.1309961 33.9264844,38.1309961 C39.5150977,38.1311719 44.0616797,33.5844141 44.0616797,27.9958008 C44.0616797,22.4071875 39.5150977,17.8606055 33.9264844,17.8606055 Z M33.9264844,33.689707 C30.7868555,33.6898828 28.2324023,31.1357813 28.2324023,27.9958008 C28.2324023,24.8561719 30.7866797,22.3018945 33.9264844,22.3018945 C37.0661133,22.3018945 39.6203906,24.8561719 39.6203906,27.9958008 C39.6203906,31.1354297 37.0661133,33.689707 33.9264844,33.689707 Z" id="Shape"></path>
                        </g>
                    </g>
                </g>
            </g>
        </g>
    </g>
</svg>