<?xml version="1.0" encoding="UTF-8"?>
<svg width="88px" height="91px" viewBox="0 0 88 91" version="1.1" xmlns="http://www.w3.org/2000/svg" xmlns:xlink="http://www.w3.org/1999/xlink">
    <!-- Generator: Sketch 48.2 (47327) - http://www.bohemiancoding.com/sketch -->
    <title>population</title>
    <desc>Created with Sketch.</desc>
    <defs></defs>
    <g id="Location-v2" stroke="none" stroke-width="1" fill="none" fill-rule="evenodd" transform="translate(-376.000000, -290.000000)">
        <g id="left-pane" transform="translate(-14.000000, 83.000000)" fill="#383838" fill-rule="nonzero">
            <g id="Muncipality" transform="translate(59.000000, 30.000000)">
                <g id="2" transform="translate(264.000000, 157.976000)">
                    <g id="population" transform="translate(67.000000, 20.000000)">
                        <path d="M85.6578516,86.4836719 L70.5624609,86.4836719 L70.4701758,43.2815625 C70.4680664,42.3117773 69.6814453,41.5272656 68.7121875,41.5272656 C68.710957,41.5272656 68.7095508,41.5272656 68.7083203,41.5272656 C67.7373047,41.529375 66.9519141,42.3181055 66.9540234,43.2891211 L67.0463086,86.4836719 L61.9400391,86.4836719 L61.8948633,67.2623437 C61.8925781,66.2927344 61.105957,65.5083984 60.136875,65.5083984 C60.1354688,65.5083984 60.1340625,65.5083984 60.1326563,65.5083984 C59.1616406,65.5106836 58.37625,66.2995898 58.3787109,67.2706055 L58.4238867,86.4836719 L54.1550391,86.4836719 L54.1550391,63.2172656 C59.1314063,62.7772852 63.0441211,58.6879102 63.0441211,53.7222656 L63.0441211,36.6848437 C63.0441211,33.9757031 62.4693164,31.3201758 61.3698047,28.8676758 C64.8416602,29.0995312 68.0733984,30.5121094 70.5596484,32.9129297 C73.2803906,35.5401562 74.7831445,39.0336328 74.7908789,42.751582 L74.8230469,52.7563477 C74.8262109,53.7254297 75.6126563,54.5088867 76.5810352,54.5088867 C76.5829688,54.5088867 76.5849023,54.5088867 76.5868359,54.5088867 C77.5576758,54.5057227 78.3423633,53.7161133 78.339375,52.7450977 L78.307207,42.7422656 C78.2971875,38.0664844 76.4131641,33.6774023 73.0021289,30.3836133 C71.0537695,28.5022266 68.7396094,27.1088086 66.2175,26.2634766 C68.0039648,24.5631445 69.1187695,22.1637305 69.1131445,19.5087305 C69.1020703,14.3861133 64.9313086,10.22625 59.8109766,10.22625 C59.8042969,10.22625 59.7974414,10.22625 59.7909375,10.22625 C58.2992578,10.2295898 56.8160156,10.5948633 55.5016992,11.2826953 C54.6414258,11.7330469 54.3090234,12.7954687 54.759375,13.6557422 C55.2099023,14.5160156 56.2725,14.848418 57.1324219,14.3980664 C57.9596484,13.9651172 58.8566602,13.7445117 59.7986719,13.7424023 C62.9941992,13.7408203 65.5903125,16.3256836 65.597168,19.5161133 C65.6040234,22.706543 63.0138867,25.3077539 59.823457,25.3146094 C59.7476953,25.3147852 59.6736914,25.3212891 59.6007422,25.3307812 C59.5070508,25.3346484 59.4135352,25.3379883 59.319668,25.3432617 C56.7796289,21.8670117 53.2137305,19.3452539 49.1524805,18.0655664 C51.3086133,16.1738086 52.6739063,13.4012109 52.6739063,10.3139648 C52.6732031,4.62673828 48.0466406,0 42.3595898,0 C36.6723633,0 32.045625,4.62673828 32.045625,10.3139648 C32.045625,13.5508008 33.5457422,16.4427539 35.885918,18.3350391 C32.1579492,19.6804687 28.8908789,22.0906055 26.5181836,25.3332422 C26.2397461,25.3207617 25.9616602,25.3133789 25.6849805,25.3133789 C25.5534961,25.3133789 25.4223633,25.3154883 25.2914063,25.3183008 C25.2592383,25.316543 25.2275977,25.3133789 25.1950781,25.3133789 C22.0046484,25.3133789 19.4090625,22.717793 19.4090625,19.5273633 C19.4090625,16.3369336 22.0046484,13.7413477 25.1950781,13.7413477 C26.1594141,13.7413477 27.1133789,13.9828711 27.9536133,14.4397266 C28.8066797,14.9032617 29.8740234,14.5879102 30.3380859,13.7348437 C30.8017969,12.8817773 30.4862695,11.8142578 29.6332031,11.3503711 C28.2789844,10.6140234 26.7442383,10.2248437 25.1949023,10.2248437 C20.0656055,10.2248437 15.8925586,14.3978906 15.8925586,19.5271875 C15.8925586,22.3203516 17.1318164,24.8280469 19.087207,26.534707 C12.4403906,29.0977734 7.72787109,35.4137695 7.72787109,42.7804102 L7.72787109,52.7507227 C7.72787109,53.7217383 8.51501953,54.5088867 9.48603516,54.5088867 C10.4570508,54.5088867 11.2441992,53.7217383 11.2441992,52.7507227 L11.2441992,42.7804102 C11.2441992,35.4890039 17.0653711,29.490293 24.4531055,28.8840234 C23.3585156,31.3317773 22.7859961,33.9813281 22.7859961,36.6848437 L22.7859961,53.7222656 C22.7859961,58.7861719 26.8548047,62.9390039 31.9714453,63.2392383 L31.9714453,86.4834961 L27.1817578,86.4834961 L27.1817578,67.2658594 C27.1817578,66.2948437 26.3946094,65.5076953 25.4235938,65.5076953 C24.4525781,65.5076953 23.6654297,66.2948437 23.6654297,67.2658594 L23.6654297,86.4836719 L19.3436719,86.4836719 L19.3436719,43.3030078 C19.3436719,42.3319922 18.5565234,41.5448437 17.5855078,41.5448437 C16.6144922,41.5448437 15.8273438,42.3319922 15.8273438,43.3030078 L15.8273438,86.4836719 L1.88121094,86.4836719 C0.910195312,86.4836719 0.123046875,87.2708203 0.123046875,88.2418359 C0.123046875,89.2128516 0.910019531,90 1.88121094,90 L85.6580273,90 C86.629043,90 87.4161914,89.2128516 87.4161914,88.2418359 C87.4158398,87.2708203 86.6288672,86.4836719 85.6578516,86.4836719 Z M35.5617773,10.3139648 C35.5617773,6.56578125 38.6112305,3.51632813 42.3594141,3.51632813 C46.1075977,3.51632813 49.156875,6.56578125 49.156875,10.3139648 C49.156875,14.0621484 46.1074219,17.1116016 42.3594141,17.1116016 C38.6114063,17.1116016 35.5617773,14.0621484 35.5617773,10.3139648 Z M52.3966992,35.5194141 C51.4256836,35.5194141 50.6385352,36.3065625 50.6385352,37.2775781 L50.6385352,86.4836719 L44.3768555,86.4836719 L44.3768555,62.0242383 C44.3768555,61.0532227 43.589707,60.2660742 42.6186914,60.2660742 C41.6476758,60.2660742 40.8605273,61.0532227 40.8605273,62.0242383 L40.8605273,86.4838477 L35.4877734,86.4838477 L35.4877734,37.2775781 C35.4877734,36.3065625 34.700625,35.5194141 33.7296094,35.5194141 C32.7585938,35.5194141 31.9714453,36.3065625 31.9714453,37.2775781 L31.9714453,59.7144727 C28.7956055,59.4261914 26.3021484,56.8494141 26.3021484,53.7224414 L26.3021484,36.6850195 C26.3021484,33.6422461 27.1870312,30.6805078 28.8611719,28.1202539 C31.9289063,23.4288281 37.1826563,20.6279297 42.9148828,20.6279297 C48.6566016,20.6279297 53.9150977,23.4360352 56.9810742,28.1397656 C58.6469531,30.695625 59.5276172,33.6505078 59.5276172,36.6850195 L59.5276172,53.7224414 C59.5276172,56.7515039 57.1879688,59.2639453 54.1548633,59.6805469 L54.1548633,37.2775781 C54.1550391,36.3065625 53.3677148,35.5194141 52.3966992,35.5194141 Z" id="Shape"></path>
                    </g>
                </g>
            </g>
        </g>
    </g>
</svg>