<?xml version="1.0" encoding="UTF-8"?>
<svg width="40px" height="40px" viewBox="0 0 40 40" version="1.1" xmlns="http://www.w3.org/2000/svg" xmlns:xlink="http://www.w3.org/1999/xlink">
    <!-- Generator: Sketch 47.1 (45422) - http://www.bohemiancoding.com/sketch -->
    <title>Shops</title>
    <desc>Created with Sketch.</desc>
    <defs></defs>
    <g id="Export" stroke="none" stroke-width="1" fill="none" fill-rule="evenodd">
        <g id="Shops" fill-rule="nonzero" fill="#F1C40F">
            <g id="bag" transform="translate(6.000000, 2.000000)">
                <path d="M28.8662577,31.1190184 L26.804908,7.90674847 C26.7607362,7.39141104 26.3263804,7.00122699 25.8184049,7.00122699 L21.5779141,7.00122699 C21.5190184,3.12883436 18.3533742,0 14.4662577,0 C10.5791411,0 7.41349693,3.12883436 7.35460123,7.00122699 L3.11411043,7.00122699 C2.59877301,7.00122699 2.17177914,7.39141104 2.12760736,7.90674847 L0.0662576687,31.1190184 C0.0662576687,31.1484663 0.0588957055,31.1779141 0.0588957055,31.207362 C0.0588957055,33.8503067 2.4809816,36 5.46257669,36 L23.4699387,36 C26.4515337,36 28.8736196,33.8503067 28.8736196,31.207362 C28.8736196,31.1779141 28.8736196,31.1484663 28.8662577,31.1190184 Z M14.4662577,1.98773006 C17.2564417,1.98773006 19.5312883,4.22576687 19.590184,7.00122699 L9.34233129,7.00122699 C9.40122699,4.22576687 11.6760736,1.98773006 14.4662577,1.98773006 Z M23.4699387,34.0122699 L5.46257669,34.0122699 C3.59263804,34.0122699 2.07607362,32.7754601 2.04662577,31.2515337 L4.0196319,8.99631902 L7.34723926,8.99631902 L7.34723926,12.0147239 C7.34723926,12.5668712 7.78895706,13.008589 8.34110429,13.008589 C8.89325153,13.008589 9.33496933,12.5668712 9.33496933,12.0147239 L9.33496933,8.99631902 L19.590184,8.99631902 L19.590184,12.0147239 C19.590184,12.5668712 20.0319018,13.008589 20.5840491,13.008589 C21.1361963,13.008589 21.5779141,12.5668712 21.5779141,12.0147239 L21.5779141,8.99631902 L24.9055215,8.99631902 L26.8858896,31.2515337 C26.8564417,32.7754601 25.3325153,34.0122699 23.4699387,34.0122699 Z" id="Shape"></path>
            </g>
        </g>
    </g>
</svg>