<?xml version="1.0" encoding="UTF-8"?>
<svg width="40px" height="40px" viewBox="0 0 40 40" version="1.1" xmlns="http://www.w3.org/2000/svg" xmlns:xlink="http://www.w3.org/1999/xlink">
    <!-- Generator: Sketch 48.1 (47250) - http://www.bohemiancoding.com/sketch -->
    <title>Sunshine</title>
    <desc>Created with Sketch.</desc>
    <defs></defs>
    <g id="Export" stroke="none" stroke-width="1" fill="none" fill-rule="evenodd">
        <g id="Sunshine" fill="#FFFFFF" fill-rule="nonzero">
            <g id="sun" transform="translate(5.000000, 5.000000)">
                <path d="M14.9962679,5.50004785 C9.76004785,5.50004785 5.49990431,9.76004785 5.49990431,14.9962679 C5.49990431,20.232488 9.75990431,24.492488 14.9962679,24.492488 C20.2326316,24.492488 24.4926316,20.232488 24.4926316,14.9962679 C24.4926316,9.76004785 20.2326316,5.50004785 14.9962679,5.50004785 Z M14.9962679,22.3395215 C10.9472727,22.3395215 7.65301435,19.0454067 7.65301435,14.9964115 C7.65301435,10.9474163 10.9471292,7.65330144 14.9962679,7.65330144 C19.0454067,7.65330144 22.3395215,10.9474163 22.3395215,14.9964115 C22.3395215,19.0454067 19.0454067,22.3395215 14.9962679,22.3395215 Z" id="Shape"></path>
                <path d="M14.9180383,4.62602871 C14.9204785,4.62602871 14.9230622,4.62602871 14.9255024,4.62602871 C15.5200478,4.62200957 15.998756,4.13669856 15.9947368,3.54215311 L15.9779426,1.06937799 C15.9737799,0.474688995 15.4896172,-0.00947368421 14.894067,0.00014354067 C14.2995215,0.00416267943 13.8208134,0.489473684 13.8248325,1.08401914 L13.8416268,3.55679426 C13.8456459,4.14875598 14.3269378,4.62602871 14.9180383,4.62602871 Z" id="Shape"></path>
                <path d="M23.0352632,7.92344498 C23.3133014,7.92344498 23.5911962,7.81650718 23.8017703,7.6030622 L25.5383254,5.84267943 C25.9558852,5.41937799 25.9511483,4.73770335 25.5279904,4.32028708 C25.1045455,3.90244019 24.4230144,3.90717703 24.0055981,4.33047847 L22.2688995,6.09086124 C21.8513397,6.51416268 21.8560766,7.19583732 22.2792344,7.61325359 C22.4889474,7.82023923 22.7621053,7.92344498 23.0352632,7.92344498 Z" id="Shape"></path>
                <path d="M28.9161244,13.8248325 C28.9136842,13.8248325 28.9111005,13.8248325 28.9086603,13.8248325 L26.4358852,13.8416268 C25.8413397,13.8456459 25.3626316,14.3309569 25.3666507,14.9255024 C25.3706699,15.5176077 25.8518182,15.9947368 26.4430622,15.9947368 C26.4455024,15.9947368 26.4480861,15.9947368 26.4505263,15.9947368 L28.9233014,15.9779426 C29.5178469,15.9739234 29.996555,15.4886124 29.9925359,14.894067 C29.9883732,14.3021053 29.5072249,13.8248325 28.9161244,13.8248325 Z" id="Shape"></path>
                <path d="M23.9016746,22.2690431 C23.4783732,21.8511962 22.7966986,21.855933 22.3792823,22.2792344 C21.9617225,22.7025359 21.9664593,23.3842105 22.3896172,23.8016268 L24.15,25.5383254 C24.3597129,25.745311 24.6328708,25.8485167 24.9060287,25.8485167 C25.184067,25.8485167 25.4619617,25.7415789 25.6725359,25.528134 C26.0900957,25.1048325 26.0853589,24.4231579 25.662201,24.0057416 L23.9016746,22.2690431 Z" id="Shape"></path>
                <path d="M15.0670335,25.3667943 C14.472488,25.3708134 13.9937799,25.8561244 13.997799,26.4506699 L14.0145933,28.923445 C14.0186124,29.5155502 14.4997608,29.9926794 15.0910048,29.9926794 C15.093445,29.9926794 15.0960287,29.9926794 15.0984689,29.9926794 C15.6930144,29.9886603 16.1717225,29.5033493 16.1677033,28.9088038 L16.1509091,26.4360287 C16.14689,25.8413397 15.6592823,25.3647847 15.0670335,25.3667943 Z" id="Shape"></path>
                <path d="M6.19090909,22.3896172 L4.45435407,24.15 C4.03679426,24.5733014 4.0415311,25.2549761 4.464689,25.6723923 C4.67440191,25.879378 4.94755981,25.9825837 5.2207177,25.9825837 C5.49875598,25.9825837 5.77665072,25.8756459 5.98722488,25.662201 L7.7237799,23.9018182 C8.14133971,23.4785167 8.13660287,22.7968421 7.71344498,22.3794258 C7.29,21.9615789 6.60832536,21.9663158 6.19090909,22.3896172 Z" id="Shape"></path>
                <path d="M4.62588517,15.067177 C4.62186603,14.4750718 4.1407177,13.9979426 3.54947368,13.9979426 C3.54703349,13.9979426 3.54444976,13.9979426 3.54200957,13.9979426 L1.06937799,14.0147368 C0.474832536,14.018756 -0.00387559809,14.504067 0.00014354067,15.0986124 C0.00416267943,15.6907177 0.485311005,16.1678469 1.07655502,16.1678469 C1.07899522,16.1678469 1.08157895,16.1678469 1.08401914,16.1678469 L3.55679426,16.1510526 C4.15119617,16.14689 4.62990431,15.6615789 4.62588517,15.067177 Z" id="Shape"></path>
                <path d="M6.09086124,7.7237799 C6.30057416,7.93076555 6.57373206,8.03397129 6.84688995,8.03397129 C7.12492823,8.03397129 7.40282297,7.92703349 7.61339713,7.71358852 C8.03095694,7.29028708 8.0262201,6.60861244 7.6030622,6.19119617 L5.84253589,4.45435407 C5.41923445,4.03636364 4.73755981,4.04138756 4.32014354,4.46454545 C3.90258373,4.88784689 3.90732057,5.56952153 4.33047847,5.9869378 L6.09086124,7.7237799 Z" id="Shape"></path>
            </g>
        </g>
    </g>
</svg>