<?xml version="1.0" encoding="UTF-8"?>
<svg width="70px" height="90px" viewBox="0 0 70 90" version="1.1" xmlns="http://www.w3.org/2000/svg" xmlns:xlink="http://www.w3.org/1999/xlink">
    <!-- Generator: Sketch 48.2 (47327) - http://www.bohemiancoding.com/sketch -->
    <title>tax</title>
    <desc>Created with Sketch.</desc>
    <defs></defs>
    <g id="Location-v2" stroke="none" stroke-width="1" fill="none" fill-rule="evenodd" transform="translate(-120.000000, -506.000000)">
        <g id="left-pane" transform="translate(-14.000000, 83.000000)" fill="#383838" fill-rule="nonzero">
            <g id="Muncipality" transform="translate(59.000000, 30.000000)">
                <g id="3" transform="translate(0.000000, 373.000000)">
                    <g id="tax" transform="translate(75.000000, 20.000000)">
                        <path d="M64.691543,0 L4.56626953,0 C2.13152344,0 0.150820313,1.98070313 0.150820313,4.41544922 L0.150820313,85.5845508 C0.150820313,88.0192969 2.13152344,90 4.56626953,90 L51.163418,90 C51.5371289,90 51.8957227,89.8516406 52.1597461,89.5872656 L68.6942578,73.0527539 C68.9586328,72.7885547 69.1069922,72.4301367 69.1069922,72.0564258 L69.1069922,4.41544922 C69.1069922,1.98070313 67.1262891,0 64.691543,0 Z M52.5724805,85.1888672 L52.5724805,75.0626367 C52.5724805,74.1819727 53.2889648,73.4654883 54.1696289,73.4654883 L64.2958594,73.4654883 L52.5724805,85.1888672 Z M66.2886914,70.6471875 L54.1696289,70.6471875 C51.7348828,70.6471875 49.7541797,72.6278906 49.7541797,75.0626367 L49.7541797,87.1816992 L4.56626953,87.1816992 C3.68560547,87.1816992 2.96912109,86.4652148 2.96912109,85.5845508 L2.96912109,4.41544922 C2.96912109,3.53478516 3.68560547,2.81830078 4.56626953,2.81830078 L64.691543,2.81830078 C65.572207,2.81830078 66.2886914,3.53478516 66.2886914,4.41544922 L66.2886914,70.6471875 Z" id="Shape"></path>
                        <path d="M58.9934114,42.7647661 L9.85984998,42.7647661 C7.74009638,42.7647661 6.02111842,43.8669853 6.02111842,45.2268701 C6.02111842,46.5867549 7.73961755,47.6889742 9.85984998,47.6889742 L58.9938902,47.6889742 C61.1136439,47.6889742 62.8326218,46.5867549 62.8326218,45.2268701 C62.8326218,43.8669853 61.1136439,42.7647661 58.9934114,42.7647661 Z" id="Shape" transform="translate(34.426870, 45.226870) rotate(-45.000000) translate(-34.426870, -45.226870) "></path>
                        <path d="M28.7107031,25.2358594 C27.5414063,24.0690234 25.9243945,23.4 24.2748633,23.4 C22.6251563,23.4 21.0081445,24.0690234 19.8370898,25.2374414 C18.6695508,26.405332 18,28.0225195 18,29.6748633 C18,31.3243945 18.6690234,32.9414063 19.8386719,34.1135156 C21.0079687,35.2805273 22.6249805,35.9497266 24.2748633,35.9497266 C25.9245703,35.9497266 27.541582,35.2805273 28.7135156,34.1108789 C29.8805273,32.941582 30.5497266,31.3245703 30.5497266,29.6748633 C30.5497266,28.0225195 29.8801758,26.4051563 28.7107031,25.2358594 Z M26.1780469,31.5755859 C25.6756641,32.0765625 24.9820313,32.3641406 24.2748633,32.3641406 C23.567168,32.3641406 22.8735352,32.0765625 22.3741406,31.5783984 C21.8731641,31.0760156 21.5855859,30.382207 21.5855859,29.6750391 C21.5855859,28.9662891 21.8726367,28.2730078 22.3711523,27.7743164 C22.8735352,27.2733398 23.5673438,26.9857617 24.2748633,26.9857617 C24.982207,26.9857617 25.6760156,27.2733398 26.1766406,27.7729102 C26.6770898,28.2733594 26.9639648,28.9664648 26.9639648,29.6748633 C26.9641406,30.3823828 26.6765625,31.0760156 26.1780469,31.5755859 Z" id="Shape"></path>
                        <path d="M50.3107031,54.0358594 C49.1414063,52.8690234 47.5243945,52.2 45.8748633,52.2 C44.2251563,52.2 42.6081445,52.8690234 41.4370898,54.0374414 C40.2695508,55.205332 39.6,56.8225195 39.6,58.4748633 C39.6,60.1243945 40.2690234,61.7414063 41.4386719,62.9135156 C42.6079688,64.0805273 44.2249805,64.7497266 45.8748633,64.7497266 C47.5245703,64.7497266 49.141582,64.0805273 50.3135156,62.9108789 C51.4805273,61.741582 52.1497266,60.1245703 52.1497266,58.4748633 C52.1497266,56.8225195 51.4801758,55.2051563 50.3107031,54.0358594 Z M47.7780469,60.3755859 C47.2756641,60.8765625 46.5820313,61.1641406 45.8748633,61.1641406 C45.167168,61.1641406 44.4735352,60.8765625 43.9741406,60.3783984 C43.4731641,59.8760156 43.1855859,59.182207 43.1855859,58.4750391 C43.1855859,57.7662891 43.4726367,57.0730078 43.9711523,56.5743164 C44.4735352,56.0733398 45.1673438,55.7857617 45.8748633,55.7857617 C46.582207,55.7857617 47.2760156,56.0733398 47.7766406,56.5729102 C48.2770898,57.0733594 48.5639648,57.7664648 48.5639648,58.4748633 C48.5641406,59.1823828 48.2765625,59.8760156 47.7780469,60.3755859 Z" id="Shape"></path>
                    </g>
                </g>
            </g>
        </g>
    </g>
</svg>