<?xml version="1.0" encoding="UTF-8"?>
<svg width="33px" height="40px" viewBox="0 0 33 40" version="1.1" xmlns="http://www.w3.org/2000/svg" xmlns:xlink="http://www.w3.org/1999/xlink">
    <!-- Generator: Sketch 48.2 (47327) - http://www.bohemiancoding.com/sketch -->
    <title>train</title>
    <desc>Created with Sketch.</desc>
    <defs></defs>
    <g id="Noise" stroke="none" stroke-width="1" fill="none" fill-rule="evenodd" transform="translate(-92.000000, -289.000000)">
        <g id="left-pane" transform="translate(0.000000, 83.000000)" fill="#383838" fill-rule="nonzero">
            <g id="checks" transform="translate(30.000000, 131.000000)">
                <g id="train" transform="translate(62.000000, 75.000000)">
                    <path d="M10.2059406,30.0859406 C10.0867327,29.8722772 9.8609901,29.739802 9.61584158,29.739802 L7.58811881,29.739802 C7.35366337,29.739802 7.13564356,29.8613861 7.01267327,30.0617822 L1.60534653,38.8485149 C1.47683168,39.0570297 1.47148515,39.3182178 1.59089109,39.5322772 C1.71009901,39.7459406 1.9360396,39.8784158 2.1809901,39.8784158 L4.20871287,39.8784158 C4.44316832,39.8784158 4.66118812,39.7568317 4.78415842,39.5564356 L10.1914851,30.769703 C10.319802,30.5611881 10.3251485,30.3 10.2059406,30.0859406 Z M3.83069307,38.5267327 L3.39029703,38.5267327 L7.96594059,31.0916832 L8.40633663,31.0916832 L3.83069307,38.5267327 Z" id="Shape"></path>
                    <path d="M31.1445545,38.8487129 L25.7372277,30.0619802 C25.6142574,29.8619802 25.3962376,29.740198 25.1617822,29.740198 L23.1340594,29.740198 C22.8891089,29.740198 22.6635644,29.8722772 22.5439604,30.0863366 C22.4247525,30.3 22.430099,30.5615842 22.5584158,30.770099 L27.9657426,39.5568317 C28.0887129,39.7568317 28.3067327,39.8786139 28.5411881,39.8786139 L30.5689109,39.8786139 C30.8138614,39.8786139 31.039604,39.7461386 31.1590099,39.5324752 C31.2784158,39.3188119 31.2728713,39.0572277 31.1445545,38.8487129 Z M28.9190099,38.5267327 L24.3433663,31.0916832 L24.7837624,31.0916832 L29.3594059,38.5267327 L28.9190099,38.5267327 Z" id="Shape"></path>
                    <path d="M25.8376238,34.4712871 L6.91227723,34.4712871 C6.53920792,34.4712871 6.23643564,34.7740594 6.23643564,35.1471287 C6.23643564,35.520198 6.53920792,35.8229703 6.91227723,35.8229703 L25.8376238,35.8229703 C26.2106931,35.8229703 26.5134653,35.520198 26.5134653,35.1471287 C26.5134653,34.7740594 26.2106931,34.4712871 25.8376238,34.4712871 Z" id="Shape"></path>
                    <path d="M31.9207921,21.6291089 L0.829108911,21.6291089 C0.456039604,21.6291089 0.153267327,21.9318812 0.153267327,22.3049505 L0.153267327,26.1336634 C0.153267327,28.8677228 2.37742574,31.0918812 5.11108911,31.0918812 L27.6390099,31.0918812 C30.3726733,31.0918812 32.5968317,28.8677228 32.5968317,26.1336634 L32.5968317,22.3049505 C32.5966337,21.9318812 32.2938614,21.6291089 31.9207921,21.6291089 Z M31.2445545,26.1336634 C31.2445545,28.1221782 29.6271287,29.74 27.6386139,29.74 L5.11089109,29.74 C3.12277228,29.74 1.5049505,28.1221782 1.5049505,26.1336634 L1.5049505,22.9807921 L31.2445545,22.9807921 L31.2445545,26.1336634 Z" id="Shape"></path>
                    <path d="M27.6386139,0 L5.11089109,0 C2.37722772,0 0.153069307,2.22415842 0.153069307,4.9580198 L0.153069307,5.40712871 C0.153069307,5.78019802 0.455841584,6.0829703 0.828910891,6.0829703 L31.9207921,6.0829703 C32.2938614,6.0829703 32.5966337,5.78019802 32.5964356,5.40712871 L32.5964356,4.9580198 C32.5964356,2.22415842 30.3722772,0 27.6386139,0 Z M1.51207921,4.73128713 C1.62930693,2.84792079 3.19881188,1.35168317 5.11089109,1.35168317 L27.6388119,1.35168317 C29.5508911,1.35168317 31.120396,2.84772277 31.2376238,4.73128713 L1.51207921,4.73128713 Z" id="Shape"></path>
                    <path d="M4.88455446,23.6568317 C3.39386139,23.6568317 2.1809901,24.869703 2.1809901,26.360396 C2.1809901,27.8510891 3.39386139,29.0639604 4.88455446,29.0639604 C6.37524752,29.0639604 7.58811881,27.8510891 7.58811881,26.360396 C7.58811881,24.869703 6.37524752,23.6568317 4.88455446,23.6568317 Z M4.88455446,27.7122772 C4.1390099,27.7122772 3.53267327,27.1059406 3.53267327,26.360396 C3.53267327,25.6148515 4.1390099,25.0085149 4.88455446,25.0085149 C5.63009901,25.0085149 6.23643564,25.6148515 6.23643564,26.360396 C6.23643564,27.1059406 5.63009901,27.7122772 4.88455446,27.7122772 Z" id="Shape"></path>
                    <path d="M8.94,23.6568317 C7.44930693,23.6568317 6.23643564,24.869703 6.23643564,26.360396 C6.23643564,27.8510891 7.44930693,29.0639604 8.94,29.0639604 C10.4306931,29.0639604 11.6435644,27.8510891 11.6435644,26.360396 C11.6435644,24.869703 10.4306931,23.6568317 8.94,23.6568317 Z M8.94,27.7122772 C8.19445545,27.7122772 7.58811881,27.1059406 7.58811881,26.360396 C7.58811881,25.6148515 8.19445545,25.0085149 8.94,25.0085149 C9.68554455,25.0085149 10.2918812,25.6148515 10.2918812,26.360396 C10.2918812,27.1059406 9.68554455,27.7122772 8.94,27.7122772 Z" id="Shape"></path>
                    <path d="M23.809901,23.6568317 C22.3192079,23.6568317 21.1063366,24.869703 21.1063366,26.360396 C21.1063366,27.8510891 22.3192079,29.0639604 23.809901,29.0639604 C25.3005941,29.0639604 26.5134653,27.8510891 26.5134653,26.360396 C26.5134653,24.869703 25.3005941,23.6568317 23.809901,23.6568317 Z M23.809901,27.7122772 C23.0643564,27.7122772 22.4580198,27.1059406 22.4580198,26.360396 C22.4580198,25.6148515 23.0643564,25.0085149 23.809901,25.0085149 C24.5554455,25.0085149 25.1617822,25.6148515 25.1617822,26.360396 C25.1617822,27.1059406 24.5554455,27.7122772 23.809901,27.7122772 Z" id="Shape"></path>
                    <path d="M27.8653465,23.6568317 C26.3746535,23.6568317 25.1617822,24.869703 25.1617822,26.360396 C25.1617822,27.8510891 26.3746535,29.0639604 27.8653465,29.0639604 C29.3560396,29.0639604 30.5689109,27.8510891 30.5689109,26.360396 C30.5689109,24.869703 29.3560396,23.6568317 27.8653465,23.6568317 Z M27.8653465,27.7122772 C27.119802,27.7122772 26.5134653,27.1059406 26.5134653,26.360396 C26.5134653,25.6148515 27.119802,25.0085149 27.8653465,25.0085149 C28.6108911,25.0085149 29.2172277,25.6148515 29.2172277,26.360396 C29.2172277,27.1059406 28.6108911,27.7122772 27.8653465,27.7122772 Z" id="Shape"></path>
                    <path d="M31.9207921,4.73128713 L0.829108911,4.73128713 C0.456039604,4.73128713 0.153267327,5.03405941 0.153267327,5.40712871 L0.153267327,22.3047525 C0.153267327,22.6778218 0.456039604,22.9805941 0.829108911,22.9805941 L31.9207921,22.9805941 C32.2938614,22.9805941 32.5966337,22.6778218 32.5966337,22.3047525 L32.5966337,5.40732673 C32.5966337,5.03425743 32.2938614,4.73128713 31.9207921,4.73128713 Z M31.2449505,21.6291089 L1.5049505,21.6291089 L1.5049505,6.08316832 L31.2449505,6.08316832 L31.2449505,21.6291089 Z" id="Shape"></path>
                </g>
            </g>
        </g>
    </g>
</svg>