<?xml version="1.0" encoding="UTF-8"?>
<svg width="40px" height="40px" viewBox="0 0 40 40" version="1.1" xmlns="http://www.w3.org/2000/svg" xmlns:xlink="http://www.w3.org/1999/xlink">
    <!-- Generator: Sketch 48.1 (47250) - http://www.bohemiancoding.com/sketch -->
    <title>View</title>
    <desc>Created with Sketch.</desc>
    <defs></defs>
    <g id="Export" stroke="none" stroke-width="1" fill="none" fill-rule="evenodd">
        <g id="View" fill="#FFFFFF" fill-rule="nonzero">
            <g id="view" transform="translate(5.000000, 8.000000)">
                <path d="M25.531,10.7805 C19.5865,4.836 9.915,4.836 3.9705,10.7805 L0,14.7505 L4.069,18.8195 C7.041,21.7915 10.945,23.278 14.8495,23.278 C18.754,23.278 22.6575,21.792 25.63,18.8195 L29.6005,14.849 L25.531,10.7805 Z M24.9225,18.1125 C19.368,23.6665 10.3305,23.6665 4.776,18.1125 L1.414,14.7505 L4.6775,11.487 C10.232,5.933 19.2695,5.933 24.824,11.487 L28.186,14.849 L24.9225,18.1125 Z" id="Shape"></path>
                <path d="M14.286,10.785 C12.356,10.785 10.786,12.355 10.786,14.285 C10.786,14.561 11.01,14.785 11.286,14.785 C11.562,14.785 11.786,14.561 11.786,14.285 C11.786,12.9065 12.9075,11.785 14.286,11.785 C14.562,11.785 14.786,11.561 14.786,11.285 C14.786,11.009 14.5625,10.785 14.286,10.785 Z" id="Shape"></path>
                <path d="M14.786,8.285 C11.202,8.285 8.286,11.201 8.286,14.785 C8.286,18.369 11.202,21.285 14.786,21.285 C18.37,21.285 21.286,18.369 21.286,14.785 C21.286,11.201 18.3705,8.285 14.786,8.285 Z M14.786,20.285 C11.7535,20.285 9.286,17.8175 9.286,14.785 C9.286,11.7525 11.7535,9.285 14.786,9.285 C17.8185,9.285 20.286,11.7525 20.286,14.785 C20.286,17.8175 17.819,20.285 14.786,20.285 Z" id="Shape"></path>
                <rect id="Rectangle-path" x="13.8434493" y="0" width="1.24878049" height="4.37073171"></rect>
                <rect id="Rectangle-path" transform="translate(24.301518, 4.819409) rotate(-60.007099) translate(-24.301518, -4.819409) " x="22.11612" y="4.19501002" width="4.37079556" height="1.24879873"></rect>
                <rect id="Rectangle-path" transform="translate(4.633405, 4.819993) rotate(-30.000728) translate(-4.633405, -4.819993) " x="4.00902837" y="2.6346754" width="1.24875301" height="4.37063555"></rect>
            </g>
        </g>
    </g>
</svg>